<svg xmlns="http://www.w3.org/2000/svg" viewBox="0 0 169 153">
  <g fill="none" fill-rule="evenodd">
    <path fill="#FFF" d="M5.415 99.496l18.404 20.389v28.271c0 1.678-1.881 3.813-3.15 3.813H7.804c-2.186-.101-3.356-2.643-3.457-4.575v-46.881c0-.712.357-.865 1.068-1.017zm158.844 0l-18.406 20.389v28.271c0 1.678 1.88 3.813 3.152 3.813h12.865c2.186-.101 3.356-2.643 3.457-4.575v-46.881c0-.712-.357-.865-1.068-1.017z"/>
    <path fill="#FFF" d="M4.347 122.275C-2.14 86.358 2.044 74.972 9.685 65.684c4.88-10.119 8.39-44.44 11.56-50.082l-2.967.099c0-.712 1.018-2.999 1.678-3.203.797-.027 1.588-.056 2.432-.171 3.314-8.066 8.144-8.218 14.349-9.134C46.448 1.871 67.04.65 84.812.549c17.769.101 38.363 1.322 48.074 2.644 6.205.916 11.035 1.068 14.347 9.134.844.115 1.635.144 2.432.171.662.204 1.678 2.491 1.678 3.203l-2.967-.099c3.17 5.642 6.68 39.963 11.561 50.082 7.64 9.288 11.824 20.674 5.339 56.591v-21.762c0-.712-.357-.865-1.068-1.017-1.197 6.001-2.221 12.234-3.561 12.763 0 1.22-.05 1.627-.05 2.898-.61-.661-1.371-1.271-2.059-1.399l-73.726.077-73.729-.077c-.686.128-1.449.738-2.059 1.399 0-1.271-.05-1.678-.05-2.898-1.34-.529-2.362-6.762-3.559-12.763-.711.152-1.068.305-1.068 1.017v21.762"/>
    <path fill="#FFF" d="M26.108 101.784c-1.728 0-3.101 1.424-3.101 3.102 0 1.728 1.373 3.152 3.101 3.152 1.729 0 3.102-1.424 3.102-3.152 0-1.678-1.373-3.102-3.102-3.102M35.718 78.648l-.102-.457-.101-.457-.102-.458-.152-.457-.203-.407-.204-.458-.203-.407-.203-.406-.256-.356-.254-.407-.304-.355-.305-.357-.305-.305-.357-.356-.355-.305-.356-.254-.355-.255-.409-.253-.404-.255-.408-.203-.408-.204-.457-.152-.457-.153-.407-.153-.509-.101-.457-.102-.457-.05h-.51l-.508-.051-.457.051h-.508l-.457.05-.51.102-.459.101-.914.306-.406.152-.459.204-.406.203-.406.255-.356.253-.408.255-.356.254-.355.305-.305.356-.304.305-.307.357-.305.355-.254.407-.254.356-.253.406-.206.407-.203.458-.152.407-.152.457-.153.458-.101.457-.051.457-.051.509-.051.458v1.017l.051.458.051.509.051.457.101.458.153.457.152.458.152.457.203.407.206.407.253.407.254.407.254.355.305.356.307.356.304.356.305.305.355.305.356.254.408.306.356.253.406.204.406.204.459.203.406.152.914.306.459.101.51.102.457.05.508.051h.965l.51-.051.457-.05.457-.102.509-.101.407-.153.457-.153.457-.152.408-.203.408-.204.404-.204.409-.253.355-.306.356-.254.355-.305.357-.305.61-.712.304-.356.254-.355.256-.407.406-.814.204-.407.203-.457.152-.458.102-.457.101-.458.102-.457.051-.509.052-.458v-1.017l-.052-.458-.051-.509M152.97 79.157l-.049-.509-.053-.457-.101-.457-.153-.458-.152-.457-.152-.407-.204-.458-.203-.407-.256-.406-.251-.356-.256-.407-.612-.712-.304-.305-.303-.356-.358-.305-.355-.254-.406-.255-.356-.253-.408-.255-.406-.203-.459-.204-.406-.152-.457-.153-.459-.153-.457-.101-.506-.102-.459-.05h-.508l-.459-.051-.508.051h-.51l-.457.05-.457.102-.508.101-.408.153-.457.153-.459.152-.81.407-.409.255-.406.253-.357.255-.354.254-.357.305-.356.356-.304.305-.307.357-.305.355-.254.407-.253.356-.204.406-.205.407-.203.458-.201.407-.154.457-.102.458-.101.457-.102.457-.051.509-.05.458v1.017l.05.458.051.509.102.457.101.458.102.457.154.458.201.457.203.407.205.407.204.407.253.407.254.355.305.356.307.356.304.356.356.305.357.305.354.254.357.306.406.253.409.204.404.204.406.203.459.152.457.153.408.153.508.101.457.102.457.05.51.051h.967l.508-.051.459-.05.506-.102.457-.101.459-.153.457-.153.406-.152.459-.203.406-.204.408-.204.356-.253.406-.306.355-.254.358-.305.303-.305.304-.356.307-.356.305-.356.256-.355.251-.407.256-.407.203-.407.204-.407.152-.457.152-.458.153-.457.101-.458.053-.457.049-.509.052-.458v-1.017l-.052-.458M135.888 50.632l1.523.153 1.477.102 1.472.152 1.424.153 1.373.153 1.322.152.409.05h1.117l.355-.05.305-.051.254-.05.254-.051.256-.102.203-.101.152-.154.203-.101.155-.153.099-.203.153-.152.103-.204.049-.203.101-.254.051-.255.051-.254.053-.305v-1.628l-.053-.355-.102-.814-.05-.406-.051-.407-.09-.407h-.01v-.051l-.103-.559-.102-.61-.099-.56-.104-.56-.101-.559-.102-.558-.102-.56-.101-.508-.104-.559-.099-.509-.102-.509-.103-.558-.102-.509-.1-.508-.103-.509-.102-.509-.101-.508-.102-.509-.101-.559-.153-.509-.101-.508-.102-.559-.101-.508-.102-.56-.103-.508-.151-.56-.103-.559-.102-.56-.152-.61-.102-.559-.152-.61-.084-.509h-.018v-.101l-.152-.559-.102-.509-.152-.508-.152-.459-.205-.457-.202-.457-.205-.407-.203-.407-.254-.356-.203-.356-.304-.356-.256-.305-.305-.304-.305-.306-.355-.254-.356-.254-.408-.203-.355-.255-.457-.204-.407-.202-.459-.153-.507-.152-.508-.154-.51-.152-.559-.153-.609-.101-.609-.101-.612-.102-.662-.051-.66-.102-.713-.051-.762-.051-1.119-.101-1.168-.102-1.17-.102-1.169-.101-1.221-.153-1.219-.102-1.273-.101-1.272-.102-1.269-.102-1.323-.101-1.322-.102-1.373-.102-1.373-.101-1.424-.102-1.424-.102-1.472-.102-1.477-.101-1.523-.102-1.528-.101-1.576-.051-1.627-.102-1.627-.102-1.627-.051-1.677-.102-1.729-.05-1.779-.051-1.78-.102-1.781-.051-1.881-.051-1.83-.05-1.931-.051h-3.358l-1.931.051-1.83.05-1.881.051-1.78.051-1.781.102-1.779.051-1.729.05-1.677.102-1.627.051-1.627.102-1.627.102-1.576.051-1.526.101-1.525.102-1.475.101-1.474.102-1.424.102-1.424.102-1.373.101-1.373.102-1.322.102-1.321.101-1.271.102-1.272.102-1.271.101-1.221.102-1.221.153-1.168.101-1.17.102-1.169.102-1.12.101-.761.051-.713.051-.66.102-.661.051-.609.102-.611.101-.612.101-.558.153-.508.152-.51.154-.508.152-.457.153-.406.202-.459.204-.355.255-.407.203-.357.254-.355.254-.305.306-.305.304-.254.305-.306.356-.203.356-.254.356-.202.407-.205.407-.203.457-.203.457-.154.459-.153.508-.101.509-.152.559v.101h-.016l-.086.509-.152.61-.102.559-.152.61-.102.56-.103.559-.153.56-.101.508-.102.56-.101.508-.102.559-.101.508-.153.509-.101.559-.204 1.017-.101.509-.102.509-.101.508-.102.509-.103.558-.1.509-.101.509-.104.559-.102.508-.101.56-.102.558-.101.559-.102.56-.101.56-.102.61-.101.559v.051h-.012l-.09.407-.102.813-.05.407-.051.407-.051.355v1.628l.051.305.051.254.05.255.102.254.051.203.101.204.153.152.101.203.153.153.205.101.15.154.205.101.254.102.254.051.254.05.305.051.355.05h1.121l.404-.05 1.323-.152 1.373-.153 1.424-.153 1.476-.152 1.475-.102 1.525-.153 1.574-.151 1.576-.153 1.68-.204 1.676-.152 1.728-.153 1.731-.153 1.779-.152 1.83-.101 1.881-.153 1.881-.153 1.934-.152 1.931-.102 1.983-.153 1.984-.101 2.033-.102 2.084-.153 2.086-.05 2.135-.102 2.135-.102 2.187-.05 2.186-.102 2.187-.051 2.237-.051h2.289l2.287-.051h4.068l2.287.051h2.289l2.237.051 2.187.051 2.186.102 2.185.05 2.139.102 2.135.102 2.084.05 2.084.153 2.035.102 1.982.101 1.983.153 1.931.102 1.934.152 1.881.153 1.881.153 1.83.101 1.781.152 1.728.153 1.729.153 1.678.152 1.677.204 1.577.153 1.578.151M143.563 101.784c-1.726 0-3.099 1.424-3.099 3.102 0 1.728 1.373 3.152 3.099 3.152 1.731 0 3.104-1.424 3.104-3.152 0-1.678-1.373-3.102-3.104-3.102M6.991 65.581c-.967.051-1.22 1.78-.713 1.729h2.139c.41-.552.834-1.093 1.268-1.626.029-.058.056-.117.084-.177-.891.04-2.03.074-2.778.074m155.69 0c.966.051 1.22 1.78.713 1.729h-2.137a46.361 46.361 0 0 0-1.27-1.626l-.084-.177c.891.04 2.03.074 2.778.074m-48.205 23.644c-9.7-.85-18.217-1.11-29.133-1.118h-1.067c-10.916.008-19.435.268-29.134 1.118-16.83 1.576-17.135 13.22-19.067 18.254-.367 1.049-1.166 2.369-2.158 3.462l50.359.249h1.067l50.357-.249c-.99-1.093-1.791-2.413-2.156-3.462-1.932-5.034-2.238-16.678-19.068-18.254M22.448 59.023a93.1 93.1 0 0 0-1.961-1.228c-.578-.355-1.211-.738-1.828-1.111l-.045.045a6.843 6.843 0 0 0 2.002-4.826c0-3.813-3.101-6.864-6.863-6.864a6.837 6.837 0 0 0-6.865 6.864c0 3.763 3.052 6.865 6.865 6.865a6.803 6.803 0 0 0 3.859-1.203c.301.238.6.48.881.716.67.559 1.244 1.079 1.514 1.403a6.07 6.07 0 0 0-.205 1.006c-.059.516-.041.99.052 1.333.762.863 4.069-.356 4.069-1.069-.152-.53-.502-1.06-.965-1.507a4.345 4.345 0 0 0-.51-.424m133.471-13.984c-3.762 0-6.863 3.051-6.863 6.864 0 1.873.767 3.582 2.004 4.826l-.045-.045c-.619.373-1.25.756-1.828 1.111-.825.505-1.541.952-1.963 1.228-.18.129-.352.271-.51.424-.463.447-.813.977-.965 1.507 0 .713 3.307 1.932 4.068 1.069.094-.343.112-.817.053-1.333a5.872 5.872 0 0 0-.205-1.006c.27-.324.844-.844 1.514-1.403.281-.236.58-.478.881-.716a6.807 6.807 0 0 0 3.859 1.203c3.814 0 6.865-3.102 6.865-6.865a6.836 6.836 0 0 0-6.865-6.864M10.843 113.834a1.926 1.926 0 0 0-.215.078 4.332 4.332 0 0 0-.399.223 6.56 6.56 0 0 0-.4.27 7.697 7.697 0 0 0-.805.752v-.083c-1.898 1.773-3.439 4.646.403 4.757l.156.004.646.001h.614l26.045.035v-6.102l-25.78-.036a1.001 1.001 0 0 0-.052.014l.002.037c-.071.01-.143.028-.215.05m149.629 1.24v.083a7.384 7.384 0 0 0-.807-.752 6.718 6.718 0 0 0-.398-.271 4.581 4.581 0 0 0-.401-.222 1.99 1.99 0 0 0-.215-.079 1.565 1.565 0 0 0-.214-.049c.001-.012.001-.025.003-.037l-.054-.014-25.778.036v6.102l26.043-.035h.616l.646-.001.154-.004c3.844-.11 2.303-2.984.405-4.757"/>
    <path fill="#FFF" d="M44.108 121.36v-.508l-.05-.56v-1.067l-.051-.509v-1.678l-.051-.56v-1.677l-.051-.56v-1.677l-.051-.56v-1.068l-.05-.559v-1.067l-.045-.441-.006-.068v-1.017l-.051-.508v-.966l-.053-.306-.05-.305-.102-.305-.101-.254-.153-.203-.152-.204-.203-.203-.203-.204-.254-.152-.254-.102-.254-.101-.256-.103-.305-.101h-.304l-.305-.051h-.561l-.302.051-.307.051-.305.101-.256.103-.251.102-.256.151-.254.153-.199.2-.004.004-.204.203-.152.204-.152.254-.104.254-.101.305-.049.305v.305l-.031.303-.006.066c-1.334.003-2.807.006-3.238.009-1.12.009-12.879.07-13.997.08l-.027.067-6.701.085c-.877-.02-1.736.36-2.453.953a5.391 5.391 0 0 0-1.416 1.822c-.147.31-.256.629-.324.945a3.354 3.354 0 0 0-.079.704v3.578a9.312 9.312 0 0 1 1.205-.951c.133-.083.268-.155.399-.211a2.11 2.11 0 0 1 .428-.165c-.047-.745-.047-1.299-.047-2.099 0-1.271 1.117-2.288 2.744-2.288h4.105l-.127.051 15.135-.051h4.377v4.679l-.051.559v2.237l.051.508v4.627l.053.509v1.322l.101.355.049.357.155.304.152.255.152.254.203.255.254.202.256.153.252.153.254.152.307.102.304.051.305.05.305.051h.357l.305-.051.305-.05.304-.051.307-.102.305-.101.304-.153.254-.153.508-.406.203-.255.205-.254.152-.305.102-.254.102-.356.101-.356v-1.322l-.051-.458v-.508m114.758-7.448c.133.056.266.127.401.211.132.083.267.178.398.282a9.35 9.35 0 0 1 .807.669v-3.578a3.42 3.42 0 0 0-.078-.704 4.407 4.407 0 0 0-.327-.946 5.337 5.337 0 0 0-1.416-1.821c-.714-.593-1.576-.973-2.451-.953l-6.701-.085-.027-.067c-1.119-.01-12.879-.071-13.996-.08-.432-.003-1.905-.006-3.239-.009l-.006-.066-.031-.303v-.305l-.051-.305-.101-.305-.102-.254-.152-.254-.152-.204-.204-.203-.003-.004-.2-.2-.256-.153-.253-.151-.254-.102-.256-.103-.303-.101-.307-.051-.304-.051h-.559l-.305.051h-.304l-.307.101-.254.103-.256.101-.252.102-.253.152-.204.204-.084.082-.121.121-.152.204-.152.203-.102.254-.101.305-.051.305-.051.306v.966l-.051.508v1.017l-.008.068-.043.441v1.067l-.05.559v1.068l-.051.56v1.677l-.051.56v1.677l-.051.56v1.678l-.051.509v1.067l-.05.56v1.016l-.051.458v1.322l.101.356.102.356.102.254.152.305.203.254.203.255.256.203.254.203.254.153.303.153.306.101.305.102.305.051.306.05.305.051h.355l.305-.051.305-.05.306-.051.305-.102.254-.152.254-.153.256-.153.254-.202.203-.255.152-.254.153-.255.152-.304.051-.357.101-.355v-1.322l.051-.509v-4.627l.051-.508v-2.237l-.051-.559v-4.679h4.377l15.137.051-.127-.051h4.105c1.627 0 2.744 1.017 2.744 2.288 0 .8 0 1.354-.047 2.099a2.26 2.26 0 0 1 .426.165M84.632 113.835l-40.371-.056v1.022l.051.559v1.678l.05.559v1.119l.051.509v.656l39.941.055h.788l39.941-.055v-.656l.051-.509v-1.119l.049-.559v-1.678l.052-.559v-1.022l-40.373.056h-.23"/>
    <path fill="#FFF" d="M64.7 128.123v9.203c.053 1.118 1.121 2.084 2.492 2.034h35.287c1.374.05 2.442-.916 2.493-2.034v-17.417l-19.881.027h-.508l-19.883-.027v8.214"/>
    <path fill="#FFF" d="M64.7 137.326v-9.193c-7.908.048-17.125.099-24.81.193-9.51-.254-9.612-5.339-13.426-6.559-.83-.238-1.106-.29-1.858-.302a104.76 104.76 0 0 0-.787-.002v14.35c.325-.008.602-.017.694-.024 12.758-1.137 20.011-4.555 23.103-4.057 2.289.154 8.594 1.018 10.932 7.628 2.406 0 4.453-.045 6.806-.05l1.141-.015c-1.021-.233-1.752-1.049-1.795-1.969m40.272 0v-9.193c7.91.048 17.127.099 24.812.193 9.508-.254 9.612-5.339 13.424-6.559.83-.238 1.107-.29 1.859-.302l.786-.002v14.35c-.323-.008-.6-.017-.692-.024-12.758-1.137-20.012-4.555-23.105-4.057-2.287.154-8.592 1.018-10.932 7.628-2.406 0-4.451-.045-6.805-.05l-1.14-.015c1.021-.233 1.752-1.049 1.793-1.969M85.956 71.938V56.226c-.045-.398-.475-.796-1.119-.927-.647.131-1.074.529-1.119.927v15.712c0 .614.57 1.078 1.119 1.258.549-.18 1.119-.644 1.119-1.258m0 2.694c0-.378-.088-1.019-1.119-1.312-1.031.293-1.119.934-1.119 1.312 0 .915 0 1.831-.051 2.746h-4.322c-.508 0-.559 1.779 0 1.779h10.982c.561 0 .51-1.779 0-1.779h-4.322c-.049-.915-.049-1.831-.049-2.746"/>
    <path stroke="#4A4A4A" stroke-width=".5" d="M84.531.6c18.102.102 38.695 1.322 48.407 2.644 6.203.915 11.033 1.068 14.287 9.051L84.531.6zm.052 8.135c25.677 0 42.201 3.051 65.134 3.814.661.204 1.678 2.491 1.678 3.204-1.526-.052-3.051-.103-4.577-.153-20.745-1.475-31.728-3.661-62.084-4.475l-.151-2.39zm0 4.729c23.338.457 36.049 1.474 49.372 2.746 8.948.559 12.711 2.898 14.084 9.61 1.321 7.067 2.593 14.186 3.915 21.305.915 5.287.966 7.982-4.932 7.728-20.847-1.221-35.034-3.661-62.491-3.661l.052-37.728zm0 34.728v-.356h2.287l2.288.051h2.288l2.238.051 2.186.051 2.187.101 2.185.051 2.137.102 2.136.102 2.084.051 2.085.152 2.034.102 1.982.102 1.984.152 1.931.102 1.933.152 1.881.153 1.882.152 1.83.102 1.779.152 3.458.306 1.678.152 1.678.203 1.577.153 1.576.153 1.525.152 1.475.102 1.473.152 1.425.153 1.372.153 1.322.152-.05.356-1.323-.152-1.372-.153-1.423-.153-1.424-.152-1.526-.153-1.526-.152-1.524-.153-1.628-.152-1.627-.153-1.729-.153-1.678-.152-1.78-.153-1.779-.152-1.83-.152-1.831-.102-1.881-.153-1.933-.153-1.931-.101-1.984-.153-2.033-.101-2.034-.153-2.034-.101-2.136-.102-2.084-.051-2.137-.102-2.185-.051-2.187-.101-2.186-.051-2.238-.051h-2.288l-2.288-.051h-2.287zm59.896 3.356l-.05.356-.052-.051h-.05v-.051h-.051v-.203h.051v-.051h.152zm-.05.356l.05-.356.408.051h1.118l.355-.051.306-.051.254-.051.254-.05.255-.102.203-.102.153-.152.202-.102.154-.153.101-.203.153-.152.102-.204.05-.203.101-.254.051-.255.051-.254.052-.305v-1.627l-.052-.356-.102-.814-.05-.406-.051-.407-.102-.458.357-.051.051.458.101.407.102.813.05.407v.407l.051.356v1.322l-.051.305-.05.254-.051.305-.103.255-.1.253-.103.204-.152.203-.152.204-.204.203-.204.153-.202.152-.204.102-.305.102-.254.101-.305.051-.306.051-.355.051h-.763l-.406-.051h-.458zm4.016-7.017l.357-.051v.102h-.052v.051h-.051v.051h-.152v-.051h-.05v-.051h-.052v-.051zm.357-.051l-.357.051-.101-.559-.102-.611-.101-.559-.102-.559-.101-.559-.103-.56-.102-.559-.101-.508-.103-.559-.1-.509-.102-.509-.102-.559-.102-.508-.101-.509-.204-1.017-.101-.508-.102-.509-.101-.559-.154-.508-.1-.509-.103-.559-.101-.508-.102-.56-.102-.508-.152-.56-.204-1.119-.152-.61-.102-.559-.152-.61-.103-.61.306-.051.152.61.153.559.102.611.102.559.152.559.102.56.101.559.153.559.101.508.103.56.101.508.102.559.101.509.204 1.017.152.559.204 1.018.101.508.204 1.017.102.559.05.508.103.56.101.508.102.56.152.559.204 1.118.202 1.119.103.61zm-3.815-17.389l.306-.051h.051v.051h-.051v.101h-.051l-.051.051h-.101l-.051-.051h-.052v-.101zm.306-.051l-.306.051-.152-.559-.102-.509-.152-.508-.152-.458-.204-.458-.203-.457-.204-.407-.203-.407-.255-.356-.203-.356-.304-.356-.255-.305-.305-.305-.306-.305-.355-.254-.356-.255-.407-.203-.355-.254-.458-.203-.407-.203-.458-.153-.508-.153-.508-.152-.509-.153-.56-.153-.609-.101-.61-.102-.611-.102-.661-.05-.66-.102-.713-.051-.763-.051v-.356l.763.051.713.052.711.101.661.051.61.101.611.102.609.152.56.102.559.153.509.152.508.153.458.203.915.407.406.254.407.204.356.304.356.255.356.305.306.305.304.356.254.356.255.356.254.406.254.408.203.406.204.458.152.457.154.509.152.508.152.559.102.56zm-12.814-8.39l.051-.356.051.051h.051v.052l.051.05v.102h-.051v.05h-.051v.051h-.102zm0-.356v.356l-1.118-.101-1.169-.102-2.339-.203-1.22-.153-1.221-.102-1.271-.101-1.272-.102-1.27-.102-1.322-.101-1.323-.102-1.372-.102-1.373-.101-1.424-.102-1.424-.102-1.474-.101-1.475-.102-1.524-.102-1.527-.102-1.576-.05-1.627-.102-1.627-.102-1.627-.051-1.678-.102-1.729-.051-1.779-.05-1.78-.102-1.78-.051-1.881-.05-1.83-.051-1.932-.051h-1.932v-.356h1.932l1.932.051 1.88.051 1.831.05 1.831.102 1.78.051 1.728.051 1.729.051 1.678.101 1.678.051 1.627.102 1.576.101 1.576.051 1.527.102 1.524.102 1.526.102 1.423.101 1.475.102 1.373.101 1.423.102 1.322.102 1.373.102 1.322.101 1.271.102 1.271.102 1.272.101 1.22.102 1.17.153 1.22.101 1.169.102 1.119.102 1.169.101h-.051zM84.583 54.802c19.017.356 38.947 1.271 56.693 3.458 18.508 2.491 27.203 20.135 24.711 30.914-3.152 8.848-4.677 13.882-5.44 21.915L84.583 54.802zm58.879 15.407v.356l-.508.051h-.509l-.458.05-.457.102-.508.102-.407.152-.458.153-.458.152-.406.204-.406.203-.408.254-.407.254-.355.255-.356.254-.356.305-.356.356-.304.305-.306.356-.305.356-.255.407-.253.356-.204.406-.204.407-.203.458-.203.407-.152.457-.103.458-.202.915-.052.509-.05.457v.508h-.356v-.508l.051-.508.05-.509.101-.458.103-.508.153-.457.152-.458.153-.458.202-.457.255-.407.203-.407.255-.407.304-.406.306-.356.305-.407.661-.661.355-.305.408-.305.355-.254.407-.255.407-.254.458-.203.457-.204.407-.203.458-.153.508-.101.458-.153.508-.051.508-.101h.509l.508-.051zm-9.965 9.965h.356v.509l.05.458.052.508.202.916.103.457.152.458.203.457.203.407.204.407.204.406.253.408.255.355.305.356.306.356.304.356.712.61.356.254.355.305.407.255.408.203.406.203.406.204.458.152.458.153.407.153.508.101.457.102.458.05.509.052h.508v.356h-.508l-.509-.052-.508-.05-.508-.102-.458-.101-.508-.153-.458-.153-.407-.203-.457-.203-.458-.204-.814-.508-.355-.255-.408-.305-.355-.305-.661-.661-.305-.356-.306-.406-.304-.407-.255-.356-.203-.458-.255-.406-.202-.458-.153-.458-.152-.457-.153-.458-.103-.509-.101-.457-.05-.509-.051-.508v-.509zm9.965 9.967v-.356h.458l.509-.052.458-.05.508-.102.457-.101.458-.153.458-.153.406-.152.458-.204.407-.203.406-.203.357-.255.406-.305.356-.254.356-.305.305-.305.304-.356.612-.712.254-.355.253-.408.255-.406.203-.407.204-.407.152-.457.153-.458.152-.457.102-.458.051-.458.051-.508.051-.458v-.509h.356v.509l-.102 1.017-.101.457-.103.509-.101.458-.153.457-.203.458-.204.458-.203.406-.254.458-.255.356-.304.407-.254.406-.306.356-.356.305-.356.356-.712.61-.406.255-.407.254-.407.254-.406.204-.458.203-.458.203-.458.153-.457.153-.509.101-.508.102-.458.05-.508.052h-.509zm9.916-9.967h-.356v-.508l-.051-.457-.051-.509-.051-.458-.102-.457-.152-.458-.153-.457-.152-.407-.204-.458-.203-.407-.255-.406-.253-.356-.254-.407-.612-.712-.304-.305-.305-.356-.356-.305-.356-.254-.406-.255-.357-.254-.406-.254-.407-.203-.458-.204-.406-.152-.458-.153-.458-.152-.457-.102-.508-.102-.458-.05h-.509l-.458-.051v-.356l.509.051h.508l.458.101.508.051.509.153.457.101.458.153.458.203.458.204.406.203.407.254.407.255.406.254.712.61.356.356.356.305.306.407.254.356.304.406.255.407.254.407.203.407.204.457.203.458.153.458.101.457.103.508.101.458.102 1.017v.508zm-9.814 27.915c1.729 0 3.102-1.423 3.102-3.152 0-1.678-1.373-3.102-3.102-3.102-1.729 0-3.101 1.424-3.101 3.102 0 1.729 1.372 3.152 3.101 3.152zm0-8.135v.356h-.254l-.204.05h-.253l-.204.052-.254.05-.204.051-.204.102-.202.051-.204.101-.203.102-.204.102-.203.152-.153.102-.203.152-.304.306-.154.152-.152.153-.152.203-.102.152-.153.204-.102.204-.101.203-.102.203-.051.203-.101.204-.051.203-.051.255-.052.203-.05.254v.458h-.356v-.254l.051-.255v-.254l.051-.203.051-.255.101-.254.052-.203.1-.255.103-.203.101-.203.102-.255.152-.203.153-.152.101-.204.204-.203.153-.153.152-.152.204-.153.152-.152.204-.153.203-.152.203-.102.255-.102.203-.102.203-.101.255-.051.254-.101.203-.051.255-.052h.254l.254-.05h.254zm-4.983 4.983h.356v.508l.05.203.052.255.051.203.051.204.101.254.051.203.102.204.101.203.102.203.153.153.102.203.152.153.152.203.154.153.152.153.152.152.203.101.153.153.203.102.204.101.203.102.204.102.202.102.204.05.204.102.254.051h.204l.253.051h.458v.355h-.508l-.254-.05-.255-.051-.203-.051-.254-.051-.255-.102-.203-.05-.203-.102-.255-.102-.203-.152-.203-.102-.204-.152-.152-.153-.204-.153-.152-.152-.153-.203-.204-.153-.101-.203-.153-.204-.152-.203-.102-.203-.101-.204-.103-.254-.1-.203-.052-.255-.101-.203-.051-.254-.051-.255v-.254l-.051-.254v-.254zm4.983 4.982v-.355h.508l.204-.051h.254l.203-.051.204-.102.254-.05.204-.102.203-.102.204-.102.152-.101.203-.102.203-.153.154-.101.152-.152.203-.153.153-.153.152-.203.102-.153.153-.203.1-.153.103-.203.101-.203.102-.204.103-.203.049-.254.052-.204.051-.203.051-.255.05-.203v-.508h.356v.508l-.05.254-.052.255-.05.254-.051.203-.102.255-.051.203-.101.254-.152.204-.103.203-.152.203-.102.204-.152.203-.153.153-.153.203-.203.152-.152.153-.204.153-.204.152-.203.102-.203.152-.204.102-.254.102-.203.05-.254.102-.204.051-.254.051-.254.051-.255.05h-.508zm4.983-4.982h-.356v-.458l-.05-.254-.051-.203-.051-.255-.052-.203-.049-.204-.103-.203-.102-.203-.101-.203-.103-.204-.1-.204-.153-.152-.102-.203-.152-.153-.153-.152-.203-.153-.152-.153-.154-.152-.203-.102-.203-.152-.152-.102-.204-.102-.203-.101-.204-.051-.254-.102-.204-.051-.203-.05-.254-.052h-.204l-.254-.05h-.254v-.356h.254l.254.05h.255l.254.052.254.051.204.101.254.051.203.101.254.102.204.102.203.102.203.152.204.153.204.152.152.153.203.152.153.153.153.203.152.204.102.152.152.203.103.255.152.203.101.203.051.255.102.203.051.254.05.255.052.203.05.254v.509z"/>
    <path stroke="#4A4A4A" stroke-width=".5" d="M143.462 67.26v.356h-.66l-.661.05-.611.102-.61.102-.609.101-.612.204-.558.203-.611.204-.558.254-.51.305-.559.305-.508.305-.458.356-.508.356-.457.407-.408.406-.407.458-.406.458-.407.457-.305.509-.356.508-.305.509-.254.559-.255.56-.254.559-.203.61-.152.559-.154.61-.101.61-.051.661-.051.61-.05.661h-.356l.05-.661.052-.66.05-.662.153-.61.101-.61.203-.661.205-.559.203-.61.254-.559.305-.56.305-.559.356-.508.711-1.017.408-.458.458-.458.915-.813.508-.407.508-.356.509-.305.509-.356.558-.254.611-.255.558-.254.611-.203.61-.153.61-.152.661-.102.662-.101.661-.051h.66zm-12.965 12.914h.356l.05.662.051.61.051.661.101.61.154.61.152.61.203.56.254.559.255.559.254.559.305.509.356.508.305.509.407.457.406.458.407.458.408.407.457.406.508.356.458.356.508.356.559.305.51.254.558.255.611.203.558.203.612.204.609.102.61.152.611.051.661.05h.66v.356h-.66l-.661-.05-.662-.102-.661-.101-.61-.153-.61-.153-.611-.203-.558-.254-.611-.255-.558-.253-.509-.306-.509-.356-.508-.356-.508-.406-.458-.408-.457-.406-.458-.458-.408-.457-.355-.509-.356-.508-.356-.509-.61-1.118-.254-.559-.203-.611-.205-.559-.203-.61-.101-.661-.153-.611-.05-.66-.052-.661-.05-.662zm12.965 12.915v-.356h.61l.661-.05.611-.051.661-.152.559-.102.61-.204.611-.203.559-.203.558-.255.56-.254.509-.305 1.016-.712.458-.356.458-.406.457-.407.407-.458.408-.458.354-.457.357-.509.305-.508.305-.509.306-.559.253-.559.204-.559.203-.56.153-.61.152-.61.102-.61.102-.661.05-.61v-.662h.356v.662l-.05.661-.102.66-.102.611-.152.661-.153.61-.203.559-.255.611-.254.559-.304.559-.306.559-.305.509-.407.508-.355.509-.407.457-.458.458-.407.406-.509.408-.457.406-.508.356-.509.356-.56.306-.558.253-.559.255-.61.254-.611.203-.61.153-.61.153-.661.101-.61.102-.661.05h-.662zm12.915-12.915h-.356v-.661l-.05-.61-.102-.661-.102-.61-.152-.61-.153-.559-.203-.61-.204-.559-.253-.56-.306-.559-.305-.509-.305-.508-.357-.509-.354-.457-.408-.458-.407-.458-.457-.406-.458-.407-.458-.356-.508-.356-.508-.305-.509-.305-.56-.305-.558-.254-.559-.204-.611-.203-.61-.204-.559-.101-.661-.102-.611-.102-.661-.05h-.61v-.356h.662l.661.051.61.101.661.102.61.152.61.153.611.203.61.254.559.255.558.254.56.356.509.305.508.356.457.407.509.407.407.406.458.458.407.458.355.508.407.509.305.508.306.559.304.56.254.559.255.61.203.559.153.661.152.61.102.61.102.662.05.66v.661z"/>
    <path stroke="#4A4A4A" stroke-width=".5" d="M142.039 58.361c-5.237 3.865-12.661 10.475-13.933 14.797-.609 3.051-.965 9.508-.965 15.101l14.898-29.898zM84.583 84.446c10.575.051 19.219.051 27.609.763 28.322 1.779 18.559 26.084 28.119 26.134 4.524-.05 9.863-.05 14.388-.05.814 0 .713 1.779.154 1.779-5.645.051-9.916.051-15.508.051-2.34-.051-4.984-3.407-5.747-5.593-1.932-5.034-2.237-16.678-19.068-18.254-9.863-.864-18.508-1.119-29.897-1.119l-.05-3.711zm29.186.915c17.134.763 14.795 6.457 22.982 9.101 5.542 1.78 14.39 1.17 27.151 1.119l-50.133-10.22zm-29.186 34.626l75.507-.101c5.593-.051.457-5.644-1.527-6.102l-73.93.102-.05 6.101zM148.395 15.65c3.203 5.644 6.711 39.966 11.592 50.084 7.577 9.305 11.746 20.694 5.34 56.592L148.395 15.65zm12.304 96.66c1.933-.763 3.154-13.017 5.288-20.034.61-1.271 1.17.051 1.17.61.051 8.39-.865 18.101-1.424 27.101l-5.034-7.677zm-1.881-4.272c.356-9.305-.712-19.626-1.831-29.033-1.575-11.593-15.304-17.949-26.236-5.949-.712.814-1.831.661-2.796.661l30.863 34.321zm1.119-42.507a49.43 49.43 0 0 0 2.746.101c.965.051 1.219 1.78.712 1.729h-2.085l-1.373-1.83zm-54.965 54.456v17.39c-.051 1.118-1.119 2.084-2.492 2.034H84.531l20.441-19.424zm40.88-.05v28.27c0 1.678 1.881 3.814 3.153 3.814h12.864c2.186-.102 3.356-2.644 3.458-4.577v-46.88c0-.712-.356-.865-1.068-1.017l-18.407 20.39zm-40.88 8.236c8.288.051 16.525.102 24.813.204 9.508-.254 9.61-5.339 13.423-6.559 1.068-.305 1.221-.305 2.644-.305l-40.88 6.66zm-1.678 11.186c2.594 0 5.237.052 7.831.052 2.338-6.61 8.643-7.474 10.932-7.628 3.152-.508 10.626 3.052 23.846 4.119l-42.609 3.457zM146.31 15.6c3.152 4.169 9.61 38.745 9.05 48.456L146.31 15.6zm9.61 43.219c3.813 0 6.864-3.102 6.864-6.864a6.836 6.836 0 0 0-6.864-6.865c-3.763 0-6.864 3.051-6.864 6.865 0 3.762 3.101 6.864 6.864 6.864zm-1.525-1.322c1.423 0 2.592-1.169 2.592-2.644a2.604 2.604 0 0 0-2.592-2.593c-1.475 0-2.645 1.17-2.645 2.593a2.626 2.626 0 0 0 2.645 2.644zM84.583 89.276c1.677-.051 3.406 0 5.084-.051.813 0 .355 2.543-.356 2.593-1.626 0-3.204.051-4.78.051l.052-2.593zm0 4.576l41.947-.254-41.947.254zm.05 2.085l44.135-.101-44.135.101zm-.05 2.186l45.609-.101-45.609.101zm0 2.237l46.574-.203-46.574.203zm.05 2.085l47.44-.05-47.44.05zm-.05 2.085l48.253.153-48.253-.153zm.05 2.186l48.762.102-48.762-.102zm-.102 2.288l49.474-.101-49.474.101zm.052 2.238l51.151-.255-51.151.255zm5.135-19.627l33.406-.153-33.406.153zm.254-2.237l25.016-.051-25.016.051zm35.847 16.982c-.204 5.034-.305 11.949-.509 16.983.153 4.271 7.22 4.729 7.271.102.102-4.779.051-11.593 0-16.932-.051-3.814-6.712-3.966-6.762-.153zm-.204 0h.357v.102h-.052v.051h-.254v-.102h-.051v-.051zm.357 0h-.357l.051-.356.052-.356.101-.305.153-.305.152-.254.203-.254.203-.203.254-.204.255-.204.305-.152.255-.101.304-.102.357-.051.304-.051.306-.051h.66l.305.051.357.102.305.051.305.152.304.102.255.153.508.406.204.255.203.254.153.254.152.305.102.305.051.356v.356h-.356v-.305l-.051-.305-.102-.305-.101-.255-.152-.254-.153-.203-.204-.203-.203-.204-.255-.152-.254-.153-.254-.102-.254-.101-.305-.102-.305-.051-.306-.051h-.559l-.305.051h-.304l-.306.101-.254.103-.254.101-.255.102-.254.152-.204.204-.202.203-.153.204-.153.203-.101.254-.102.306-.051.304-.05.305zm6.762.153h-.356.051v-.102h.05v-.051h.204v.051h.051v.102zm-.356 0h.356v.509l.05.508v14.491l-.05.508v.916h-.356v-.916l.051-.508v-4.627l.05-.508v-2.238l-.05-.559v-7.067l-.051-.509zm.356 16.932h-.356v-.102h.051v-.051h.05v-.05h.153v.05h.051v.051h.051v.102zm-.356 0h.356l-.102.813-.102.407-.152.356-.153.305-.204.305-.202.254-.255.204-.304.203-.306.204-.305.101-.305.153-.356.051-.305.051-.356.05h-.355l-.357-.05-.355-.051-.305-.051-.356-.102-.306-.152-.305-.153-.61-.406-.254-.255-.204-.254-.202-.255-.204-.305-.153-.355-.101-.356-.103-.407v-.407h.357v.356l.101.356.103.356.101.254.153.305.203.254.203.255.255.203.254.203.254.153.304.152.306.102.305.102.61.102.306.05h.355l.305-.05.306-.051.304-.051.305-.102.255-.152.254-.153.255-.152.253-.204.204-.254.152-.254.153-.255.152-.304.051-.356.102-.356v-.407zm-7.221-.102h.357v.051h-.051v.102h-.051l-.051.05h-.101v-.05h-.051l-.052-.051v-.102zm.357 0h-.357v-.458l.052-.508v-1.017l.051-.508v-1.577l.05-.508v-1.119l.051-.559v-1.678l.051-.559v-1.678l.051-.56v-1.627l.051-.559v-1.068l.05-.508v-1.017l.051-.508v-.967h.357v.967l-.052.508v1.017l-.051.508v1.068l-.05.559v1.068l-.051.559v1.679l-.05.559v1.677l-.052.56v1.678l-.051.508v1.068l-.051.559v1.017l-.05.458v.966z"/>
    <path stroke="#4A4A4A" stroke-width=".5" d="M132.581 106.869c7.933.05 15.864.153 23.796.254 2.186-.051 4.271 2.39 4.271 4.424v3.661c-.61-.661-1.373-1.271-2.033-1.373.05-.763.05-1.322.05-2.136 0-1.271-1.118-2.288-2.745-2.288h-23.339v-2.542zm22.729-47.44c-21.203-5.949-37.728-5.695-56.237-8.033l56.237 8.033zm-9.56 1.576c0 .712 3.306 1.933 4.068 1.068.153-.559.102-1.474-.152-2.339.763-.915 3.966-3.406 4.881-3.915.457-.458.051-1.17-.457-.915-1.323.763-5.543 3.305-6.865 4.169-.711.509-1.271 1.221-1.475 1.932zm-61.219-5.694c.814.05 1.373.508 1.424.966v15.711c0 .712-.763 1.221-1.372 1.322 1.271.255 1.372.966 1.372 1.373 0 .915 0 1.831.051 2.746h4.321c.51 0 .561 1.78 0 1.78h-5.694l-.102-23.898zM85.142.6C67.04.702 46.448 1.922 36.736 3.244c-6.204.915-11.034 1.068-14.288 9.051L85.142.6zm-.051 8.135c-25.678 0-42.203 3.051-65.135 3.814-.661.204-1.678 2.491-1.678 3.204 1.526-.052 3.051-.103 4.577-.153 20.745-1.475 31.626-3.661 61.93-4.475l.306-2.39zm0 4.729c-23.339.457-36.051 1.474-49.372 2.746-8.949.559-12.711 2.898-14.084 9.61-1.322 7.067-2.594 14.186-3.915 21.305-.916 5.287-.967 7.982 4.931 7.728 20.847-1.221 35.035-3.661 62.491-3.661l-.051-37.728zm0 34.728h-2.288l-2.288.051h-2.288l-2.238.051-2.186.051-2.187.101-2.186.051-2.135.102-2.085.051-2.136.102-2.034.101-2.033.153-2.034.101-1.983.153-1.932.101-1.933.153-1.881.153-1.831.102-1.83.152-1.78.152-1.78.153-1.677.152-1.728.153-1.628.153-1.627.152-1.525.153-1.525.152-1.526.153-1.424.152-1.424.153-1.373.153-1.321.152-.052-.356 1.323-.152 1.372-.153 1.425-.153 1.474-.152 1.475-.102 1.525-.152 1.576-.153 1.576-.153 1.679-.203 1.677-.152 1.728-.153 1.73-.153 1.779-.152 1.831-.102 1.881-.152 1.881-.153 1.933-.152 1.932-.102 1.983-.152 1.983-.102 2.034-.102 2.084-.152 2.085-.051 2.136-.102 2.135-.102 2.186-.051 2.187-.101 2.186-.051 2.238-.051h2.288l2.288-.051h2.288v.356zm-59.898 3.356h.153v.051h.051v.203h-.051v.051h-.051l-.05.051-.052-.356zm.052.356h-.458l-.406.051h-.764l-.355-.051-.306-.051-.305-.051-.254-.101-.304-.102-.204-.102-.203-.152-.204-.153-.204-.203-.152-.204-.152-.203-.102-.204-.101-.253-.102-.255-.051-.305-.052-.254-.05-.305v-1.322l.05-.356v-.407l.052-.407.102-.813.101-.407.051-.458.356.051-.102.458-.102.813-.05.407-.051.407-.051.356v1.627l.051.305.051.254.05.255.102.254.051.203.101.204.153.152.101.203.154.153.203.102.152.152.204.102.254.102.254.05.255.051.305.051.355.051h1.119l.406-.051.052.356zm-4.017-7.017v.051h-.051v.051h-.051v.051h-.152v-.051h-.051v-.051h-.051v-.102l.356.051zm-.356-.051l.102-.61.101-.559.102-.56.101-.559.103-.559.151-.559.103-.56.101-.508.102-.56.051-.508.101-.559.103-.509.1-.508.306-1.526.152-.559.204-1.017.101-.509.102-.559.102-.508.102-.56.101-.508.153-.559.101-.559.102-.56.153-.559.101-.559.102-.611.153-.559.153-.61.305.051-.103.61-.152.61-.102.559-.152.61-.204 1.119-.153.56-.101.508-.102.56-.101.508-.102.559-.101.509-.153.508-.102.559-.102.509-.101.508-.204 1.017-.101.509-.102.508-.102.559-.202 1.018-.103.559-.102.508-.101.559-.102.56-.101.559-.103.559-.101.559-.102.611-.101.559-.356-.051zm3.814-17.389v.101h-.051l-.052.051h-.101l-.051-.051h-.05v-.101h-.052v-.051h.052l.305.051zm-.305-.051l.101-.56.153-.559.304-1.017.153-.457.203-.458.204-.406.254-.408.255-.406.508-.712.304-.356.306-.305.356-.305.356-.255.355-.304.408-.204.407-.254.457-.203.458-.204.458-.203.507-.153.509-.152.559-.153.56-.102.609-.152.611-.102.61-.101.661-.051.712-.101.712-.052.762-.051v.356l-.762.051-.712.051-.661.102-.661.05-.61.102-.61.102-.611.101-.559.153-.508.153-.509.152-.509.153-.457.153-.406.203-.458.203-.356.254-.407.203-.356.255-.355.254-.305.305-.306.305-.255.305-.304.356-.203.356-.254.356-.408.814-.406.915-.153.458-.153.508-.101.509-.152.559-.305-.051zm12.812-8.39h-.101v-.051h-.051v-.05h-.051v-.102l.051-.05v-.052h.051l.051-.051.05.356zm0-.356h-.05l1.17-.101 1.118-.102 1.169-.102 1.22-.101 1.17-.153 1.221-.102 1.27-.101 1.272-.102 1.27-.102 1.323-.101 1.372-.102 1.323-.102 1.424-.102 1.372-.101 1.475-.102 1.423-.101 1.526-.102 1.525-.102 1.526-.102 1.576-.051 1.576-.101 1.627-.102 1.679-.051 1.677-.101 1.729-.051 1.728-.051 1.781-.051 1.83-.102 1.831-.05 1.881-.051 1.931-.051h1.933v.356h-1.933l-1.931.051-1.831.051-1.881.05-1.78.051-1.78.102-1.779.05-1.729.051-1.677.102-1.627.051-1.627.102-1.628.102-1.576.05-1.526.102-1.525.102-1.475.102-1.474.101-1.424.102-1.423.102-1.373.101-1.374.102-1.322.102-1.321.101-1.271.102-1.272.102-1.271.101-1.221.102-1.22.153-2.339.203-1.168.102-1.12.101v-.356zm47.898 36.152c-19.017.356-38.948 1.271-56.694 3.458C9.889 60.751 1.194 78.395 3.686 89.174c3.153 8.848 4.677 13.882 5.44 21.915l75.965-56.287zm-58.88 15.407l.508.051h.509l.508.101.509.051.457.153.509.101.457.153.407.203.457.204.458.203.407.254.407.255.356.254.406.305.357.305.355.356.305.305.305.407.305.356.305.406.255.407.203.407.254.407.204.457.152.458.153.458.152.457.103.508.101.458.05.509.052.508v.508h-.357v-.508l-.05-.457-.051-.509-.102-.458-.101-.457-.102-.458-.153-.457-.203-.407-.204-.458-.203-.407-.203-.406-.255-.356-.254-.407-.304-.356-.306-.356-.661-.661-.355-.305-.357-.254-.355-.255-.408-.254-.406-.254-.814-.407-.457-.152-.458-.153-.407-.152-.508-.102-.457-.102-.458-.05h-.509l-.508-.051v-.356zm9.966 9.965v.509l-.052.508-.05.509-.101.457-.103.509-.152.458-.153.457-.152.458-.204.458-.254.406-.203.458-.255.356-.305.407-.305.406-.305.356-.305.305-.355.356-.357.305-.406.305-.356.255-.814.508-.458.204-.457.203-.407.203-.457.153-.509.153-.457.101-.509.102-.508.05-.509.052h-.508v-.356h.508l.509-.052.458-.05.457-.102.508-.101.407-.153.458-.153.457-.152 1.22-.61.408-.255.355-.305.357-.254.355-.305.356-.305.305-.356.306-.356.304-.356.254-.355.255-.408.203-.406.203-.407.204-.407.203-.457.153-.458.102-.457.101-.458.102-.458.051-.508.05-.458v-.509h.357zm-9.966 9.967h-.509l-.509-.052-.458-.05-.507-.102-.509-.101-.457-.153-.458-.153-.458-.203-.457-.203-.407-.204-.407-.254-.406-.254-.407-.255-.356-.305-.356-.305-.357-.356-.355-.305-.305-.356-.255-.406-.304-.407-.254-.356-.255-.458-.203-.406-.204-.458-.203-.458-.153-.457-.101-.458-.102-.509-.102-.457-.051-.509-.05-.508v-.509h.355v.509l.051.458.051.508.051.458.102.458.152.457.153.458.152.457.203.407.205.407.507.814.255.355.305.356.306.356.304.356.305.305.356.305.356.254.407.305.356.255.407.203.406.203.458.204.406.152.458.153.457.153.458.101.509.102.458.05.508.052h.458v.356zm-9.915-9.967v-.508l.05-.508.051-.509.102-.458.102-.508.101-.457.153-.458.203-.458.204-.457.203-.407.255-.407.254-.407.304-.406.255-.356.305-.407.355-.305.357-.356.712-.61.407-.254.406-.255.407-.254.407-.203.457-.204.458-.203.458-.153.457-.101.509-.153.507-.051.458-.101h.509l.509-.051v.356l-.458.051h-.508l-.458.05-.509.102-.458.102-.457.152-.458.153-.406.152-.458.204-.406.203-.407.254-.356.254-.407.255-.356.254-.356.305-.305.356-.304.305-.306.356-.305.356-.255.407-.254.356-.253.406-.205.407-.203.458-.152.407-.153.457-.152.458-.102.457-.051.458-.051.509-.051.457v.508h-.355zm9.812 27.915c1.73 0 3.103-1.423 3.103-3.152 0-1.678-1.373-3.102-3.103-3.102-1.727 0-3.1 1.424-3.1 3.102 0 1.729 1.373 3.152 3.1 3.152zm0-8.135h.255l.255.05h.254l.254.052.203.051.254.101.255.051.203.101.204.102.254.102.203.102.203.152.203.153.153.152.204.153.153.152.152.153.203.203.102.204.153.152.153.203.1.255.102.203.103.203.101.255.051.203.101.254.051.255.051.203v.254l.051.255v.254h-.356v-.458l-.05-.254-.051-.203-.052-.255-.051-.203-.101-.204-.05-.203-.103-.203-.101-.203-.102-.204-.152-.204-.103-.152-.152-.203-.152-.153-.153-.152-.152-.153-.153-.153-.204-.152-.152-.102-.203-.152-.203-.102-.204-.102-.204-.101-.202-.051-.204-.102-.204-.051-.254-.05-.204-.052h-.254l-.203-.05h-.255v-.356zm4.984 4.983v.254l-.051.254v.254l-.051.255-.051.254-.101.203-.051.255-.101.203-.103.254-.102.204-.1.203-.153.203-.153.204-.102.203-.203.153-.152.203-.153.152-.204.153-.153.153-.203.152-.203.102-.203.152-.254.102-.204.102-.203.05-.255.102-.254.051-.203.051-.254.051-.254.05h-.51v-.355h.458l.254-.051h.204l.254-.051.204-.102.204-.05.202-.102.204-.102.204-.102.203-.101.203-.102.152-.153.204-.101.153-.152.152-.153.153-.153.152-.203.152-.153.103-.203.152-.153.102-.203.101-.203.103-.204.05-.203.101-.254.051-.204.052-.203.051-.255.05-.203v-.508h.356zm-4.984 4.982h-.507l-.255-.05-.254-.051-.254-.051-.203-.051-.254-.102-.204-.05-.254-.102-.204-.102-.203-.152-.203-.102-.205-.152-.203-.153-.152-.153-.203-.152-.153-.203-.152-.153-.152-.203-.103-.204-.152-.203-.102-.203-.152-.204-.102-.254-.051-.203-.102-.255-.051-.203-.05-.254-.051-.255-.051-.254v-.508h.356v.508l.05.203.052.255.051.203.051.204.05.254.102.203.101.204.102.203.103.203.101.153.152.203.102.153.152.203.153.153.204.153.152.152.153.101.203.153.203.102.153.101.203.102.203.102.204.102.253.05.204.102.205.051h.253l.204.051h.507v.355zm-4.982-4.982v-.509l.051-.254.051-.203.05-.255.051-.254.102-.203.051-.255.102-.203.152-.203.102-.255.152-.203.103-.152.152-.204.152-.203.153-.153.203-.152.152-.153.203-.152.205-.153.203-.152.203-.102.204-.102.254-.102.204-.101.254-.051.203-.101.254-.051.254-.052h.255l.254-.05h.253v.356h-.253l-.254.05h-.204l-.253.052-.205.05-.204.051-.253.102-.204.051-.203.101-.203.102-.153.102-.203.152-.203.102-.153.152-.152.153-.204.153-.153.152-.152.153-.102.203-.152.152-.101.204-.103.204-.102.203-.101.203-.102.203-.05.204-.051.203-.051.255-.052.203-.05.254v.458h-.356z"/>
    <path stroke="#4A4A4A" stroke-width=".5" d="M26.211 67.26h.661l.66.051.661.101.661.102.611.152.61.153.611.203.559.254.61.255.559.254.509.356.508.305.508.356.509.407.457.407.458.406.457.458.408.458.355.508.356.509.356.508.306.559.304.56.255.559.202.61.204.559.205.661.1.61.152.61.052.662.05.66.052.661h-.357l-.049-.661-.052-.61-.051-.661-.102-.61-.153-.61-.152-.559-.203-.61-.255-.559-.253-.56-.255-.559-.305-.509-.356-.508-.305-.509-.813-.915-.408-.458-.406-.406-.458-.407-.508-.356-.458-.356-.508-.305-.559-.305-.509-.305-.558-.254-.612-.204-.559-.203-.61-.204-.61-.101-.61-.102-.611-.102-.66-.05h-.661v-.356zm12.966 12.914l-.052.662-.05.661-.052.66-.152.611-.1.661-.205.61-.204.559-.202.611-.255.559-.304.559-.306.559-.356.509-.356.508-.355.509-.408.457-.457.458-.458.406-.457.408-.509.406-1.016.712-.509.306-.559.253-.61.255-.559.254-.611.203-.61.153-.611.153-.661.101-.661.102-.66.05h-.661v-.356h.661l.66-.05.611-.051.61-.152.61-.102.61-.204.559-.203.612-.203.558-.255.509-.254.559-.305.508-.356.458-.356.508-.356.458-.406.406-.407.408-.458.813-.915.305-.509.356-.508.305-.509.255-.559.253-.559.255-.559.203-.56.152-.61.153-.61.102-.61.051-.661.052-.61.049-.662h.357zM26.211 93.089h-.661l-.661-.05-.611-.102-.661-.101-.609-.153-.611-.153-.61-.203-.61-.254-.559-.255-.56-.253-.559-.306-.509-.356-.508-.356-.458-.406-.508-.408-.407-.406-.458-.458-.406-.457-.356-.509-.407-.508-.305-.509-.305-.559-.306-.559-.253-.559-.255-.611-.203-.559-.153-.61-.151-.661-.103-.611-.101-.66-.051-.661v-.662h.355v.662l.051.61.102.661.102.61.152.61.153.61.203.56.204.559.254.559.305.559.305.509.305.508.356.509.356.457.814.916.915.813.458.356.507.356.51.356.508.305.56.254.558.255.56.203.61.203.609.204.56.102.661.152.61.051.662.05h.61v.356zM13.296 80.174v-.661l.051-.66.101-.662.103-.61.151-.61.153-.661.203-.559.255-.61.253-.559.306-.56.305-.559.305-.508.407-.509.356-.508.406-.458.458-.458.407-.406.508-.407.458-.407.508-.356.509-.305.559-.356.56-.254.559-.255.61-.254.61-.203.611-.153.609-.152.661-.102.611-.101.661-.051h.661v.356h-.61l-.662.05-.61.102-.661.102-.56.101-.609.204-.61.203-.56.204-.558.254-.56.305-.508.305-.51.305-.507.356-.458.356-.457.407-.458.406-.814.916-.356.457-.356.509-.305.508-.305.509-.305.559-.254.56-.204.559-.203.61-.153.559-.152.61-.102.61-.102.661-.051.61v.661h-.355z"/>
    <path stroke="#4A4A4A" stroke-width=".5" d="M27.635 58.361c5.236 3.865 12.66 10.475 13.931 14.797.611 3.051.966 9.508.966 15.101L27.635 58.361zm57.456 26.085c-10.576.051-19.22.051-27.611.763-28.32 1.779-18.557 26.084-28.117 26.134-4.525-.05-9.864-.05-14.389-.05-.814 0-.712 1.779-.154 1.779 5.645.051 9.915.051 15.509.051 2.339-.051 4.984-3.407 5.746-5.593 1.932-5.034 2.238-16.678 19.068-18.254 9.864-.864 18.507-1.119 29.897-1.119l.051-3.711zm-29.186.915c-17.134.763-14.797 6.457-22.982 9.101-5.542 1.78-14.39 1.17-27.152 1.119l50.134-10.22zm29.186 34.626l-75.508-.101c-5.593-.051-.457-5.644 1.526-6.102l73.931.102.051 6.101zM21.278 15.65c-3.203 5.644-6.712 39.966-11.592 50.084-7.577 9.305-11.746 20.694-5.339 56.592L21.278 15.65zM8.974 112.31c-1.933-.763-3.153-13.017-5.288-20.034-.61-1.271-1.169.051-1.169.61-.052 8.39.864 18.101 1.423 27.101l5.034-7.677zm1.881-4.272c-.356-9.305.712-19.626 1.831-29.033 1.576-11.593 15.304-17.949 26.237-5.949.711.814 1.83.661 2.796.661l-30.864 34.321zM9.736 65.531c-.916.051-1.83.101-2.745.101-.967.051-1.22 1.78-.713 1.729h2.085l1.373-1.83zm54.965 54.456v17.39c.052 1.118 1.119 2.084 2.491 2.034h17.95l-20.441-19.424zm-40.881-.05v28.27c0 1.678-1.881 3.814-3.151 3.814H7.804c-2.186-.102-3.356-2.644-3.457-4.577v-46.88c0-.712.356-.865 1.068-1.017l18.405 20.39zm40.881 8.236c-8.288.051-16.525.102-24.812.204-9.508-.254-9.611-5.339-13.424-6.559-1.068-.305-1.22-.305-2.645-.305l40.881 6.66zm1.679 11.186c-2.594 0-5.237.052-7.831.052-2.339-6.61-8.644-7.474-10.932-7.628-3.152-.508-10.627 3.052-23.846 4.119l42.609 3.457zM23.363 15.6c-3.152 4.169-9.61 38.745-9.05 48.456l9.05-48.456zm-9.61 43.219c3.763 0 6.865-3.102 6.865-6.864 0-3.814-3.102-6.865-6.865-6.865a6.836 6.836 0 0 0-6.864 6.865c0 3.762 3.051 6.864 6.864 6.864zm1.525-1.322a2.626 2.626 0 0 0 2.645-2.644c0-1.423-1.17-2.593-2.645-2.593a2.604 2.604 0 0 0-2.592 2.593c0 1.475 1.169 2.644 2.592 2.644zm69.813 31.779c-1.678-.051-3.406 0-5.085-.051-.814 0-.356 2.543.356 2.593 1.627 0 3.203.051 4.78.051l-.051-2.593zm0 4.576l-41.948-.254 41.948.254zm-.051 2.085l-44.135-.101 44.135.101zm.051 2.186l-45.61-.101 45.61.101zm0 2.237l-46.575-.203 46.575.203zm-.051 2.085l-47.439-.05 47.439.05zm.051 2.085l-48.253.153 48.253-.153zm-.051 2.186l-48.762.102 48.762-.102zm.102 2.288l-49.474-.101 49.474.101zm-.051 2.238l-51.152-.255 51.152.255zm-5.136-19.627l-33.405-.153 33.405.153zm-.254-2.237l-25.016-.051 25.016.051zM43.854 106.36c.204 5.034.305 11.949.508 16.983-.151 4.271-7.219 4.729-7.27.102-.102-4.779-.051-11.593 0-16.932.051-3.814 6.711-3.966 6.762-.153zm.204 0v.051h-.051v.102h-.254v-.051h-.051v-.102h.356zm-.356 0l-.052-.305-.05-.304-.102-.306-.102-.254-.152-.203-.152-.204-.204-.203-.203-.204-.254-.152-.254-.102-.254-.101-.255-.103-.306-.101h-.304l-.305-.051h-.56l-.304.051-.306.051-.305.102-.255.101-.252.102-.255.153-.255.152-.203.204-.204.203-.152.203-.152.254-.103.255-.101.305-.051.305v.305h-.356v-.356l.051-.356.102-.305.152-.305.153-.254.204-.254.202-.255.51-.406.253-.153.305-.102.306-.152.304-.051.357-.102.305-.051h.661l.304.051.305.051.357.051.305.102.254.101.305.152.254.204.255.204.203.203.204.254.152.254.152.305.102.305.102.712h-.356zm-6.763.153v-.102h.051v-.051h.203v.051h.051v.102h.051-.356zm.356 0l-.051.509v7.067l-.051.559v2.238l.051.508v4.627l.051.508v.916h-.356v-.916l-.051-.508V107.53l.051-.508v-.509h.356zm-.356 16.932v-.102h.051v-.051h.051v-.05h.152v.05h.051v.051h.051v.102h-.356zm.356 0v.407l.102.356.05.356.154.304.152.255.152.254.203.254.254.204.256.152.253.153.254.152.306.102.61.102.305.05h.356l.305-.05.306-.051.304-.051.306-.102.305-.102.304-.152.254-.153.254-.203.255-.203.203-.255.204-.254.152-.305.102-.254.102-.356.101-.356v-.356h.357v.407l-.103.407-.1.356-.154.355-.203.305-.203.255-.203.254-.255.255-.61.406-.305.153-.305.152-.356.102-.306.051-.355.051-.356.05h-.356l-.356-.05-.304-.051-.357-.051-.306-.153-.304-.101-.306-.204-.305-.203-.254-.204-.204-.254-.203-.305-.152-.305-.152-.356-.102-.407-.102-.813h.356zm7.221-.102v.102l-.051.051h-.052v.05h-.1l-.052-.05h-.05v-.102h-.052v-.051h.357zm-.357 0v-.966l-.051-.458v-1.017l-.05-.559v-1.068l-.051-.508v-1.678l-.051-.56v-1.677l-.051-.559v-1.679l-.051-.559v-1.068l-.051-.559v-1.068l-.05-.508v-1.017l-.051-.508v-.967h.356v.967l.05.508v1.017l.051.508v1.068l.052.559v1.627l.05.56v1.678l.052.559v1.678l.049.559v1.119l.051.508v1.577l.052.508v1.017l.051.508v.458h-.357z"/>
  </g>
</svg>
