<svg xmlns="http://www.w3.org/2000/svg" viewBox="0 0 350 169">
  <g fill="none" fill-rule="evenodd">
    <path fill="#FFF" d="M348.679 105.906c.509-7.27.763-14.035.713-21.254.05-7.219-.204-13.983-.713-21.254-.914-11.133-2.033-21.66-4.219-34.064l-.084-.459c2.664-2.356.434-6.215-2.662-6.356l.152-2.185c.254-7.577-6.304-11.797-9.508-13.831-2.398-1.798-3.328.317-2.898 2.491-4.848-.172-8.552-.237-12.859.144.045-1.72-1.785-2.992-4.682-3.144-17.949-.407-35.847-.813-53.941-1.268-44.174-1.363-103.91-1.629-142.378-1.629-6.203-1.73-11.135-2.238-17.695 0-5.135-.205-10.271-.408-15.406-.611-16.423-.457-37.321.508-47.592 1.424-7.475.761-21.661 6.761-22.271 9.863l-.051.408c-1.474.254-2.847 1.729-2.898 2.389v20.287c.043.773 1.205 2.299 2.39 2.898-5.288 6.815-7.729 24.864-8.238 44.897.509 20.035 2.95 38.084 8.238 44.898-1.185.6-2.347 2.125-2.39 2.899v20.287c.051.66 1.424 2.135 2.898 2.389l.051.408c.61 3.101 14.796 9.101 22.271 9.863 10.271.916 31.169 1.881 47.592 1.424 5.135-.203 10.271-.406 15.406-.611 6.56 2.238 11.492 1.73 17.695 0 38.468 0 98.204-.266 142.378-1.629 18.094-.455 35.992-.862 53.941-1.268 2.897-.152 4.727-1.424 4.682-3.144 4.307.378 8.011.316 12.859.144-.43 2.174.5 4.289 2.898 2.49 3.204-2.033 9.762-6.254 9.508-13.83l-.152-2.185c3.096-.141 5.326-4 2.662-6.356l.084-.459c2.186-12.404 3.305-22.931 4.219-34.066"/>
    <path fill="#FFF" d="M323.308 84.605c.299-16.402-2.547-30.881-6.713-46.629-.558-2.287-2.439-3.609-5.592-3.203-3.253.406-6.56.662-9.814 1.119-2.135.508-3.609 2.797-2.795 6.356 2.641 9.601 6.043 25.746 5.847 42.357v.047c.196 16.609-3.206 32.756-5.847 42.357-.814 3.559.66 5.848 2.795 6.405 3.254.408 6.561.662 9.814 1.121 3.153.355 5.034-.969 5.592-3.254 4.166-15.748 7.012-30.227 6.713-46.629v-.047zm-205.878.023c.56 20.823 3.255 38.159 7.424 52.6.915 3.104.56 5.797-3.813 7.119-4.831 1.322-7.475 1.932-12.305 3.256-3.966.861-5.644-3.408-6.356-5.596-4.423-14.543-9.102-31.627-8.797-57.38-.305-25.754 4.374-42.836 8.797-57.379.712-2.186 2.39-6.457 6.356-5.592 4.83 1.32 7.474 1.931 12.305 3.254 4.373 1.32 4.728 4.066 3.813 7.117-4.169 14.441-6.864 31.779-7.424 52.601zm213.198-73.652c2.279 1.02 4.053 2.733 5.711 4.83.027.035.092.168.168.328a5.1 5.1 0 0 1 1.279.717l.113-.078.155-.051.15-.101.154-.051h.153l.152-.051h.66l.153.051h.152l.152.051.155.101.101.051.152.104.153.099.101.102.153.103.101.102.153.152.101.152.104.102.099.152.102.203.103.153.102.152.051.205.101.153.102.406.101.203.051.203c-.219-7.066-6.422-11.057-9.508-13.016-2.541-1.906-3.343.5-2.933 2.489.181.877.597 1.674 1.203 1.984M9.687 16.72v-.049c.051-.66 1.424-2.134 2.898-2.388l.051-.408c.283-1.438 3.48-3.497 7.574-5.37-.046-.865-.831-1.334-1.472-1.039-11 4.946-12.436 16.702-14.296 29.551-.039.008-.078.018-.116.027-.039.01-.076.02-.115.032-.037.013-.075.025-.112.041a1.038 1.038 0 0 0-.11.047c-.036.015-.071.033-.108.052l-.105.059v.002a1.25 1.25 0 0 0-.103.064c-.034.024-.068.047-.101.073-.033.023-.066.05-.098.076a1.878 1.878 0 0 0-.097.084c-.031.029-.062.056-.093.088-.031.031-.061.06-.091.093l-.088.098a1.745 1.745 0 0 0-.085.104l-.084.105v.002l-.079.109v.002l-.078.116c-.025.039-.05.078-.074.119l-.072.123-.068.125-.066.131-.062.13-.059.137-.055.137-.053.141-.049.142-.047.143-.042.146-.039.147-.036.148-.032.151-.028.15-.025.15-.021.153-.017.15-.014.152-.009.151-.006.152-.001.15.002.149.007.148.01.147.015.146.019.145.024.14.027.141c.011.047.021.092.033.137.011.045.024.09.037.135.012.045.026.087.041.132.014.043.029.086.046.129a2.324 2.324 0 0 0 .105.248 2.684 2.684 0 0 0 .194.346c.024.035.048.072.074.106a2.794 2.794 0 0 0 .163.201l.089.092c.031.031.062.06.095.087.032.03.066.057.099.082.035.028.07.053.105.079l.11.07c.038.023.076.045.115.064-1.79 13.004-2.162 24.582-2.423 40.36.261 15.779.633 27.355 2.423 40.361-.039.02-.077.041-.115.064l-.11.071a3.552 3.552 0 0 0-.204.16 1.948 1.948 0 0 0-.268.277c-.027.033-.053.069-.079.102-.026.035-.05.072-.074.107-.024.037-.048.074-.07.112a2.123 2.123 0 0 0-.064.115 2.204 2.204 0 0 0-.06.119 3.337 3.337 0 0 0-.192.51c-.013.045-.026.09-.037.135-.012.044-.022.089-.033.136l-.027.141-.024.14-.019.145-.015.146-.01.147-.007.148-.002.149.001.15.006.153.009.15.014.152.017.151.021.152.025.15.028.151.032.15.036.149.039.146.042.147.047.142.049.143.053.14.055.137.059.135.062.133.066.131.068.125.072.123c.024.041.049.08.074.119l.078.115.079.111v.002l.084.106a4.327 4.327 0 0 0 .264.295c.031.031.062.058.093.088l.097.084c.032.025.065.052.098.076a2.322 2.322 0 0 0 .204.136v.002l.105.059a1.73 1.73 0 0 0 .218.1c.037.015.075.027.112.041l.115.031c.038.01.077.019.116.025 1.86 12.852 3.296 24.608 14.296 29.553.641.295 1.426-.174 1.472-1.039-4.094-1.873-7.291-3.932-7.574-5.369l-.051-.408c-1.474-.254-2.847-1.729-2.898-2.389v-.397c-3.454-6.287-3.137-14.019 0-19.839v-.1c0-.744 1.128-2.314 2.35-2.902-5.256-6.848-7.686-24.832-8.195-44.795.509-19.961 2.939-37.946 8.195-44.793-1.222-.588-2.35-2.158-2.35-2.903v-.101c-3.137-5.819-3.454-13.551 0-19.84v-.346m336.042 85.623c-.042.604-.523 1.28-1.474 1.534a3 3 0 0 1-.494.087 254.531 254.531 0 0 1-.809 10.889c-.771 8.131-1.912 16.342-3.316 24.471a366.912 366.912 0 0 1-.756 4.234l.088-.029.152.051h.203l.153.05h.152l.152.051.155.102.101.051.152.101.153.102.101.101.153.102.254.254.101.154.104.102.099.152.102.203.103.152.102.153.051.203.101.152.051.203.051.205.101.204.051.203.024.089c3.259-.296 5.453-4.705 1.705-6.904.33.037.621.072.865.102 2.186-12.405 3.305-22.93 4.219-34.065.509-7.269.763-14.031.713-21.199l-3.663-.002v17.742m2.95-38.945c-.914-11.133-2.033-21.66-4.219-34.064a62.63 62.63 0 0 1-.865.101c3.748-2.199 1.554-6.605-1.705-6.904l-.024.09-.051.203-.101.203-.051.205-.051.203-.101.152-.051.204-.102.152-.103.152-.102.203-.099.153-.104.101-.101.155-.153.152-.101.102-.153.101-.101.102-.153.101-.152.102-.101.051-.155.101-.152.051h-.152l-.153.051h-.203l-.152.05-.088-.029c.26 1.408.512 2.82.756 4.235 1.404 8.128 2.545 16.339 3.316 24.47.348 3.651.621 7.285.809 10.889.177.017.342.047.494.088.951.254 1.432.929 1.474 1.533v17.744l3.663-.004c.05-7.166-.204-13.929-.713-21.199m-6.965 86.689l-.051.204-.051.203-.101.152-.051.205-.102.152-.103.153-.102.203-.099.152-.104.102-.101.152-.254.254-.153.104-.101.101-.153.1-.152.103-.101.051-.155.102-.152.05h-.152l-.153.051h-.66l-.152-.051h-.153l-.154-.05-.15-.102-.155-.051-.113-.076c-.455.336-.881.57-1.279.715-.076.16-.141.293-.168.328-1.658 2.098-3.432 3.813-5.711 4.83-.606.311-1.022 1.108-1.203 1.985-.41 1.99.392 4.394 2.933 2.488 3.086-1.959 9.289-5.949 9.508-13.016l-.051.203-.101.203"/>
    <path fill="#FFF" d="M7.214 26.849c.013 3.51.879 6.975 2.473 9.957v-19.74c-1.675 3.049-2.463 6.437-2.473 9.783zM9.687 132.5c-3.137 5.82-3.454 13.552 0 19.839V132.5zM39.788 20.181l.051-.103.051-.049.102-.102.05-.052.102-.102.051-.051.101-.051.102-.05.052-.051.101-.051.101-.051.102-.05.101-.051.103-.051h.101l.051-.051h.203l.026-.013.076-.038h.116a.777.777 0 0 1-.192-.316 1.182 1.182 0 0 1-.026-.09l-.004-.017.03.035c.144.164.291.299.437.388h.097l.101.051h.204l.051.051.016.008c.011-.002.023-.004.034-.008.915-.713 2.187-12.254 1.272-12.508-.914.022-1.65.602-2.212 1.508-.783 1.264-1.229 3.156-1.347 5.051-.56.101-1.119.152-1.679.254-1.169.05-1.83 1.931.052 2.035.457.051.915.101 1.372.203 0 0 .198.523.505 1.166-.309 1.141-.63 2.543-.729 3.605l.021-.043.05-.101v-.051l.052-.101.101-.102.051-.051"/>
    <path fill="#FFF" d="M42.941 20.486v-.051l-.051-.101v-.051l-.102-.102v-.103l-.05-.049-.052-.053-.051-.049-.051-.052-.05-.051h-.051l-.102-.051-.05-.051h-.052l-.05-.051h-.102l-.051-.05h-.153l-.05-.051h-.407l-.102.051h-.152l-.051.05h-.102l-.101.051h-.051l-.102.051-.051.051-.102.051-.05.052-.102.049-.05.053-.103.049-.051.05-.05.053-.102.051-.051.102-.051.05-.05.051-.052.102v.05l-.05.102-.102.102v.101l-.051.051v.152l-.05.102v.51l.05.048v.053l.051.1v.053l.051.05.051.051v.102l.05.05.052.051.05.051.051.051.051.051h.051l.051.05.101.051h.051l.052.051h.101l.051.051h.152l.051.05h.407l.101-.05h.153l.051-.051h.101l.051-.051h.102l.102-.051.05-.05.102-.051.051-.051.102-.051.051-.051.102-.05.05-.051.051-.051.051-.051.051-.103.101-.049v-.051l.051-.101.052-.051.05-.104.051-.05v-.051l.051-.102v-.051l.051-.101v-.051l.05-.102v-.406l-.05-.101v-.051M39.737 148.211v.101l.051.053v.099l.102.102.05.103v.049l.052.102.05.051.051.05.051.102.102.053.05.051.051.05.103.049.05.053.102.051.05.052.102.049.051.051.102.051h.051l.101.051h.102l.051.05h.152l.102.051h.407l.05-.051h.153l.051-.05h.102l.05-.051h.052l.05-.051.102-.051h.051l.05-.049.051-.052.051-.051.052-.053.05-.049v-.101l.051-.053.051-.049v-.053l.051-.101v-.102l.05-.101v-.406l-.05-.102v-.051l-.051-.099v-.053l-.051-.102v-.051l-.051-.05-.05-.102-.052-.051-.051-.103v-.051l-.101-.049-.051-.103-.051-.049-.051-.053-.05-.051-.102-.05-.051-.051-.102-.051-.051-.049-.102-.053-.05-.05-.102-.051h-.102l-.051-.051h-.101l-.051-.051h-.153l-.101-.05h-.407l-.051.05h-.152l-.051.051h-.101l-.052.051h-.051l-.101.051-.051.05h-.051l-.051.053-.051.049-.05.051-.052.051-.05.05v.104l-.051.049-.051.05v.053l-.051.1v.053l-.05.05v.508l.05.102v.051"/>
    <path fill="#FFF" d="M42.279 149.939l-.034-.008-.016.008-.051.051h-.204l-.101.053h-.097a1.888 1.888 0 0 0-.437.388l-.03.033.004-.015c.008-.031.016-.063.026-.09a.764.764 0 0 1 .192-.316h-.116l-.076-.04-.026-.013h-.203l-.051-.051h-.101l-.103-.051-.101-.051-.102-.048-.101-.051-.101-.053-.052-.051-.102-.05-.101-.051-.051-.051-.102-.1-.05-.052-.102-.104-.051-.049-.051-.101-.051-.053-.101-.102-.052-.101v-.051l-.071-.142c.099 1.06.42 2.462.729 3.605a16.462 16.462 0 0 0-.505 1.166c-.457.1-.915.15-1.372.201-1.882.106-1.221 1.985-.052 2.035.56.102 1.119.153 1.679.256.118 1.893.564 3.787 1.347 5.049.562.906 1.298 1.488 2.212 1.508.915-.254-.357-11.795-1.272-12.508M94.245 6.453h23.542c1.677.05 1.118-1.985.152-2.442l-2.288-.914h-.051c-5.529-1.543-10.048-2.113-15.61-.635a32.24 32.24 0 0 0-2.085.635l-.075-.002c-1.212.34-2.424.682-3.636 1.069-.814.203-.661 2.134.051 2.289m87.862-.866a1.58 1.58 0 0 1-.13-.05c-1.105.013-2.005.769-2.005 1.627 0 .865.915 1.627 2.033 1.627.12 0 .238-.008.351-.024.997-.135 1.734-.828 1.734-1.603 0-.674-.556-1.286-1.355-1.524-.12.012-.246.01-.379-.006a1.78 1.78 0 0 1-.249-.047"/>
    <path fill="#FFF" d="M197.309 4.66l.03-1.125.073-2.625c-4.881-.051-9.763-.051-14.644-.051a2.775 2.775 0 0 0-.412.062c-1.223.282-1.761 1.373-1.715 2.444.039.914.505 1.812 1.336 2.172h.028a2.514 2.514 0 0 1 .73.103c1.128-.103 1.715-1.332 1.475-2.244a1.509 1.509 0 0 0-.069-.199c3.152.101 5.644.051 8.797.154.267.008.489.059.673.141.444.201.668.599.777 1.095-1.756.332-3.027 1.321-3.027 2.475 0 1.424 1.932 2.594 4.322 2.594s4.322-1.17 4.322-2.594c0-1.082-1.114-2.016-2.696-2.402m-63.15 15.677c-.201-.699-.178-2.166.153-2.496 23.581-.244 46.531-.16 69.456.305v-2.389c-.051-.814-.611-1.576-1.627-1.525-29.085 0-58.118.051-87.202.051-1.011.051-2.123.252-1.685 1.303 6.453 1.521 13.692 3.183 20.741 5 .074-.034.149-.067.224-.096-.029-.071-.054-.131-.06-.153m154.421-.156c3.558-1.373 2.236-2.34-.764-2.34-24.253-1.068-48.71-1.474-73.066-2.238-1.231-.035-1.879.734-2.16 1.582-.089.268-.141.766-.164 1.156a2001.35 2001.35 0 0 1 66.798 2.754c.047.571.096 1.186.184 1.803l1.545.078.054.004c.412-.164.807-.322.976-.381 2.241-.783 4.719-1.676 6.597-2.418M94.245 162.855h23.542c1.677-.051 1.118 1.984.152 2.441l-2.288.915h-.051c-5.529 1.541-10.048 2.113-15.61.632a31.557 31.557 0 0 1-2.085-.632l-.075.001a103.951 103.951 0 0 1-3.636-1.068c-.814-.203-.661-2.135.051-2.289m88.111.818a1.67 1.67 0 0 1 .379-.007c.799-.237 1.355-.848 1.355-1.522 0-.777-.737-1.471-1.734-1.603a2.512 2.512 0 0 0-.351-.024c-1.118 0-2.033.762-2.033 1.627 0 .858.9 1.613 2.005 1.625.043-.017.086-.035.13-.049.085-.021.168-.037.249-.047"/>
    <path fill="#FFF" d="M200.005 162.246c0-1.424-1.932-2.594-4.322-2.594s-4.322 1.17-4.322 2.594c0 1.154 1.271 2.142 3.027 2.474-.109.494-.333.893-.777 1.094a1.768 1.768 0 0 1-.673.143c-3.153.103-5.645.052-8.797.154.027-.067.051-.133.069-.201.24-.912-.347-2.141-1.475-2.244-.12.037-.247.064-.379.082a3.073 3.073 0 0 1-.351.023c-.009 0-.018 0-.028-.002-.831.361-1.297 1.258-1.336 2.174-.046 1.068.492 2.162 1.715 2.443.13.03.268.051.412.063 4.881 0 9.763 0 14.644-.051l-.073-2.627-.03-1.123c1.582-.387 2.696-1.322 2.696-2.402m-65.846-13.276c-.201.699-.178 2.166.153 2.496 23.581.243 46.531.161 69.456-.306v2.39c-.051.815-.611 1.577-1.627 1.526-29.085 0-58.118-.051-87.202-.051-1.011-.051-2.123-.252-1.685-1.305 6.453-1.519 13.692-3.181 20.741-5 .074.035.149.067.224.098a2.03 2.03 0 0 0-.06.152m154.421.157c3.558 1.373 2.236 2.339-.764 2.339-24.253 1.069-48.71 1.475-73.066 2.239-1.231.035-1.879-.737-2.16-1.584-.089-.266-.141-.764-.164-1.155a2004.04 2004.04 0 0 0 66.798-2.754c.047-.572.096-1.185.184-1.802.513-.026 1.029-.053 1.545-.078l.054-.006c.412.166.807.322.976.381 2.241.785 4.719 1.677 6.597 2.42m51.862-64.522c-.017-3.578-1.986-10.859-2.898-5.648-.152 1.068-.051 2.748.152 4.171-2.164-2.566-2.185-.949-2.234 1.5.049 2.499.07 4.067 2.234 1.499-.203 1.474-.304 3.152-.152 4.171.912 5.213 2.881-2.068 2.898-5.646v-.047"/>
    <path stroke="#4A4A4A" stroke-width=".5" d="M121.041 84.655c-.153-23.289 4.83-48.915 8.999-56.9.916-2.084 3.509-6.302 7.221-6.253 47.185-.204 93.049.357 142.421 2.898 7.932.662 10.118 3.203 11.949 8.34 1.473 4.881 8.389 20.184 8.694 52.014l-179.284-.099zm-1.424 0c-.153-23.746 4.983-49.933 9.254-58.118.915-2.137 3.559-6.409 7.373-6.409 48.151-.203 94.32.307 144.708 2.899 9.357.713 11.187 5.949 12.152 8.695 1.526 4.983 8.34 20.796 8.899 52.982l-182.386-.049zm-27.864.099c-.305-27.609 4.729-45.913 9.407-61.42.813-2.34 2.847-6.254 7.118-5.29a6495.179 6495.179 0 0 0 15.508 4.272c2.949.863 4.78 5.084 3.712 7.322L91.753 84.754zm1.83 0c-.305-25.83 4.374-42.913 8.797-57.456.712-2.185 2.39-6.457 6.356-5.591 4.83 1.32 7.474 1.931 12.305 3.254 4.373 1.32 4.728 4.066 3.813 7.117-4.169 14.441-6.864 31.78-7.424 52.626l-23.847.05zm210.657-.05c.203-16.627-3.203-32.795-5.846-42.406-.815-3.558.66-5.847 2.794-6.355 3.255-.457 6.561-.713 9.815-1.119 3.152-.406 5.033.916 5.593 3.203 4.17 15.763 7.017 30.255 6.712 46.677H304.24zm-8.593-45.253c-.864-3.762 2.389-6.914 5.084-7.373 3.458-.457 7.221-.66 10.781-1.016 3.355-.408 5.339.965 5.897 3.406 4.424 16.677 7.933 32.847 7.627 50.236l-29.389-45.253zm36.457 45.253c.102-18.711-2.949-30.252-6.355-43.525-1.425-5.439-.764-9.152 4.423-9.914 4.779-.916 11.847-1.576 14.288-1.881 2.186 12.405 3.305 22.931 4.22 34.066.508 7.271.762 14.035.712 21.205l-17.288.049zm-6.611-44.439c-3.457-15.203-8.592-21.254-19.778-23.492l19.778 23.492zm1.273 44.489c-.103-27.05-5.899-65.844-24-66.557l24 66.557zm-41.187-60.862c11.695-2.439 19.678-6.66 29.034-11.797l-29.034 11.797zm-1.576-.406c11.746-3.051 21.355-8.34 30.305-14.033l-30.305 14.033zm-152.336-1.272c-10.271-2.289-21.457-5.287-28.982-7.779-6.712-4.83-14.898-8.594-22.982-12.051l51.964 19.83zm2.391-1.576c-10.628-2.746-21.559-5.086-29.746-7.17-6.711-4.83-12.508-7.474-20.593-10.931l50.339 18.101zM98.82 11.892c-8.898.152-11.44 8.391-12.711 12.66-4.983 14.137-9.101 34.474-8.746 60.152L98.82 11.892zM84.787 28.468c-.915-.406-45.66 8.95-68.49 13.424-4.017.865-4.373 3.61-4.779 6.864-1.17 10.27-2.899 25.168-2.594 35.998l75.863-56.286zM12.636 44.382V13.824c.61-3.102 14.796-9.102 22.271-9.863 10.271-.917 31.169-1.881 47.592-1.424 5.135.203 10.271.406 15.406.611 6.56-2.238 11.492-1.73 17.695 0 65.185 0 191.437.762 198.606 6.355 5.44-.712 9.56-.662 15.254-.459L12.636 44.382zM338.968 16.57v.357h-.406l-.102.051-.152.049-.103.053-.101.048-.153.104-.101.051-.102.101-.152.102-.103.101-.101.153-.102.101-.102.153-.101.101-.051.153-.101.152-.102.152-.052.205-.1.153-.052.152-.051.203-.05.203-.051.203-.051.153-.051.203v.256l-.051.203v.203l-.051.203v.254h-.355v-.254l.05-.254v-.203l.051-.203v-.254l.051-.205.051-.203.05-.203.052-.203.05-.203.102-.204.051-.152.102-.205.101-.152.052-.153.1-.203.103-.152.152-.102.102-.152.101-.152.153-.102.101-.104.153-.101.102-.1.152-.103.154-.051.151-.102.153-.05h.153l.152-.051h.305zm-3.05 4.576h.355v.203l.051.203v.205l.051.202v.255l.051.204.051.152.051.203.05.203.051.203.052.155.1.152.052.203.102.152.101.153.051.152.101.102.102.152.102.102.101.152.103.103.152.102.102.102.101.05.153.102.101.051.103.05.152.051.102.051h.406v.406l-.152-.051h-.153l-.152-.05h-.153l-.153-.051-.151-.102-.154-.05-.152-.102-.102-.102-.153-.101-.101-.102-.153-.101-.101-.153-.102-.154-.152-.101-.103-.153-.1-.203-.052-.152-.101-.153-.102-.203-.051-.152-.102-.203-.05-.205-.052-.203-.05-.204-.102-.406v-.254l-.051-.205v-.203l-.05-.254v-.203zm3.05 4.576v-.406h.407l.153-.051.101-.051.152-.05.103-.051.101-.102.153-.05.101-.102.102-.102.101-.103.102-.152.102-.102.102-.152.102-.102.101-.152.103-.153.05-.152.101-.203.051-.152.102-.155.153-.609.05-.152v-.204l.051-.255.051-.202v-.611h.356v.66l-.05.205-.051.254v.203l-.052.203-.051.204-.101.203-.051.205-.051.203-.101.152-.051.203-.102.153-.102.152-.102.203-.1.153-.103.101-.101.154-.153.153-.101.101-.154.102-.101.101-.153.102-.152.102-.101.05-.154.102-.152.051h-.152l-.154.05h-.202l-.153.051zm3.051-4.576h-.356v-.66l-.051-.203-.051-.256v-.203l-.05-.153-.153-.609-.102-.152-.051-.153-.101-.205-.05-.152-.103-.152-.101-.153-.102-.101-.102-.153-.102-.101-.102-.153-.101-.101-.203-.203-.153-.051-.101-.104-.103-.048-.152-.053-.101-.049-.153-.051h-.407v-.357h.355l.154.051h.152l.152.05.154.102.101.051.152.103.153.1.101.101.154.104.101.102.153.152.101.152.103.102.1.152.102.203.102.153.102.152.051.205.101.152.051.204.051.203.101.203.051.203.052.203v.205l.051.254.05.203v.711z"/>
    <path stroke="#4A4A4A" stroke-width=".5" d="M341.714 22.57c3.356.152 5.695 4.678 1.882 6.916l-1.882-6.916zm-2.441 2.898c-8.847 5.034-8.389-13.982-1.322-8.441l1.322 8.441zm-2.695-9.304c-1.728-2.237-3.559-4.069-5.949-5.137-1.983-1.016-1.932-7.219 1.729-4.473 3.204 2.033 9.763 6.254 9.508 13.83l-5.288-4.22zm-18.609-.561l.152-.303.255.1.202.102.255.101.203.104.255.05.203.102.203.051.203.101.255.051.203.051h.204l.204.051.152.05h1.22l.153-.05.152-.051.102-.051h.101l.153-.101.102-.051.05-.051.103-.051.05-.101.102-.053.051-.102.051-.101.305.152-.051.104-.102.152-.051.102-.101.101-.102.102-.152.05-.103.102-.152.051-.102.051-.152.05-.203.051-.154.051h-.507l-.204.051-.204-.051h-.355l-.254-.051-.203-.051h-.205l-.202-.05-.255-.102-.203-.051-.203-.051-.255-.101-.203-.102-.254-.05-.255-.102-.203-.152-.254-.104zm5.644 0l-.305-.152v-.102l.05-.101v-.457l-.05-.102v-.152l-.051-.153-.051-.101-.051-.155-.101-.15-.103-.154-.05-.153-.102-.101-.153-.152-.101-.153-.102-.152-.152-.152-.305-.305-.305-.307-.204-.101-.204-.153-.152-.152-.203-.102-.204-.152-.202-.152-.204-.102-.254-.152-.203-.102.152-.306.253.103.205.15.253.104.204.152.203.153.203.101.204.153.153.152.203.152.152.153.204.152.305.307.152.152.102.152.152.153.103.152.152.203.051.152.101.153.102.154.051.15.102.155.05.152v.152l.051.153v.56l-.051.151-.05.152zm-3.61-4.728l-.152.306-.255-.101-.203-.102-.205-.103-.253-.102-.204-.102-.254-.05-.203-.051-.204-.102-.203-.05-.204-.051-.202-.051h-.204l-.203-.051h-1.221l-.152.051-.102.051h-.152l-.103.051-.1.05-.103.102-.101.051-.102.05-.051.102-.051.051-.05.103-.051.1-.357-.152.051-.102.103-.152.101-.102.05-.101.153-.102.102-.051.102-.101.152-.051.152-.051.154-.051.152-.05.152-.051h.356l.153-.051h.203l.203.051h.407l.204.051.203.05h.203l.255.051.203.102.204.05.254.051.203.102.254.101.204.051.254.102.254.152.204.102zm-5.645 0l.357.152-.052.101-.05.104v.457l.05.102.052.152v.152l.051.102.101.152.051.153.102.154.101.152.103.102.1.152.103.152.152.153.102.152.305.305.203.154.153.102.152.152.203.152.204.153.153.101.203.153.204.152.253.101.204.102.203.154-.152.303-.203-.101-.255-.153-.203-.101-.204-.153-.253-.152-.205-.102-.152-.152-.203-.152-.204-.153-.152-.152-.153-.152-.203-.153-.152-.154-.103-.152-.152-.153-.152-.152-.102-.152-.102-.203-.101-.153-.102-.152-.101-.154-.052-.153-.051-.152-.051-.153-.05-.152-.051-.152v-.559l.051-.154.05-.152z"/>
    <path stroke="#4A4A4A" stroke-width=".5" d="M319.393 12.349c-1.373-.609-2.238-1.627-1.932-2.236.253-.66 1.626-.61 3 0 1.372.66 2.236 1.678 1.932 2.287-.255.611-1.627.611-3-.051zm-.052.153l.153-.305.102.051.153.05.102.051.152.051.101.053.102.049h.152l.103.052h.101l.152.051h.101l.103.051h.813l.102-.051h.051l.051-.051h.051l.05-.052h.051l.051-.049h.05V12.4l.052-.051v-.051l.356.155-.051.101-.052.051-.05.051-.05.101-.102.051h-.051l-.102.051-.051.051-.101.051h-.153l-.102.05h-.864l-.101-.05h-.153l-.101-.051h-.154l-.102-.051-.152-.051-.101-.051h-.152l-.102-.05-.153-.051-.153-.051-.102-.103zm3.255-.049l-.356-.155.051-.05v-.204l-.051-.05v-.153l-.052-.05-.05-.051v-.051l-.051-.102-.051-.05-.05-.102-.051-.051-.102-.05-.051-.102-.101-.051-.051-.101-.102-.053-.051-.049-.102-.103-.102-.051-.101-.102-.102-.051-.101-.05-.102-.102-.153-.051-.101-.05-.101-.051-.154-.051.154-.355.152.05.102.102.152.051.102.05.101.102.152.051.102.101.102.051.102.051.102.101.101.102.102.051.051.103.101.051.051.102.101.048.052.104.102.102.051.05.05.102.05.101.052.051v.102l.051.051v.101l.05.102v.304l-.05.102v.053zm-2.084-2.492l-.154.355-.102-.102-.152-.05-.101-.051h-.103l-.151-.051-.103-.051-.152-.05h-.101l-.102-.051h-.103l-.152-.051h-.203l-.102-.053h-.457l-.102.053h-.102l-.101.051h-.051l-.051.051h-.051l-.05.05h-.052v.051l-.051.051h-.05v.051l-.305-.153v-.05l.05-.102.051-.053.102-.049.051-.05.051-.053.101-.049h.052l.101-.051.102-.051h.152l.102-.05h.559l.102.05h.254l.102.051h.101l.153.051h.102l.153.049.102.053.152.05.152.049.101.053.153.051.103.051zm-3.204.05l.305.153v.101l-.051.051v.051l.051.101v.102l.05.051v.05l.051.102.052.051v.051l.05.103.051.049.102.053.051.101.05.051.102.102.051.05.101.102.102.051.051.05.101.102.103.051.101.051.102.101.152.051.102.051.102.101.101.051.153.051-.153.305-.153-.049-.101-.053-.152-.051-.102-.101-.102-.051-.153-.102-.101-.051-.101-.05-.102-.102-.102-.101-.102-.051-.05-.102-.102-.051-.102-.101-.05-.051-.103-.101-.05-.102-.051-.051-.051-.101-.102-.053v-.1l-.051-.103-.05-.051-.051-.102v-.152l-.051-.101v-.153l.051-.101v-.051l.051-.102zm21.558 15.61c3.661 19.83 5.848 40.321 5.034 59.083l-5.034-59.083zm6.864 59.133V66.909c-.05-.713-.711-1.526-2.033-1.627l2.033 19.472zm-1.474-19.32V54.909c0-.713-.457-.559-1.322-.51l1.322 11.035zm0-2.441c1.424.051 2.898.051 4.322.051 0-2.391-1.982-4.678-4.322-4.678v4.627zm-3.814 21.711c0-3.559-1.982-10.932-2.898-5.696-.152 1.069-.051 2.746.153 4.17-2.186-2.592-2.186-.914-2.237 1.576l4.982-.05zM12.585 14.232c-1.474.254-2.847 1.729-2.898 2.389v20.287c.051.916 1.525 2.847 2.949 3.101l-.051-25.777zm-2.847 2.643c-3.509 6.304-3.203 14.084-.051 19.982l.051-19.982zM.891 84.754c.305-18.66.762-31.371 3.508-47.54C6.28 24.248 7.704 12.349 18.738 7.367c.66-.305 1.525.254 1.474 1.119L.891 84.754zm2.948-.05c.509-20.034 2.95-38.083 8.238-44.898L3.839 84.704zm4.882-41.591c-.915.558-4.017 1.523-5.085 1.269-2.949-1.015-1.728-7.015.864-7.474 1.577.408 3.509 1.322 4.373 2.086 1.272.66 1.475 3.711-.152 4.119zm-.102-4.17c-1.322.711-1.728 3.254.051 4.119l-.051-4.119zm72.863 20.694a.91.91 0 0 0 .915-.916c0-.508-.406-.965-.915-.965a.965.965 0 0 0-.966.965c0 .51.407.916.966.916zm21.661-44.999c-2.594.457-8.543 20.592-11.644 42.558-1.271 9.254-1.577 19.017-1.627 27.508l13.271-70.066zM75.737 84.704c0-.305-.357-.61-.966-.61l-60.559-.763c-1.169 0-2.237.509-2.898 1.324l64.423.049zm-64.474 0l-.101-5.95h-.203v5.901l.304.049zM98.007 3.095c-1.271.358-2.542.713-3.813 1.119-.814.204-.661 2.135.051 2.289h23.542c1.677.051 1.118-1.984.152-2.441l-2.288-.914-17.644-.053zm1.983 3.307V2.435v3.967zm34.22 14.135c-.254-.612-.254-2.289.102-2.645 49.219-.508 95.692.406 144.912 3.254.05.611.102 1.272.203 1.932L134.21 20.537zm-20.949-4.883c-.457-1.067.661-1.27 1.678-1.32 29.084 0 58.117-.051 87.202-.051 1.016-.051 1.576.711 1.627 1.525v2.338l-90.507-2.492zm-70.982 3.713c.915-.713 2.187-12.254 1.272-12.508-2.187.051-3.356 3.305-3.559 6.559-.56.101-1.119.152-1.679.253-1.169.051-1.83 1.932.052 2.036.457.05.915.101 1.372.203 0 0 1.424 3.761 2.542 3.457zm.763.558l-.254.203-.051-.048-.051-.053-.051-.049-.051-.053-.05-.05h-.051l-.102-.051-.05-.051h-.052l-.05-.051h-.102l-.051-.051h-.153l-.05-.05h-.407l-.102.05h-.152l-.051.051h-.102l-.101.051h-.051l-.102.051-.051.051-.102.05-.05.053-.102.049-.204-.305.102-.051.051-.05.102-.051.101-.051.102-.051.101-.05.103-.051h.101l.051-.051h.203l.102-.051h.458l.101.051h.204l.051.051.102.051h.101l.051.05.101.051.102.051.051.051.051.05.102.051.051.102.05.051.051.05zm-2.746-.203l.204.305-.051.053-.102.048-.051.051-.05.053-.102.051-.051.101-.051.051-.05.051-.052.101v.051l-.05.102-.051.051-.051.05v.102l-.051.051v.152l-.05.102v.509l.05.049v.053l.051.1v.052l.051.051.051.051v.101l-.254.204-.052-.102-.05-.051-.051-.101-.051-.102-.051-.051v-.205l-.05-.099v-.51l.05-.102v-.101l.051-.102v-.101l.051-.051.051-.102.05-.101v-.051l.052-.102.101-.101.051-.051.051-.104.051-.048.102-.102.05-.053.102-.101.051-.051.101-.051zm-.66 2.696l.254-.204.05.051.052.051.05.051.051.051.051.05h.051l.051.051.101.051h.051l.051.051h.102l.051.05h.152l.051.051h.407l.101-.051h.153l.051-.05h.101l.051-.051h.102l.102-.051.05-.051.102-.05.051-.051.102-.051.203.305-.102.05-.101.051-.051.051-.102.051-.102.051-.101.05-.102.051h-.102l-.101.051h-.153l-.101.051h-.509l-.051-.051H40.5l-.102-.051-.051-.051h-.101l-.102-.05-.051-.051-.101-.051-.052-.051-.101-.051-.051-.05-.051-.051-.05-.102-.051-.05zm2.745.203l-.203-.305.051-.051.102-.051.05-.05.102-.102.051-.103.101-.049v-.051l.051-.102.051-.05.051-.104.051-.051v-.05l.051-.102v-.051l.051-.101v-.051l.05-.102v-.406l-.05-.102v-.101l-.051-.102v-.05l-.051-.051-.051-.051v-.104l.254-.203.051.102.051.053.05.099.052.104v.051l.05.101v.102l.051.101v.457l-.051.051v.203l-.05.104v.099l-.052.051-.05.104-.051.099-.051.053-.051.1-.05.103-.051.051-.051.101-.356.356-.102.051z"/>
    <path stroke="#4A4A4A" stroke-width=".5" d="M39.636 22.113c-.611-.967.762-5.797 1.169-6.865.203-.457.05 1.779.508 3.611.255 1.066 1.678.355 1.881 1.627.052 2.287-2.542 3.203-3.558 1.627zM208.497 3.707v8.033c-2.747.457-3.458 2.187-2.136 6.508l2.136-14.541zm-26.492 5.134c1.17 0 2.085-.761 2.085-1.627 0-.865-.915-1.627-2.085-1.627-1.118 0-2.033.762-2.033 1.627 0 .866.915 1.627 2.033 1.627zm13.678.866c2.39 0 4.322-1.17 4.322-2.594s-1.932-2.594-4.322-2.594-4.322 1.17-4.322 2.594 1.932 2.594 4.322 2.594zm1.576-3.204l.153-5.542C192.531.91 187.649.91 182.768.91c-2.746.203-2.695 4.017-.661 4.728 1.627.406 2.492-1.322 2.034-2.39 3.152.101 5.644.05 8.797.154 1.626.051 1.576 1.625 1.525 3.101 1.016 1.678 2.796 0 2.796 0zm11.238 5.288c32.948 1.017 63.1 2.236 94.015 4.474l-94.015-4.474zm91.37 5.847c-30.863-2.289-52.727-2.695-84.71-3.711-4.729 0-5.339 2.694-5.288 4.321l89.998-.61zm-87.455.711c0-1.117.559-2.746 2.338-2.695 24.356.764 48.813 1.17 73.066 2.238 3 0 4.323.967.763 2.34-2.185.863-5.185 1.932-7.678 2.795l-68.489-4.678zm-4.933-6.305c-36.049-.71-81.252-1.423-104.845.153-.051-1.881-.051-3.762-.101-5.694l104.946 5.541zm50.694-7.271c17.898.459 35.797.865 53.746 1.271 2.897.153 4.727 1.424 4.727 3.102l-58.473-4.373zM75.737 84.754c0 .307-.357.561-.966.612l-60.559.761c-1.169 0-2.237-.507-2.898-1.322l64.423-.051zm-64.474 0l-.101 5.95h-.203v-5.899l.304-.051zm109.778-.05c-.153 23.289 4.83 48.914 8.999 56.896.916 2.086 3.509 6.307 7.221 6.256 47.185.254 93.049-.355 142.421-2.898 7.932-.663 10.118-3.153 11.949-8.338 1.473-4.883 8.389-20.188 8.694-52.018l-179.284.102zm-1.424 0c-.153 23.797 4.983 49.931 9.254 58.117.915 2.137 3.559 6.459 7.373 6.408 48.151.203 94.32-.307 144.708-2.898 9.357-.713 11.187-5.95 12.152-8.696 1.526-4.982 8.34-20.797 8.899-52.98l-182.386.049zm-27.864-.102c-.305 27.609 4.729 45.914 9.407 61.475.813 2.287 2.847 6.203 7.068 5.287l15.558-4.272c2.949-.914 4.78-5.134 3.712-7.32l-35.745-55.17zm1.83 0c-.305 25.83 4.374 42.914 8.797 57.457.712 2.188 2.39 6.457 6.356 5.594 4.83-1.322 7.474-1.932 12.305-3.256 4.373-1.32 4.728-4.016 3.813-7.117-4.169-14.442-6.864-31.779-7.424-52.625l-23.847-.053zm210.657.053c.203 16.625-3.203 32.795-5.846 42.404-.815 3.561.66 5.848 2.794 6.406 3.255.409 6.561.662 9.815 1.12 3.152.355 5.033-.967 5.593-3.254 4.17-15.762 7.017-30.254 6.712-46.676H304.24zm-8.593 45.252c-.864 3.762 2.389 6.914 5.084 7.373 3.458.457 7.221.66 10.781 1.068 3.355.356 5.339-1.017 5.897-3.459 4.424-16.678 7.933-32.845 7.627-50.234l-29.389 45.252zm36.457-45.252c.102 18.762-2.949 30.303-6.355 43.523-1.425 5.44-.764 9.153 4.423 9.916 4.779.914 11.797 1.575 14.288 1.879 2.186-12.404 3.254-22.929 4.22-34.013.508-7.325.762-14.086.712-21.256l-17.288-.049zm-6.611 44.437c-3.457 15.254-8.592 21.254-19.778 23.543l19.778-23.543zm1.273-44.49c-.103 27.051-5.951 65.848-24 66.559l24-66.559zm-41.187 60.863c11.695 2.442 19.678 6.661 29.034 11.848l-29.034-11.848zm-1.576.409c11.746 3.048 21.355 8.337 30.305 14.033l-30.305-14.033zm-152.336 1.269c-10.271 2.289-21.457 5.289-28.982 7.781-6.712 4.881-14.898 8.643-22.982 12.1l51.964-19.881zm2.391 1.629c-10.628 2.693-21.559 5.033-29.746 7.117-6.711 4.881-12.508 7.576-20.593 11.033l50.339-18.15zm-35.238 8.744c-8.898-.203-11.44-8.441-12.711-12.711-4.983-14.136-9.101-34.424-8.746-60.15l21.457 72.861zm-14.033-16.627c-.915.406-45.66-8.947-68.49-13.424-4.068-.863-4.373-3.609-4.779-6.863-1.17-10.221-2.899-25.168-2.594-35.947l75.863 56.234zm-72.151-15.863v30.508c.61 3.152 14.796 9.152 22.271 9.914 10.271.916 31.169 1.883 47.592 1.474l15.406-.609c6.56 2.186 11.492 1.729 17.695 0 65.185-.051 191.437-.762 198.606-6.457 5.44.711 9.56.66 15.203.457L12.636 125.026zm326.332 27.812h-.152l-.153-.05h-.152l-.153-.051-.153-.051-.151-.051-.154-.101-.152-.102-.102-.051-.153-.152-.101-.103-.153-.1-.101-.152-.102-.104-.152-.152-.103-.153-.1-.152-.052-.203-.101-.152-.102-.206-.051-.15-.102-.203-.05-.205-.052-.203-.05-.203-.051-.203-.051-.204-.051-.203v-.459l-.05-.254v-.203h.355v.203l.051.204v.458l.051.204.102.406.051.152.05.203.051.203.052.155.1.203.052.152.102.153.101.152.051.152.101.153.102.101.102.153.101.101.103.104.152.099.102.104.101.049.153.103.101.051.103.051.152.05.102.051h.152l.152.051h.102v.355zm-3.05-4.576v-.254l.05-.203v-.459l.051-.203.051-.254.051-.203.05-.203.052-.203.05-.203.102-.153.051-.203.102-.205.101-.152.052-.153.1-.152.103-.152.152-.153.102-.152.101-.101.153-.155.101-.099.153-.104.102-.101.152-.102.154-.051.151-.051.153-.05.153-.051.152-.051h.305v.356h-.254l-.152.052h-.102l-.152.049-.103.051-.101.101-.153.051-.101.104-.102.051-.152.101-.103.102-.101.152-.102.102-.102.152-.101.152-.051.102-.101.152-.102.205-.052.153-.1.152-.052.203-.051.152-.05.204-.153.609-.051.205v.406l-.051.203v.254h-.355zm3.05-4.576h.355l.154.051.152.051.152.05.154.051.101.051.152.102.153.101.101.104.154.099.101.155.153.101.101.152.103.153.1.152.102.152.102.153.102.152.051.205.101.203.051.153.051.203.101.203.051.203.052.203v.254l.051.203.05.205v.711h-.356v-.457l-.051-.205v-.201l-.051-.205v-.203l-.05-.203-.051-.203-.051-.204-.101-.152-.052-.203-.051-.152-.101-.153-.05-.205-.103-.152-.101-.102-.204-.304-.102-.102-.102-.152-.101-.102-.102-.101-.101-.051-.153-.104-.101-.051-.103-.101-.152-.051-.101-.049h-.153l-.152-.052h-.255v-.356zm3.051 4.576v.66l-.05.256-.051.203v.204l-.052.203-.051.203-.101.203-.051.205-.051.203-.101.15-.051.206-.102.152-.102.203-.102.152-.1.153-.103.152-.101.104-.153.152-.101.1-.154.103-.101.152-.153.051-.152.102-.101.101-.154.051-.152.051-.152.051h-.154l-.202.05h-.153v-.355h.153l.102-.051h.152l.153-.051.101-.05.152-.051.103-.051.101-.103.153-.049.101-.104.102-.099.101-.104.102-.101.102-.153.102-.101.102-.153.101-.152.103-.152.05-.153.101-.152.051-.203.052-.155.101-.203.051-.203.051-.152.05-.203v-.203l.051-.204v-.205l.051-.253v-.407h.356z"/>
    <path stroke="#4A4A4A" stroke-width=".5" d="M341.714 146.788c3.356-.102 5.695-4.678 1.882-6.914l-1.882 6.914zm-2.441-2.899c-8.847-4.982-8.389 13.983-1.322 8.442l1.322-8.442zm-2.695 9.305c-1.728 2.289-3.559 4.068-5.949 5.137-1.983 1.015-1.932 7.269 1.729 4.472 3.204-1.982 9.763-6.201 9.508-13.83l-5.288 4.221zm-18.609.56l.254-.101.203-.102.255-.103.254-.102.203-.101.255-.051.203-.102.203-.05.255-.051.202-.051.205-.051.203-.051h.254l.152-.05h.966l.152.05h.154l.203.051.101.051.153.051.152.051.103.101.152.102.102.05.101.102.051.154.102.102.051.101-.305.153-.051-.102-.051-.051-.102-.101-.05-.053-.103-.101-.05-.051-.102-.051-.153-.051-.101-.051-.102-.05-.152-.051h-.153l-.152-.051h-.865l-.203.051h-.152l-.204.051-.204.05-.254.051-.204.051-.203.051-.203.051-.254.101-.204.053-.203.101-.255.102-.202.102-.255.101-.152-.305zm5.644 0l.05.153.051.152v.559l-.051.152v.154l-.05.151-.102.154-.051.152-.102.204-.101.152-.102.152-.101.153-.103.152-.152.152-.102.153-.152.152-.152.154-.153.153-.204.152-.152.152-.203.153-.153.152-.204.152-.203.153-.203.101-.254.153-.203.103-.205.152-.253.102-.152-.305.203-.101.254-.153.204-.103.202-.152.204-.102.203-.152.152-.153.204-.101.153-.153.203-.152.153-.152.152-.155.153-.15.152-.152.102-.155.101-.101.153-.153.102-.152.05-.152.103-.153.101-.152.051-.102.051-.154.051-.152v-.102l.05-.152v-.457l-.05-.102v-.101l.305-.153zm-3.61 4.729l-.254.152-.204.102-.254.101-.204.102-.254.051-.203.101-.254.051-.204.102-.254.05-.204.051-.203.051h-.203l-.204.051h-.203l-.204.051h-.559l-.203-.051h-.153l-.304-.102-.154-.051-.152-.05-.152-.051-.102-.051-.102-.101-.153-.102-.05-.102-.101-.101-.103-.102-.051-.152.357-.152.051.101.05.102.051.051.051.101.102.051.101.101.103.051.1.051.103.051.152.051h.102l.152.05h.153l.152.051h.559l.154-.051h.203l.203-.05h.204l.202-.051.204-.051.203-.051.204-.051.203-.101.254-.051.204-.101.253-.102.205-.102.203-.101.255-.102.152.305zm-5.645 0l-.05-.152-.051-.102v-.611l.051-.153.05-.152.051-.152.051-.153.052-.152.101-.152.102-.155.101-.15.102-.152.102-.155.152-.203.152-.152.103-.152.152-.153.203-.154.153-.151.152-.154.204-.152.203-.102.152-.152.205-.152.253-.153.204-.101.203-.153.255-.101.203-.153.152.305-.203.152-.204.102-.253.152-.204.102-.203.152-.153.102-.204.152-.203.154-.152.151-.204.154-.152.102-.153.152-.152.152-.102.153-.152.152-.103.152-.1.153-.103.154-.101.152-.102.102-.051.152-.101.153-.051.152v.102l-.052.152-.05.102v.457l.05.103.052.102-.357.152z"/>
    <path stroke="#4A4A4A" stroke-width=".5" d="M319.393 157.008c-1.373.661-2.238 1.678-1.932 2.287.253.612 1.626.561 3-.05 1.372-.66 2.236-1.678 1.932-2.287-.255-.612-1.627-.559-3 .05zm-.052-.152l.102-.051.153-.051.153-.05.102-.053.152-.049.101-.053.152-.05h.102l.154-.051.101-.049h.254l.102-.053h.762l.102.053h.051l.102.049h.101l.051.051.102.05.051.053.102.049.05.053.05.05.052.051.051.102-.356.152v-.051l-.052-.05-.05-.051-.051-.051h-.051l-.05-.051h-.051l-.051-.051h-.153l-.05-.05h-.661l-.102.05h-.204l-.152.051h-.101l-.103.051-.152.051h-.102l-.101.051-.152.05-.102.051-.153.051-.102.051-.153-.305zm3.255.051v.051l.05.101v.305l-.05.101v.102l-.051.051-.052.101v.102l-.05.051-.05.101-.102.104-.051.049-.052.103-.101.051-.051.101-.101.102-.051.051-.102.101-.101.051-.102.102-.102.05-.102.102-.102.051-.152.101-.101.051-.102.051-.152.101-.102.051-.152.051-.154-.305.154-.05.101-.102.101-.051.153-.051.102-.05.101-.102.102-.051.101-.101.102-.051.102-.051.051-.101.102-.051.051-.102.101-.052.051-.049.102-.104.051-.049.05-.103.102-.102v-.101l.05-.051.052-.051v-.152l.051-.051v-.203h-.051v-.051l.356-.152zm-2.084 2.49l-.103.051-.153.051-.101.052-.152.049-.152.051-.102.053-.153.048h-.102l-.153.053-.101.051h-.254l-.102.051h-.763l-.101-.051h-.051l-.102-.051h-.101l-.052-.053-.101-.048-.051-.053-.051-.051-.102-.049-.051-.052-.05-.051v-.102l.305-.152v.051l.05.05h.051v.051l.052.051h.05l.051.051h.051l.051.051h.152l.051.052h.661l.102-.052h.253l.103-.051h.102l.101-.051.152-.051h.103l.151-.051.103-.05.101-.051.152-.051.102-.051.154.305zm-3.204-.051l-.051-.051v-.101l-.051-.102v-.152l.051-.051v-.203l.051-.051.05-.101.051-.102v-.051l.102-.101.051-.102.051-.052.05-.1.103-.053.05-.101.102-.102.102-.051.05-.101.102-.051.102-.102.102-.05.101-.102.101-.051.153-.101.102-.051.102-.051.152-.101.101-.051.153-.051.153.305-.153.05-.101.102-.204.102-.152.05-.102.102-.101.051-.103.051-.152.152-.102.103-.101.049-.051.104-.102.049-.05.052-.051.102-.102.051-.051.101-.05.051-.052.051v.101l-.051.051v.051l-.05.051v.101l-.051.051v.152l.051.051v.051l-.305.152zm21.558-15.609c3.661-19.83 5.848-40.32 5.034-59.082l-5.034 59.082zm6.864-59.082v17.795c-.05.761-.711 1.525-2.033 1.627l2.033-19.422zm-1.474 19.32v10.526c0 .71-.457.507-1.322.507l1.322-11.033zm0 2.389c1.424 0 2.898-.049 4.322-.049 0 2.439-1.982 4.676-4.322 4.676v-4.627zm-3.814-21.709c0 3.558-1.982 10.931-2.898 5.693-.152-1.017-.051-2.695.153-4.17-2.186 2.594-2.186.967-2.237-1.576l4.982.053zM12.585 155.127c-1.474-.255-2.847-1.679-2.898-2.39V132.45c0-.865 1.525-2.848 2.949-3.102l-.051 25.779zm-2.847-2.644c-3.509-6.305-3.203-14.084-.051-19.932l.051 19.932zM.891 84.655c.305 18.609.762 31.371 3.508 47.488 1.881 12.967 3.254 24.865 14.339 29.848.66.304 1.474-.203 1.474-1.119L.891 84.655zm2.948 0c.509 20.031 2.95 38.082 8.238 44.896L3.839 84.655zm4.882 41.592c-.915-.561-4.017-1.526-5.085-1.272-2.949 1.016-1.78 7.067.864 7.475 1.577-.356 3.509-1.323 4.373-2.086 1.272-.66 1.475-3.711-.152-4.117zm-.102 4.168c-1.322-.711-1.728-3.254.051-4.067l-.051 4.067zm72.863-18.813a.91.91 0 0 0 .915-.916c0-.559-.406-.965-.915-.965-.559 0-.966.406-.966.965 0 .51.407.916.966.916zm21.661 43.117c-2.594-.406-8.543-20.541-11.644-42.558-1.271-9.254-1.577-19.016-1.678-27.506l13.322 70.064zM75.737 84.655c0 .303-.357.609-.966.66-20.187.203-40.373.457-60.61.711-1.118 0-2.186-.508-2.847-1.322l64.423-.049zm-64.474.049l-.101 5.898h-.203v-5.898h.304zm86.744 81.609l-3.813-1.068c-.814-.254-.661-2.237.051-2.389h23.542c1.677-.053 1.118 2.084.152 2.49-.763.305-1.525.612-2.288.916l-17.644.051zm1.983-3.355v4.015-4.015zm34.169-14.084c-.203.558-.203 2.236.153 2.642 49.219.457 95.692-.406 144.912-3.305.05-.611.102-1.271.203-1.88l-145.268 2.543zm-20.898 4.83c-.457 1.117.661 1.322 1.678 1.322 29.084.049 58.117.049 87.202.049 1.016.052 1.576-.711 1.627-1.524v-2.34l-90.507 2.493zm-70.982-3.713c.915.713 2.187 12.254 1.272 12.508-2.187-.051-3.356-3.305-3.559-6.559-.56-.051-1.119-.152-1.679-.203-1.169-.102-1.83-1.932.052-2.084.457-.053.915-.102 1.372-.154 0 0 1.424-3.813 2.542-3.508zm.763-.559l-.051.051-.05.102-.051.05-.102.051-.051.051-.102.051-.051.05-.101.051-.051.051-.101.051h-.102l-.051.051h-.102l-.102.05h-.661l-.101-.05h-.102l-.051-.051h-.101l-.103-.051-.101-.051h-.102l-.101-.051-.102-.05-.153-.153.204-.254.102.051.05.051h.102l.051.051.102.051.051.05h.101l.102.051h.152l.051.051h.559l.051-.051h.153l.102-.051h.05l.052-.05.05-.051h.102l.051-.051.05-.051.051-.051.051-.05.051-.051v-.051l.305.203zm-2.746.203l-.101-.05-.051-.051-.102-.102-.05-.051-.102-.05-.102-.204-.051-.052-.101-.102-.052-.051-.05-.101v-.102l-.051-.101-.051-.051v-.102l-.051-.101v-.102l-.05-.051v-.558l.05-.102v-.152l.051-.104.051-.101.051-.051.05-.101.052-.051.254.203v.051l-.051.05-.051.051v.102l-.051.053v.05l-.05.102v.457l.05.101v.153l.051.051v.101l.051.051.051.102.05.05v.053l.052.102.05.048.051.051.051.102.102.052.05.051.051.051.102.051.051.101-.204.254zm-.66-2.644l.051-.102.05-.051.051-.101.051-.051.101-.051.052-.05.101-.051.051-.051.102-.051h.101l.051-.051h.102l.102-.05h.152l.101-.051h.408l.101.051h.153l.101.05.102.051h.102l.101.051.102.051.051.051.102.05.101.051.102.051-.203.305-.102-.051-.051-.051-.102-.051-.05-.051h-.102l-.102-.05-.051-.051h-.101l-.051-.051h-.254l-.102-.051h-.203l-.102.051h-.203l-.051.051h-.102l-.051.051h-.051l-.101.05-.051.051-.051.051-.051.051h-.051l-.05.051-.052.101-.05.051-.254-.203zm2.745-.254l.051.051.102.101.101.051.051.051.102.101.051.051.051.102.051.101.05.053.051.102.051.099.051.053.05.101.052.102v.051l.05.101v.203l.051.102v.459l-.051.049v.101l-.05.104v.049l-.052.103-.05.102-.051.051-.051.101-.305-.203.051-.051.051-.103.051-.049v-.053l.051-.051v-.15l.05-.053v-.406l-.05-.051v-.152l-.051-.051v-.101l-.051-.051v-.102l-.051-.051-.051-.101-.051-.053-.051-.049-.051-.103-.05-.049-.051-.053-.051-.101-.051-.051-.05-.051-.102-.051-.051-.05.203-.305z"/>
    <path stroke="#4A4A4A" stroke-width=".5" d="M39.636 147.245c-.611.966.762 5.797 1.169 6.865.203.457.05-1.779.508-3.559.255-1.119 1.678-.408 1.881-1.677.052-2.239-2.542-3.153-3.558-1.629zm168.861 18.459v-8.086c-2.747-.407-3.458-2.135-2.136-6.457l2.136 14.543zm-26.492-1.883c1.17 0 2.085-.762 2.085-1.627 0-.914-.915-1.678-2.085-1.678-1.118 0-2.033.764-2.033 1.678 0 .865.915 1.627 2.033 1.627zm13.678 1.068c2.39 0 4.322-1.17 4.322-2.644 0-1.424-1.932-2.594-4.322-2.594s-4.322 1.17-4.322 2.594c0 1.474 1.932 2.644 4.322 2.644zm1.576-2.033l.153 5.592c-4.881.051-9.763.051-14.644.101-2.746-.203-2.695-4.066-.661-4.779 1.627-.406 2.492 1.373 2.034 2.391 3.152-.102 5.644-.051 8.797-.153 1.626-.05 1.576-1.627 1.525-3.103 1.016-1.727 2.796-.049 2.796-.049zm11.238-5.238c32.948-1.016 63.1-2.237 94.015-4.526l-94.015 4.526zm91.37-5.848c-30.863 2.238-52.727 2.695-84.71 3.713-4.729 0-5.339-2.746-5.288-4.373l89.998.66zm-87.455-.762c0 1.118.559 2.746 2.338 2.696 24.356-.713 48.813-1.17 73.066-2.239 3 0 4.323-.914.763-2.338-2.185-.865-5.185-1.933-7.678-2.796l-68.489 4.677zm-4.933 6.356c-36.049.713-81.252 1.373-104.845-.203-.051 1.931-.051 3.763-.101 5.695l104.946-5.492zm50.694 7.271c17.898-.406 35.797-.814 53.746-1.271 2.897-.153 4.727-1.424 4.727-3.153l-58.473 4.424zM75.737 84.655c0-.358-.357-.611-.966-.662-20.187-.254-40.373-.51-60.61-.764-1.118 0-2.186.561-2.847 1.322l64.423.104zm-64.474-.053l-.101-5.947h-.203v5.947h.304z"/>
  </g>
</svg>
