<svg xmlns="http://www.w3.org/2000/svg" viewBox="0 0 170 160">
  <g fill="none" fill-rule="evenodd">
    <path fill="#FFF" d="M143.58 123l-.191 12.95c-19.272 5.746-25.373.863-49.322-1.17-.051.66.05 1.17-1.678 1.22h-3.254c-.254 5.338-5.035 7.323-9.332 3.672-1.342 2.049-3.846 3.547-6.252 3.395l-20.703.058c-2.358-.002-4.699-.966-6.627-3.363l-6.51-.051c-1.41-.14-2.391-.654-2.896-1.576-4.678-.101-9.104-1.068-12.815-2.695V123h119.58"/>
    <path fill="#FFF" d="M143.86 152.863v-21.457L161.25 104c.711.101 1.932.254 2.135 1.221v46.931c-.101 1.881-1.322 4.475-3.457 4.576h-12.914c-1.273-.05-3.104-2.136-3.154-3.865zm-119.336 0v-21.457L7.135 104c-.713.101-1.932.254-2.135 1.221v46.931c.102 1.881 1.321 4.475 3.455 4.576h12.916c1.272-.05 3.102-2.136 3.153-3.865z"/>
    <path fill="#FFF" d="M84.343 131.356l-61.143.152c-4.476-.101-11.95-3.865-13.73-10.678H6.571c-.61-.226-1.176-1.808-.05-2.44v-5.614c0-.82.443-2.215.966-2.725v-6.025c-1.109.205-2.373.359-2.375 1.855l-.015 20.086c-3.05-15.305-9.813-48.66 5.847-61.678 2.95-14.95 4.12-29.947 8.9-44.896-.712-.356-1.423-.916-1.933-2.086.457-.152.914-.254 1.322-.355v-1.424h2.442c.914-3.66 4.218-8.287 12.66-9.56 7.627-1.778 31.83-3.151 50.008-2.948 18.175-.203 42.38 1.17 50.007 2.949 8.44 1.272 11.745 5.899 12.661 9.559h2.441v1.424c.406.1.863.203 1.32.355-.507 1.17-1.22 1.73-1.93 2.086 4.778 14.949 5.948 29.947 8.897 44.896 15.66 13.018 8.9 46.373 5.848 61.678l-.016-20.086c-.002-1.496-1.265-1.65-2.375-1.855v6.025c.524.51.967 1.906.967 2.725v5.615c1.125.63.561 2.213-.05 2.439h-2.899c-1.78 6.813-9.254 10.577-13.729 10.678-20.695-.051-41.185-.101-61.142-.152"/>
    <path fill="#FFF" d="M59.746 100.017h2.29c.05-3.357.151-6.662.202-10.017-.865 0-1.678.051-2.492.051-2.694.253-1.932 9.865 0 9.966m48.745-9.966c-.864 0-1.678-.051-2.491-.051a669.9 669.9 0 0 0 .203 10.017h2.288c1.882-.101 2.644-9.713 0-9.966M10.758 62.029c.12.035.293.087.42.117l2.19-13.086c-8.305-1.002-10.161 10.801-2.61 12.97m4.28 30.226c-.102 3.051 0 5.696.355 8.288.548 4.484 2.572 6.87 4.597 7.017l.5-.01c1.932-.21 3.752-2.49 4.157-6.957.203-2.693.306-5.54.355-8.287.256-7.119-10.117-7.017-9.965-.05M155 49.06l2.192 13.086c.127-.03.298-.082.421-.117 7.549-2.168 5.694-13.97-2.613-12.969m-11.997 43.247c.05 2.746.203 5.594.408 8.287.38 4.467 2.199 6.746 4.137 6.957l.5.01c2.03-.148 4.068-2.533 4.617-7.017.355-2.592.457-5.237.304-8.288.204-6.966-10.17-7.068-9.966.051M132.128 31.8c-.355-3.762-.05-6.914-9.71-7.525-7.349-.637-20.448-1.272-37.577-1.27-.322-.002-.643-.002-.96-.002h-.032c-.328 0-.658 0-.99-.002-17.129.002-30.229.637-37.577 1.274-9.66.611-9.355 3.763-9.713 7.525-.457 4.781-1.015 10.934-1.525 15.713-.508 7.117 3.408 5.949 7.984 5.642 11.51-.99 28.44-1.693 41.821-1.726 13.332.033 30.263.736 41.822 1.726 4.576.307 8.49 1.475 7.982-5.642-.507-4.779-1.068-10.932-1.525-15.713M79.481 65.812c1.883.104 3.558.053 4.728.154 1.17-.101 2.9-.05 4.78-.154 4.982-.203 1.834-2.691-4.774-3.812h-.006c-.002 0-.004 0-.006.002-6.605 1.119-9.753 3.607-4.722 3.81"/>
    <path fill="#FFF" d="M161.239 117.666a1.335 1.335 0 0 1-.416-.26c.119.094.256.174.416.238.123.049.262.088.414.114a1.443 1.443 0 0 1-.414-.092zm-1.256-1.721a12.628 12.628 0 0 1-.148-.433l-.01-.188c.057.16.108.332.158.508.049.17.1.344.16.514a7.585 7.585 0 0 1-.16-.401zm-1.115-1.502a1775.13 1775.13 0 0 0-12.603-.248c-.075-1.459-.15-2.92-.22-4.379 2.22-.002 4.569-.021 6.882-.035 1.43-.008 2.849-.015 4.213-.015 1.982.103 2.44 1.271 2.54 2.593.042.832.085 1.95.126 2.914-.172-.455-.412-.796-.938-.83zm-136.35-.248a1704.972 1704.972 0 0 0-12.603.248c-.525.034-.766.375-.937.83.043-.964.084-2.082.125-2.914.1-1.322.558-2.49 2.543-2.593 1.36 0 2.779.007 4.212.015 2.31.014 4.663.033 6.879.035-.068 1.459-.142 2.92-.218 4.379zM8.95 115.512c-.051.154-.1.299-.15.433a8.67 8.67 0 0 1-.158.401c.058-.17.109-.344.158-.512.05-.178.1-.35.16-.51l-.01.188zm-1.404 2.154c-.131.051-.268.08-.416.092a2.08 2.08 0 0 0 .416-.114 1.61 1.61 0 0 0 .414-.238 1.327 1.327 0 0 1-.414.26zm154.627.135h-.01c-.096-2.084-.146-4.389-.244-6.457-.05-.623-.291-1.221-.68-1.752a4.83 4.83 0 0 0-1.256-1.17 5.966 5.966 0 0 0-2.896-.944 849.196 849.196 0 0 1-4.16-.066c-1.457-.027-2.934-.055-4.391-.08a2.778 2.778 0 0 1-.316-.006c-.74-.014-1.473-.025-2.196-.037l-.607-.008c-1.457-2.035-5.051-1.717-5.26 1.469-.062 1.785-.131 3.57-.201 5.355a2492.33 2492.33 0 0 0-22.773-.168h-.067l-.79-.003h-.063l-.79-.002h-.064l-.787-.004h-.066l-.787-.002h-.067l-.785-.002h-.066l-.786-.002h-.068l-.783-.002h-.068l-.784-.002h-.066l-.783-.002h-.07l-.782-.002h-.068l-.783-.002h-.07l-.782-.002h-.068l-1.635-.004h-.07l-.782-.002h-.923l-.784-.002h-.07l-.783-.002h-.072l-.784-.002h-.072l-.785-.002h-.072l-1.643-.003h-.074l-.787-.002h-.073l-.79-.002h-.071l-.79-.004h-.073l-1.658-.004h-.075l-.793-.004h-.074l-.795-.002h-.076l-.797-.004c-2.326-.008-4.677-.019-7.058-.033h-.078l-.862.006-.802.004h-.038c-18.343.095-34.96.021-53.822.257a870.81 870.81 0 0 1-.201-5.355c-.211-3.186-3.803-3.504-5.26-1.469l-.61.008c-.722.012-1.454.023-2.194.037-.104.008-.21.01-.315.006-1.457.025-2.935.053-4.391.08-1.42.025-2.82.049-4.162.066a5.981 5.981 0 0 0-2.896.946c-.502.328-.93.724-1.254 1.168-.391.531-.633 1.129-.682 1.752-.097 2.068-.148 4.373-.244 6.457h-.01c-.964 0-.66 2.439.05 2.49l.886-.006 1.254-.01.78-.006c2.1-.013 4.193-.025 6.278-.035l6.354-.025-.094 1.963c-.05 1.234.205 2.273.64 3.092 1.79 3.355 6.665 2.959 6.378-3.092-.022-.658-.045-1.317-.071-1.975 17.842-.017 35.42.092 53.497.229l.117.002h.023l1.617.013h.008l.065-.002.066.002h.006a8192.21 8192.21 0 0 1 39.723-.23h.086l.775-.002h.084l1.639-.004h.078l1.646-.004h.072l1.65-.002h.07l.794-.002h.928l.797-.002h6.093l.819.002-.07 1.975c-.286 6.051 4.587 6.447 6.376 3.092.438-.817.69-1.856.64-3.092-.028-.654-.06-1.309-.093-1.963l6.356.025c2.086.01 4.178.022 6.275.035l.78.006 1.257.01.883.006c.713-.051 1.018-2.49.05-2.49zm-77.416-51.8h-2.34c-4.572-.05-1.904 2.72 1.781 2.746 3.684-.026 6.354-2.795 1.828-2.746h-1.269"/>
    <path fill="#FFF" d="M43.256 107.056c-.102 1.68-.153 3.304-.254 4.933-.006.172.002.334.023.485.26 1.781 2.408 2.072 2.566-.02.012-.143.012-.299.004-.465-.05-1.629-.101-3.306-.203-4.984-.051-1.424-1.982-1.27-2.136.051zm80.134-.05c-.05 1.677-.101 3.354-.203 4.983-.006.166-.002.322.012.465.193 2.092 2.307 1.801 2.6.022.023-.153.035-.315.03-.487a152.01 152.01 0 0 1-.253-4.933c-.151-1.32-2.084-1.475-2.186-.05zM4.164 70c-1.069 0-1.272.713-1.119 1.221 0 .35.54.432 1.041.451.078.004.32.004.554.006.26-.555.538-1.097.83-1.627-.382-.002-.958-.008-1.306-.051m160.143 0c1.068 0 1.271.713 1.119 1.221 0 .35-.539.432-1.041.451-.078.002-.321.004-.555.004a27.6 27.6 0 0 0-.83-1.627c.383 0 .959-.006 1.307-.049"/>
    <path stroke="#4A4A4A" stroke-width=".5" d="M40.61 133v.358h-.51l-.152.051-.153.05h-.152l-.152.051-.153.102-.153.05-.152.051-.102.102-.152.051-.102.101-.152.102-.102.101-.102.102-.102.101-.101.153-.102.101-.101.155-.103.101-.05.153-.101.152-.051.101-.052.153-.051.152-.049.152-.052.153v.357l-.051.153v.152H37v-.152l.049-.204v-.203l.051-.154v-.152l.052-.203.101-.153.052-.152.05-.152.103-.153.049-.152.103-.153.1-.152.102-.154.153-.102.102-.152.101-.102.153-.101.153-.102.102-.101.152-.102.152-.101.153-.051.152-.102.153-.051.203-.052.153-.049.204-.051.151-.053h.561zM37 136.561h.355v.152l.051.203v.305l.052.152.049.153.051.152.052.154.051.153.101.101.05.153.103.152.101.102.102.152.101.101.102.102.102.102.102.101.152.102.102.103.152.102.102.051.152.05.153.102.153.051.152.05.152.051h.153l.152.051h.153l.153.051h.204v.355h-.204l-.153-.051h-.204l-.151-.05-.204-.051-.153-.051-.203-.051-.153-.05-.152-.051-.153-.102-.152-.101-.152-.051-.102-.102-.153-.101-.153-.153-.101-.101-.102-.104-.153-.152-.102-.152-.1-.102-.103-.152-.049-.153-.103-.152-.05-.152-.052-.203-.101-.153-.052-.152v-.205l-.051-.153v-.203l-.049-.152v-.203zm3.61 3.609v-.355h.152l.153-.051h.152l.203-.051h.152l.153-.051.152-.05.103-.051.152-.102.153-.05.152-.051.102-.102.152-.103.102-.102.102-.101.153-.102.102-.102.1-.101.103-.152.05-.102.102-.152.102-.153.05-.101.051-.153.052-.154.051-.152.049-.153.052-.152.051-.152v-.508h.355v.355l-.05.203v.153l-.051.205-.051.152-.051.153-.05.203-.102.152-.051.152-.101.153-.103.152-.101.102-.204.304-.101.104-.152.101-.102.153-.153.101-.153.102-.152.051-.153.101-.152.102-.153.051-.152.05-.153.051-.204.051-.152.051-.203.05h-.153l-.203.051h-.152zm3.558-3.609h-.355v-.51l-.051-.152-.052-.153-.049-.152-.051-.152-.052-.153-.051-.101-.05-.152-.102-.153-.102-.101-.05-.155-.103-.101-.1-.153-.102-.101-.153-.102-.102-.101-.102-.102-.152-.101-.102-.051-.152-.102-.153-.051-.152-.05-.103-.102-.152-.051h-.153l-.152-.05-.203-.051h-.457V133h.508l.203.053.152.051.204.049.153.052.152.051.153.102.152.051.153.101.152.102.153.101.153.102.102.101.152.102.101.152.102.102.102.154.101.152.103.153.101.152.051.153.102.152.05.152.051.153.051.203.051.152v.154l.05.203v.356z"/>
    <path stroke="#4A4A4A" stroke-width=".5" d="M39.763 133.594h13.169c2.491 0 2.643 6.863-.154 6.863H39.711l.052-6.863zm6.457 6.914c7.525 9.355 21.355-3.102 9.915-9.102l-9.915 9.102zm.406-6.914c.712-.662 1.169-1.424 3-2.137l-3 2.137zm26.694 10.219c5.848.355 12-8.287 2.95-12.407l-2.95 12.407zm-20.337.05l20.795-.05-20.795.05zm-16.169-4.982c-4.678-.102-9.103-1.068-12.814-2.695l12.814 2.695zm42.964 1.576c4.322 3.61 9.102 1.627 9.356-3.711h3.254c1.729-.051 1.628-.56 1.679-1.22 23.948 2.033 30.049 6.916 49.321 1.169l-63.61 3.762zM83.032 3.02c18.865-.203 43.068 1.17 50.745 2.949 8.44 1.27 11.746 5.898 12.661 9.558h2.389v1.424c.458.102.916.203 1.323.356-.458 1.17-1.221 1.73-1.881 2.086 4.728 14.949 5.898 29.947 8.898 44.896 15.66 13.018 8.898 46.373 5.796 61.678L83.032 3.02zm63.965 17.185c4.729 15 6.458 30.71 9.406 45.66 15.662 13.018 9.153 40.22 6.611 55.168L146.997 20.205zm-64.015.406c22.677-.101 31.169.51 40.778 1.323 11.034.814 11.594 5.187 12.152 9.457.611 6 1.323 13.677 1.882 19.677.661 8.34-5.694 7.12-10.016 7.12-14.797-1.323-28.068-1.932-45-1.932l.204-35.645zm.712 41.95c22.779.457 30.507.558 40.066 1.373 11.695.71 12.356 4.424 13.221 9.355 1.17 6.56 2.389 24.66 2.033 30.254.204 5.848-4.626 9.305-11.084 9.305l-44.898-.356.662-49.931zm-.916-38.592c18.101-.051 31.931.609 39.559 1.269 9.66.612 9.356 3.764 9.711 7.526.458 4.78 1.018 10.933 1.526 15.713.508 7.117-3.407 5.949-7.983 5.642-11.847-1.015-29.338-1.728-42.813-1.728V23.969zm.254 90.506c25.271.152 46.983-.051 75.253.609 1.678.104.457 3.358 3.305 3.358.915 0 .661 2.439-.051 2.49-26.491-.203-51.66-.051-78.099.152l-.408-6.61zm59.949-21.762c.05 2.746.203 5.594.407 8.287.812 9.51 8.135 9.102 9.254-.051.355-2.591.457-5.236.304-8.287.204-6.967-10.169-7.068-9.965.05zm.609.609c.052 2.442.153 4.88.356 7.323.763 8.287 7.373 7.83 8.085-.102.254-2.39.407-4.678.305-7.322.051-5.645-8.948-6.153-8.746.1zm.153 1.627h8.542-8.542zm-4.169 14.442c-.204 4.474-.356 8.949-.56 13.422-.305 7.525 7.323 6.306 7.068 0-.255-4.422-.457-8.846-.713-13.27-.304-3.662-5.542-4.017-5.795-.152zm-16.831-2.035c-.05 1.677-.101 3.355-.203 4.984-.101 2.795 2.695 2.338 2.644 0a151.927 151.927 0 0 1-.254-4.934c-.152-1.32-2.085-1.474-2.187-.05zm22.119.56c3.865.05 7.78.152 11.643.203 2.543.153 4.627 1.88 4.779 3.865.103 2.135.204 4.27.306 6.407-1.067.1-1.678-.205-2.339-2.24-.051-1.067-.152-2.133-.203-3.151-.051-1.322-.509-2.49-2.491-2.594-3.713 0-7.425.05-11.085.05l-.61-2.54zm-61.83-21.254c10.475 0 19.271 0 29.746.71 2.796.052 4.322 2.29 4.474 4.577 0 2.543-.051 4.985-.152 7.475-.306 2.797-2.339 3.51-4.83 3.559l-29.39-.05.152-16.271zm0 2.135c9.915 0 19.577.05 29.492.05 2.034 0 2.593 1.78 2.643 3.356.051 2.696.051 5.39.103 8.035 0 1.373-1.323 2.135-2.492 2.696L83.032 88.797zm-.05 42.559c20.694.05 41.236.1 61.93.152 4.475-.102 11.949-3.865 13.678-10.678l-75.608 10.526zm.153-72.965c23.643.355 43.423 1.322 68.54 3.865 1.018.05 3.56-.764 4.83-1.475l-73.37-2.39zm60.303 73.117v21.457c0 1.728 1.881 3.814 3.152 3.865h12.864c2.187-.101 3.407-2.695 3.509-4.576v-46.932c-.204-.966-1.424-1.12-2.186-1.22l-17.339 27.406zm17.135-21.457c.051-3.711.102-6.914.102-10.627-.051-.916 1.119-1.78 1.22-.305v5.338l-1.322 5.594zm-34.83-45.914c15.763 1.322 21.457 1.83 26.136 2.39l-26.136-2.39zm31.932 4.22c10.373 12.254 8.136 29.237 5.492 39.559l-5.492-39.558zm-5.44-2.34l.203.255-.102.103-.152.102-.051.1-.102.103-.101.152-.051.102-.102.152-.051.152-.051.102-.051.152v.205l-.051.153v1.117l.051.203.102.406.051.205.05.203.103.204.051.203.101.203.102.203.101.203.102.203.152.205.103.203.152.204-.255.203-.152-.203-.152-.204-.153-.203-.101-.205-.102-.254-.102-.203-.102-.203-.102-.254-.05-.203-.102-.203-.052-.254-.05-.205-.05-.203v-.203l-.051-.203v-1.018l.051-.203.05-.152.05-.204.052-.152.051-.152.101-.153.051-.152.102-.152.101-.155.154-.101.101-.102.153-.101zm.304 6l.255-.202.152.203.153.203.153.203.152.152.153.205.203.153.152.152.153.152.204.153.152.1.152.103.204.152.152.104.203.099.152.053.204.102.154.05.202.05.153.052.153.05.203.052h.762l.154-.051.152-.051h.102l.152-.102.102-.05.153-.051.202.254-.152.1-.153.103-.152.05-.152.05-.153.052-.203.05h-.865l-.202-.05-.205-.051-.153-.05-.203-.051-.203-.102-.204-.05-.152-.102-.203-.102-.204-.101-.152-.154-.204-.102-.203-.152-.153-.153-.203-.152-.153-.152-.203-.153-.152-.203-.153-.203-.153-.152-.151-.205-.154-.254zm5.593 2.29l-.202-.254.101-.104.101-.1.103-.103.101-.101.102-.153.05-.101.051-.153.103-.152.051-.152v-.153l.049-.152.052-.152v-.916l-.052-.203v-.204l-.049-.205-.051-.203-.052-.203-.102-.203-.05-.203-.102-.203-.051-.203-.101-.205-.103-.254-.151-.204-.103-.203-.152-.203-.102-.203.254-.203.153.203.152.254.103.203.152.203.101.254.205.408.101.254.05.203.051.204.102.203.051.254v.205l.051.203.051.203v.812l-.051.205v.15l-.051.206-.051.152-.051.203-.051.153-.101.152-.101.152-.103.155-.102.099-.101.155-.102.1-.153.103zm-.305-6.051l-.254.203-.152-.203-.152-.152-.154-.205-.152-.202-.203-.154-.153-.152-.152-.153-.203-.152-.152-.152-.154-.102-.204-.152-.152-.102-.203-.101-.152-.102-.204-.103-.152-.051-.204-.05-.152-.103-.154-.05h-.202l-.153-.051h-.153l-.152-.051h-.152l-.153.05h-.305l-.153.052-.152.05-.101.05-.154.103-.101.05-.203-.253.152-.102.152-.101.154-.051.151-.051.153-.051.203-.051h.153l.152-.05h.204l.203.05h.153l.204.05.152.052.203.05.203.052.204.05.153.102.203.1.203.105.152.1.204.103.204.152.152.153.203.152.153.152.203.153.153.152.204.203.152.153.153.205.304.406z"/>
    <path stroke="#4A4A4A" stroke-width=".5" d="M155.508 68.204l.203.304h-.049l-.051.051-.052.051v.051l-.051.05-.051.051v.051l-.05.101v.051l-.051.051v.254l-.051.102v.05l.051.104v.254l.051.101v.102l.05.101v.102l.051.102.051.101v.102l.052.101.051.102.049.101.102.104.051.051.051.099-.253.205-.103-.101-.051-.104-.101-.099-.051-.104-.051-.101-.052-.102-.049-.152-.051-.102v-.101l-.052-.102-.05-.102v-.101l-.051-.102v-.814l.051-.102v-.101l.05-.102v-.101l.052-.051.051-.102.049-.051.052-.101.051-.051.101-.051.051-.05zm.154 3.05l.253-.205.102.104.052.101.05.102.102.051.05.101.101.102.102.051.052.05.101.102.051.051.102.05.101.051.051.051.102.051.05.051h.103l.101.05.051.053h.153l.101.049h.356l.051-.049h.153l.051-.053h.05l.051-.05.203.304-.101.053h-.051l-.102.049-.101.053h-.052l-.101.05h-.458l-.101-.05h-.102l-.101-.053h-.102l-.102-.049-.051-.053-.102-.049-.101-.05-.102-.053-.102-.049-.102-.053-.102-.101-.05-.051-.101-.102-.102-.05-.102-.102-.051-.101-.102-.102-.051-.102-.102-.101-.049-.102zm2.846 1.168l-.203-.304.102-.102.05-.051v-.051l.051-.05.051-.051v-.051l.052-.051v-.05l.051-.102v-.203l.049-.102v-.152l-.049-.102v-.205l-.051-.101v-.102l-.052-.049v-.103l-.051-.102-.051-.101v-.102l-.05-.101-.102-.204-.101-.101-.051-.102-.052-.101.306-.203.05.099.051.104.103.101.051.153.049.101.052.102.05.101.051.102v.102l.051.152.051.103v.1l.051.102v.814l-.051.102v.101l-.051.051v.101l-.051.102-.051.051-.05.101-.052.053-.049.049-.103.103-.051.049zm-.101-3.099l-.306.203-.101-.104-.051-.099-.05-.053-.103-.1-.05-.103-.102-.051-.051-.102-.101-.05-.102-.051-.051-.051-.101-.101-.102-.051-.052-.051h-.101l-.051-.051-.102-.051-.101-.05h-.051l-.102-.051h-.61l-.102.051h-.051l-.05.05-.052.051-.203-.304.103-.051.051-.051.101-.051h.101l.051-.051h.661l.102.051h.102l.101.051.102.051h.051l.102.051.102.05.101.102.102.051.101.05.102.051.051.102.101.051.103.101.101.102.05.05.103.102.051.102.101.101.102.104zm-7.035-1.99c-3.966 3.712 3.965 11.034 6.356 6.458l-6.356-6.457zM83.085 17.759c23.288-.152 38.085 1.018 59.541 3 2.289.203 4.12-1.068 5.746-2.033l-65.287-.967zm0-2.746c23.288-.152 37.423 1.17 58.88 3.203 2.339.152 5.085-1.373 6.815-3.101l-65.695-.102zm61.525 5.594c3.864 15.203 4.881 32.49 7.982 44.795l-7.982-44.795zm1.27-.406c4.273 14.642 5.492 32.794 8.645 45.099l-8.645-45.1zm12.56 53.082c1.221 8.492 1.881 17.238 2.644 24.56l-2.644-24.56zm-1.373 1.373c1.322 8.136 2.44 25.525 2.288 33.71l-2.288-33.71zm5.543-4.475c.406 0 .812 0 1.22-.051 1.068 0 1.271.713 1.068 1.22 0 .458-.915.458-1.476.458l-.812-1.627zm-56.898 19.729a669.9 669.9 0 0 0 .203 10.017h2.289c1.881-.101 2.643-9.713 0-9.967-.865 0-1.678-.05-2.492-.05zm2.187 6.1c.712 0 1.27-.558 1.27-1.22 0-.711-.558-1.27-1.27-1.27-.661 0-1.221.559-1.221 1.27 0 .662.56 1.22 1.221 1.22zm-24.356-27.1c3.814.103 6.712-2.795 2.084-2.745h-2.236l.152 2.745zm1.119-6.915c5.746 1.12 8.898 3.61 3.915 3.813-1.881.103-3.61.053-5.542.154l1.627-3.967zm70.066-12.964c8.44-1.018 10.22 11.185 2.186 13.066l-2.186-13.066zM96.305 79.74c0 .153-.05.305-.152.407-.153.1-.254.152-.457.152a.583.583 0 0 1-.408-.152.463.463 0 0 1-.203-.406s0-.051.051-.102c-.101-.051-.153-.051-.153-.051-.254 0-.356.102-.356.305 0 .1.051.305.204.66.152.356.204.61.204.814 0 .407-.204.762-.662.965-.355.153-.763.203-1.22.203-.458 0-.814-.05-1.17-.152-.457-.152-.66-.406-.66-.762 0-.51.406-.761 1.27-.761h.864l.153.355h-.66c-.153 0-.305.049-.458.102-.153.1-.254.203-.254.355 0 .153.152.305.355.406.204.05.357.102.56.102.255 0 .457-.051.661-.152.204-.153.254-.305.254-.56 0-.151-.05-.405-.153-.712-.152-.305-.203-.558-.203-.711 0-.56.457-.865 1.424-.865h.56c.152 0 .304.053.457.152.102.153.152.256.152.409zm-6.966 2.338c0 .102-.05.204-.152.254-.102.05-.204.102-.305.102h-.916c-.203 0-.355-.102-.355-.305 0-.051.051-.101.051-.152l.253-.762h-.458l-.253.66c-.051.153-.153.203-.306.203h-.253l.305-.863c-.102 0-.153-.051-.204-.103-.101-.1-.101-.203-.101-.252 0-.205.101-.358.253-.46.102-.05.306-.101.458-.101h.407l-.203.56h1.271l-.407 1.219h.915zm-2.644 0c-.05.102-.102.204-.202.254a.95.95 0 0 1-.358.102h-1.321c-.711 0-1.067-.254-1.067-.66 0-.305.101-.51.356-.711.203-.104.457-.203.762-.203h.355c.204 0 .357.049.509.099.204.053.306.205.306.358a.42.42 0 0 1-.255.406h-.762l.254-.508h-.458l-.203.559v.1c0 .103.101.204.304.204h1.78zm-2.898 0c0 .102-.05.204-.204.254-.1.05-.203.102-.304.102h-1.271c-.204 0-.305-.102-.305-.305.101 0 .153-.051.202-.101.103 0 .205-.102.255-.153.05-.101.102-.203.102-.304a.39.39 0 0 0-.102-.254c-.101-.053-.152-.102-.255-.102l-.711 2.084h-.865l1.017-3h.864l-.202.56c.355 0 .559 0 .712.05.254.103.355.255.355.509 0 .153-.05.254-.152.407-.102.1-.203.203-.356.253h1.22zm-4.322-.863h-.56l-.203.61v.1c0 .103.153.204.357.204.051 0 .051 0 .101-.051l.305-.863zm2.491-.355c-.051.252-.253.355-.558.355h-1.425c.052.049.102.102.102.203a.458.458 0 0 1 .051.254c0 .254-.101.457-.305.559a1.254 1.254 0 0 1-.762.254c-.357 0-.661-.102-.865-.254-.153-.102-.253-.254-.253-.508v-.102a.823.823 0 0 1 .354-.558c.204-.104.458-.203.815-.203h2.846zm-5.236.355h-.51l-.202.61c-.051.05-.051.05-.051.1 0 .103.153.204.406.204 0 0 .051 0 .051-.051l.306-.863zm2.49-.355c-.05.252-.202.355-.558.355h-1.424a.701.701 0 0 1 .153.203c0 .102.05.153 0 .254 0 .254-.102.457-.306.559a1.25 1.25 0 0 1-.762.254c-.356 0-.661-.102-.865-.254-.152-.102-.254-.254-.254-.508 0 0 0-.051.051-.102 0-.254.153-.406.305-.558.203-.104.509-.203.813-.203h2.847zm-3.762-1.12c0 .204-.101.305-.203.407-.153.1-.255.152-.407.152-.203 0-.355-.051-.458-.152-.101-.102-.203-.203-.203-.406 0-.051 0-.102.052-.102-.357 0-.661.152-.916.508a1.418 1.418 0 0 0-.356.965c0 .61.406.966 1.22.966h1.17c-.051.204-.255.356-.56.356h-.864c-.509 0-.966-.102-1.271-.254-.458-.203-.662-.56-.662-1.016 0-.255.051-.51.204-.814.254-.356.559-.61.966-.865a2.558 2.558 0 0 1 1.22-.305h.458c.152 0 .305.053.407.205.102.1.203.203.203.356z"/>
    <path stroke="#4A4A4A" stroke-width=".5" d="M85.079 3.02c-18.914-.203-43.117 1.17-50.744 2.949-8.441 1.27-11.746 5.898-12.661 9.558h-2.441v1.424c-.407.102-.865.203-1.322.356.509 1.17 1.22 1.73 1.932 2.086-4.78 14.949-5.95 29.947-8.898 44.896-15.661 13.018-8.898 46.373-5.847 61.678L85.078 3.02zM21.114 20.205c-4.728 15-6.457 30.71-9.406 45.66-15.661 13.018-9.152 40.22-6.61 55.168L21.114 20.205zm63.965.406c-22.626-.101-31.17.51-40.728 1.323-11.034.814-11.593 5.187-12.152 9.457-.61 6-1.322 13.677-1.932 19.677-.61 8.34 5.695 7.12 10.016 7.12 14.797-1.323 28.119-1.932 44.999-1.932l-.203-35.645zm-.712 42c-22.78.407-30.457.508-40.067 1.323-11.644.71-12.305 4.424-13.22 9.355-1.118 6.56-2.34 24.66-1.982 30.254-.255 5.848 4.627 9.305 11.033 9.305l44.948-.356-.712-49.881zm.966-38.642c-18.101-.051-31.931.609-39.558 1.269-9.661.612-9.356 3.764-9.713 7.526-.457 4.78-1.016 10.933-1.525 15.713-.508 7.117 3.407 5.949 7.983 5.642 11.797-1.015 29.288-1.728 42.813-1.728V23.969zm-.254 90.506c-25.271.152-46.981-.051-75.253.609-1.678.104-.457 3.358-3.305 3.358-.965 0-.661 2.439.05 2.49 26.492-.203 51.763-.051 78.152.152l.356-6.61zm-60-21.762c-.05 2.746-.151 5.594-.354 8.287-.865 9.51-8.136 9.102-9.255-.051-.356-2.591-.457-5.236-.356-8.287-.152-6.967 10.22-7.068 9.966.05zm-.608.609a175.728 175.728 0 0 1-.306 7.323c-.763 8.287-7.373 7.83-8.136-.102-.203-2.39-.355-4.678-.304-7.322-.051-5.645 9-6.153 8.746.1zm-.103 1.627h-8.542 8.542zm4.17 14.442c.152 4.474.355 8.949.509 13.422.355 7.525-7.272 6.306-7.018 0 .203-4.422.458-8.846.66-13.27.358-3.662 5.594-4.017 5.849-.152zm16.779-2.035c.102 1.677.153 3.355.203 4.984.153 2.795-2.695 2.338-2.592 0 .1-1.63.152-3.254.254-4.934.153-1.32 2.084-1.474 2.135-.05zm-22.067.56c-3.915.05-7.78.152-11.644.203-2.543.153-4.678 1.88-4.831 3.865-.101 2.135-.152 4.27-.254 6.407 1.069.1 1.678-.205 2.339-2.24.05-1.067.103-2.133.153-3.151.1-1.322.559-2.49 2.543-2.594 3.71 0 7.372.05 11.084.05l.61-2.54zm61.829-21.254c-10.475 0-19.271 0-29.745.71-2.797.052-4.321 2.29-4.474 4.577 0 2.543.05 4.985.1 7.475.306 2.797 2.39 3.51 4.882 3.559l29.39-.05-.153-16.271zm0 2.135c-9.914 0-19.627.05-29.491.05-2.033 0-2.644 1.78-2.644 3.356-.051 2.696-.051 5.39-.101 8.035 0 1.373 1.32 2.135 2.49 2.696L85.08 88.797zm0 42.559c-20.694.05-41.186.1-61.88.152-4.474-.102-11.95-3.865-13.728-10.678l75.608 10.526zm-.152-72.965c-23.593.355-43.372 1.322-68.491 3.865-1.068.05-3.558-.764-4.83-1.475l73.32-2.39zm-60.253 73.117v21.457c-.051 1.728-1.881 3.814-3.154 3.865H8.605c-2.134-.101-3.354-2.695-3.457-4.576v-46.932c.204-.966 1.424-1.12 2.136-1.22l17.39 27.406zM7.487 110.05c0-3.711-.051-6.914-.051-10.627 0-.916-1.118-1.78-1.22-.305v5.338l1.27 5.594zm34.88-45.914c-15.762 1.322-21.507 1.83-26.135 2.39l26.136-2.39zm-31.931 4.22C.063 80.612 2.3 97.595 4.945 107.917l5.49-39.558zm5.44-2.34l.153.102.103.102.1.1.154.156.05.152.102.152.102.153.05.152.052.152.05.204.052.152v.203l.05.205v.813l-.05.203-.052.203v.203l-.05.205-.102.254-.102.406-.102.254-.101.203-.103.203-.1.254-.154.205-.101.203-.152.204-.153.203-.254-.203.102-.204.152-.203.102-.205.152-.203.102-.203.1-.203.053-.203.102-.203.049-.204.103-.203.05-.205.05-.203.052-.203v-.203l.05-.203v-.914l-.05-.153-.051-.205v-.152l-.05-.102-.102-.152-.052-.152-.05-.102-.101-.152-.103-.102-.101-.101-.102-.102-.101-.103.203-.254zm-.304 6l-.152.255-.153.205-.153.152-.152.203-.204.203-.153.153-.203.152-.152.152-.203.153-.153.152-.204.102-.203.154-.152.1-.203.103-.204.102-.153.05-.203.102-.203.05-.204.05-.152.052-.204.05h-.864l-.203-.05-.152-.051-.154-.05-.152-.051-.152-.102-.153-.101.204-.254.1.05.153.05.102.103h.152l.154.05.15.052h.765l.152-.051.203-.051.153-.051.153-.051.203-.05.152-.102.203-.053.154-.1.203-.103.152-.152.203-.102.153-.101.153-.153.203-.152.152-.152.154-.153.203-.205.152-.152.153-.203.152-.203.153-.203.254.203zm-5.593 2.29l-.153-.102-.101-.101-.153-.155-.101-.1-.102-.154-.052-.152-.101-.152-.051-.153-.051-.203-.051-.152-.05-.205-.05-.151V71.51l.05-.203v-.203l.05-.205.05-.254.052-.203.102-.204.05-.203.103-.254.1-.205.103-.203.102-.254.1-.203.154-.203.153-.254.152-.203.254.203-.152.203-.102.203-.152.203-.102.204-.102.254-.203.408-.051.203-.102.203-.051.203-.05.203-.051.203-.051.205-.052.204v1.119l.052.152v.152l.05.153.052.152.05.152.102.153.05.1.102.154.102.1.05.105.154.099.102.104-.204.254zm.305-6.051l.152-.203.154-.203.152-.205.152-.153.153-.203.203-.152.152-.153.204-.152.153-.152.204-.153.202-.152.153-.103.203-.1.204-.104.153-.101.203-.102.203-.05.203-.051.154-.051.202-.051.204-.051h.152l.203-.05h.153l.203.05h.153l.203.05.153.052.153.05.152.052.153.1.152.103-.203.254-.153-.051-.101-.102-.153-.051-.102-.05-.152-.051h-.305l-.153-.051h-.153l-.152.05h-.152l-.204.052h-.152l-.153.05-.203.104-.154.049-.202.05-.152.104-.204.102-.153.1-.203.103-.153.152-.152.102-.204.152-.152.152-.152.153-.204.152-.153.154-.153.202-.151.205-.154.152-.152.203-.254-.203z"/>
    <path stroke="#4A4A4A" stroke-width=".5" d="M12.559 68.204l.051.05.051.051.101.051.051.101.052.051.05.102v.051l.05.101.052.102v.101l.051.102v.662l-.051.152v.102l-.052.101v.102l-.05.102-.05.101v.102l-.052.152-.051.102-.101.101-.051.104-.051.099-.051.104-.101.101-.255-.205.051-.099.051-.051.051-.104.051-.101.051-.102.05-.101.051-.102.051-.101.051-.102v-.102l.051-.101v-.102l.051-.101v-.662l-.051-.102v-.102l-.051-.101-.051-.051v-.051l-.051-.05-.051-.051-.05-.051v-.051h-.051l.203-.304zm-.152 3.05l-.051.102-.102.101-.051.102-.203.203-.05.102-.103.05-.101.102-.102.051-.101.101-.051.053-.103.049-.101.053-.102.05-.101.049-.103.053-.101.049h-.102l-.05.053h-.102l-.102.05h-.457l-.102-.05h-.102l-.051-.053-.101-.049H9.61l-.051-.053.203-.304.051.05h.051l.051.053h.153l.051.049h.356l.05-.049h.152l.102-.053.102-.05h.051l.102-.051.051-.051.101-.051.102-.051.05-.05.102-.051.103-.102.05-.05.102-.051.051-.102.254-.254.05-.101.102-.104.255.205zm-2.848 1.168l-.101-.049-.051-.103-.051-.049-.052-.053-.05-.101-.051-.051-.051-.102-.051-.101v-.051l-.051-.101v-.204L9 71.356v-.406l.05-.104v-.203l.051-.1.051-.103v-.152l.102-.204.05-.101.052-.102.051-.101.051-.153.05-.101.102-.104.051-.099.305.203-.051.101-.102.102-.051.101-.05.102-.051.102-.051.101-.051.102v.101l-.051.102-.05.103v.049l-.051.102v.205L9.356 71v.407l.051.101v.153l.051.05v.051l.05.051.051.051v.05l.051.051.051.051.051.051.05.051-.203.304zm.102-3.099l.101-.104.051-.101.102-.102.051-.102.102-.05.203-.203.051-.051.101-.102.102-.051.102-.05.102-.051.05-.102.102-.05.101-.051h.103l.101-.051.102-.051h.101l.103-.051h.609l.102.051h.102l.051.051.101.051.102.051-.203.304-.102-.051-.051-.05h-.051l-.051-.051h-.609l-.103.051h-.101l-.051.05-.102.051-.05.051h-.103l-.101.051-.05.051-.102.101-.102.051-.05.051-.102.05-.052.102-.101.051-.051.103-.101.1-.051.053-.102.099-.051.104-.305-.203zm6.96-1.99c3.966 3.712-3.966 11.034-6.356 6.458l6.356-6.457zm68.236-49.575c-23.288-.152-38.033 1.018-59.49 3-2.288.203-4.118-1.068-5.745-2.033l65.235-.967zm.05-2.746c-23.286-.152-37.473 1.17-58.93 3.203-2.288.152-5.085-1.373-6.762-3.101l65.693-.102zm-61.522 5.594C19.469 35.809 18.503 53.096 15.4 65.4l7.984-44.795zM22.06 20.2c-4.22 14.642-5.49 32.794-8.591 45.099l8.59-45.1zM9.503 73.282c-1.17 8.492-1.881 17.238-2.593 24.56l2.593-24.56zm1.424 1.373c-1.323 8.136-2.441 25.525-2.29 33.71l2.29-33.71zM5.334 70.18c-.357 0-.763 0-1.17-.051-1.068 0-1.272.713-1.118 1.22 0 .458.915.458 1.473.458l.815-1.627zm56.948 19.729c-.051 3.355-.153 6.66-.204 10.017H59.79c-1.932-.101-2.695-9.713 0-9.967.813 0 1.627-.05 2.492-.05zm-2.187 6.1c.662 0 1.22-.558 1.22-1.22 0-.711-.558-1.27-1.22-1.27-.711 0-1.271.559-1.271 1.27 0 .662.56 1.22 1.27 1.22zm24.304-27.1c-3.812.103-6.711-2.795-2.033-2.745h2.339l-.306 2.745zm-1.118-6.915c-5.745 1.12-8.898 3.61-3.865 3.813 1.883.103 3.559.053 5.492.154l-1.627-3.967zM13.265 49.03c-8.44-1.018-10.22 11.185-2.237 13.066l2.237-13.066z"/>
  </g>
</svg>
