<svg xmlns="http://www.w3.org/2000/svg" width="90" height="150">
  <g fill="#4B4B4B" fill-rule="evenodd">
    <path d="M30 114.52c1.35-.507 1.35-.507 2.7-1.158 1.216-.869 4.49-3.692 6.212-3.33 0 1.52-.911 1.412-1.721 2.389v.29c.574-.073 1.148-.073 1.721-.11.102.399.102.761.068 1.231-1.327.628-8.096 4.101-8.98.688m19.087-.754c-.1-.406-.1-.665-.067-1.108.572.037 1.21.11 1.85.148-.135-.886-1.278-1.108-1.682-1.92a8.183 8.183 0 0 1-.168-.886c2.254 0 4.305 2.067 6.155 3.286.908.48 1.85.923 2.825 1.255v.222c-3.046 2.463-6 .78-8.913-.997m-6.97.234c-.412-.323-.618-.61-.858-1.04-.103-3.23-.583-6.674.103-9.867.446-.753.754-.717 1.577-.932 1.303-.036 3.189-.467 4.32.25 1.029 3.158.686 6.638.686 9.975-.171.753-.446 1.112-1.166 1.399-1.577.036-3.12.107-4.663.215m-14.987 0c-1.56-.255-4.193-.729-5.129-2.186.07-.073.173-.183.243-.255 3.846-1.786 8.351-4.483 12.683-3.244.07.036.173.146.277.219 0 .073 0 .182.035.291-.208.182-.381.365-.555.547-.762 0-1.317.11-2.044.4v.256c.693 0 2.876-.365 3.361.146-.07.11-.139.182-.208.291-2.98 1.895-5.198 3.244-8.663 3.535m33.792 0c-2.988-.544-5.35-1.921-7.886-3.697-.035-.11-.035-.182-.035-.254h3.405c-.626-.943-2.884-.218-2.606-1.523 4.1-1.776 9.414 1.378 12.958 3.046.07.108.174.217.243.362-1.91 1.486-3.683 1.885-6.08 2.066m-38.51-4c-1.688-1.354-2.582-2.436-3.41-4.679v-.31c.331-.038.331-.038 4.371.967.63.232 2.815 1.006 2.616 2.011-1.093.464-2.252.928-3.013 1.972-.199 0-.398.039-.563.039m42.708 0c-.93-1-1.891-1.577-3.119-2v-.192c1.095-2.116 5.142-2.23 6.8-2.808.067 0 .134.039.2.077 0 1.923-2.29 4.73-3.881 4.923m-27.32-1c-.289-.18-.289-.18-1.01-.36-2.238-2.162-2.238-2.162-3.789-3.424V105c2.454 0 4.727.937 7 1.73v.288c-1.84.649-1.84.649-1.84.72 1.082.433 1.082.433 1.623.541 0 .18.036.36.073.541-.794.108-.794.108-2.057.18m12.13 0c-.25-.108-.5-.145-.75-.18v-.506c.535-.145 1.071-.326 1.607-.47v-.253c-.572-.145-1.5-.29-1.786-.867 2.107-.687 4.714-1.916 7-1.699-.107.18-.107.18-2.286 2.06-1.428 1.518-1.643 1.807-3.786 1.915"/>
    <path d="M18.822 108c-4.24-.209-7.249-2.368-9.786-5.537-.036-.105-.036-.174-.036-.244.942.104 1.123.209 3.19.522h2.754c2.139-.313 3.987-.975 5.98-1.741.652.139.906 1.358 1.16 1.95.181.313 1.015 1.428.906 1.742-1.414 0-2.972-.836-4.204-.697-.217.906-.145 1.672 0 2.612.507 1.15.507 1.15.507 1.323-.181.035-.326.07-.47.07m51.731 0c0-.805.373-1.75.542-2.555a23.92 23.92 0 0 1-.135-1.47c-1.32 0-2.573.875-3.961.7 0-.7 1.388-2.975 1.693-3.675.947 0 2.2.77 3.08 1.12 2.81.7 5.35.665 8.227.07-.034.105-.068.21-.068.315-2.471 3.5-5.247 5.145-9.378 5.495m-41.264-1c-2.056-.504-3.103-2.185-3.29-4 .822 0 1.645 0 2.467.033 1.383.404 5.196 2.488 5.533 3.496-.897 0-1.794.068-2.654.101-1.458.303-1.458.303-2.056.37m30.325 0c-1.052-.545-2.465-.443-3.615-.477 0-.34 2.3-2.01 2.63-2.317 1.708-1.09 2.267-1.26 4.37-1.193 0 1.261-1.019 3.067-2.07 3.749-.428.102-.888.17-1.315.238m-19.814-1c-1.035-1.213-2.986-3.346-2.787-5 .996 0 1.99.625 2.986.956 0 .809 0 .809-.199 4.044m9.39 0c0-1.318-.04-2.6-.191-3.918.835-.11 2.392-1.245 3-1.062 0 1.208-1.595 4.54-2.81 4.98"/>
    <path d="M24.78 105c-2.495-1.705-3.138-4.353-3.78-7 .529.109.529.109 2.532.98.718.144 4.952 1.595 4.422 2.683-2.003.037-3.59.037-2.759 2.467-.037.254-.037.508-.037.797-.152 0-.265.037-.378.073m12.902 0c-.884-.53-1.732-.762-2.722-.994-1.874-.067-3.112.43-3.571-1.326A25.972 25.972 0 0 0 31 99c3.182 0 6.434 3.183 7 6h-.318M51 105c0-1.728 1.687-3.39 3.015-4.454 1.041-.598 2.693-1.695 3.985-1.53 0 .267 0 .267-.251.932 0 1.296.502 3.556-1.221 3.989-2.19.033-3.554.232-5.528 1.063m13.275 0c.165-1.256.66-2.513-.462-3.23a30.77 30.77 0 0 0-1.813-.073c0-.502.66-1.04.956-1.364C64.506 99.256 66.352 98.897 68 98c0 1.867-1.615 6.677-3.725 7m-34.935-3c-.491-.762-.981-1.45-1.585-2.104C25.075 98.192 25.113 98.01 25 95c3.698.762 5.434 3.446 6 6.818-.113.11-.113.11-1.66.182M59 102c0-2.583.792-4.293 2.738-5.966.396-.218 1.65-1.164 2.21-1.019 0 1.2.297 2.656-.528 3.602-1.418.873-2.276 1.782-3.068 3.31-.461.036-.89.036-1.352.073m-47.265-.003c-2.17-.672-3.15-1.238-4.62-3.112-1.19-2.581-1.33-5.092-.875-7.885.77.283 2.17 1.803 2.94 2.37 2.87 1.98 7.35 3.181 8.82 6.682 0 .354-.175.707-.49.884-.805-.813-1.61-1.803-2.695-2.228.28.814 1.82 2.051 1.575 2.935-1.4.495-3.15.318-4.655.354m62.189.003c-.774-.179-.774-.179-1.196-.357 0-1.25 1.126-1.786 1.442-2.893-.844 0-2.075 1.464-2.603 2.143-1.83 0 1.337-3.857 1.513-4.107C76 94.464 79.447 93.107 82.472 91h.423c.105.536.105.536.105 4.679-.704 3.464-2.357 5.285-5.558 6.25-1.196 0-2.357.035-3.518.071m-49.103-4c-2-.847-3.607-1.458-5.821-1.695V94c2.428 0 5.5 1.56 6 4h-.179M65 98c0-2.326 3.867-4.131 5.98-3.992 0 .66.108 1.77-.179 2.36-.608.035-1.217.104-1.79.174-1.325.451-2.686 1.18-4.011 1.458"/>
    <path d="M4.656 93c-.511-.369-.987-.738-1.462-1.07C1.111 89.494.563 86.136 1.331 83c.475.147 1.315.627 5.153 2.398 2.631 1.44 4.75 3.284 4.495 6.643-.11 0-.22 0-.33.036-.73-.295-4.312-2.14-5.335-1.918-.11.221-.11.221-.329 2.767-.146.037-.219.037-.329.074m78.922-1c-.034-1.929-.034-1.929-.169-2.64-.304 0-.304 0-5.33 1.896-.37.169-.674.44-1.079.372.405-3.214 1.45-4.568 4.115-6.192 1.89-.846 3.913-1.793 5.87-2.436 0 3.045.337 6.226-2.126 8.39-.438.204-.843.407-1.281.61M77 86c0-1.924-.069-2.836 1.592-3.95 1.8-.675 3.702-1.248 5.432-2.025 1.419-.945 1.419-.945 2.838-2.025.034.101.104.169.138.27-.38 5.232-5.57 4.962-9.377 7.223-.207.17-.415.338-.623.507m-65.108 0c-1.802-1.614-4.36-2.05-6.631-2.857-1.838-1.008-2.45-1.345-3.207-3.16-.072-.874-.072-1.95 0-1.983.54.437.54.437.649.639 2.63 2.017 5.801 2.386 8.54 4.067.505.74.505.74.757 1.277-.036 1.95-.036 1.95-.108 2.017m66.274-5c-.292-.269-.11-1.511-.11-1.914 1.712-2.989 3.898-3.56 7.14-4.97l1.42-1.008c.437-.37.801-.94 1.384-1.108 0 3.828-2.258 6.448-6.083 7.858-1.275.302-2.55.672-3.751 1.142M11.63 82c-.775-.772-3.1-1.25-4.28-1.544-.591-.331-1.181-.625-1.772-.92-1.734-1.47-2.841-3.014-3.579-5.293 0-.772 0-1.508.037-2.243 2.103 3.162 6.605 3.382 9.004 6.213.553.809.553.809.959 1.691-.037.662-.037 1.324-.037 2.022-.11.037-.221.037-.332.074m.598-3c-.143-2.818-.681-5.567.646-8.11C13.95 70.203 15.709 69 17 69c0 2.749-.79 4.811-2.188 7.148-.502.687-1.686 2.68-2.583 2.852M78 77c0-2.183.068-3.17 1.529-4.718l4.075-2.747c2.92-2.324 2.92-2.324 3.26-2.535.034.775.068 1.584.136 2.394h-.17c-.305 3.204-4.177 4.26-6.487 5.493-.883.704-1.46 1.162-2.105 2.113H78m-67.171 0c-.378-.453-.72-.871-1.063-1.324-2.125-1.498-4.628-2.335-6.72-3.972C1.882 70.136 1.985 68.882 2.019 67c.96.732 1.92 1.533 2.88 2.3 2.571 1.637 4.834 2.543 6.068 5.4 0 .732.034 1.498.034 2.3h-.171m-.05-4c-1.656-2.081-3.386-3.226-5.631-4.751-2.025-1.7-2.209-2.845-2.135-5.41A8.41 8.41 0 0 1 3.859 61h.185c.257 1.075 1.214 1.942 1.913 2.774 2.209 2.22 4.343 3.99 5.043 7.076-.037.693-.037 1.422-.037 2.15h-.184m67.246 0c-.038-2.624-.038-2.624.037-3.184a19.225 19.225 0 0 1 2.084-3.289c2.642-2.588 2.642-2.588 3.87-3.883C84.983 61 84.983 61 85.095 61c1.265 2.029 1.227 4.548-.26 6.437-1.713 1.365-3.76 2.52-5.434 3.954-.26.35-1.004 1.504-1.376 1.609m-1.126-3c-4.613-2.778-4.613-2.778-5.286-3.264C70.4 65.313 68.077 62.05 69.39 60c.169.035.303.07.472.104C73.363 62.222 77 65.243 77 69.896c-.034.035-.1.035-.1.104m-64.708 0c-.995-.963 2.174-5.528 2.727-6.242l1.953-1.783c.775-.428 3.17-2.14 4.128-1.962v2.497c-.516 1.712-1.658 3.245-3.022 4.458-1.51.892-1.51.892-5.786 3.032"/>
    <path d="M77.634 69c-1.532-2.908.034-6.497 1.3-9.082 2.165-3.59 2.165-3.59 2.831-4.918 1.333 1.077 1.233 4.451 1.233 6.03-.4.97-.4.97-.866 1.832-2.932 3.23-2.932 3.23-3.431 3.948-.334.718-.7 1.436-1.067 2.19m-67.198 0c-.169-.217-.609-1.371-1.116-2.165-1.016-1.227-2.099-2.31-3.181-3.536C4.514 60.449 4.75 58.067 6.07 55c.034 0 .101.036.203.073 1.76 2.994 3.655 5.989 4.67 9.38 0 .686.305 4.258-.508 4.547M30.536 68l4.593-8.036V68h2.727l-.466-1.418V55.236L38 54h-3.158l-4.306 8H30.5l-4.342-8H23l.61 1.236v11.346L23.143 68h2.728v-8.036L30.5 68h.036M43.565 61.564v5.018L44 68h-4l.475-1.418V55.236L40 54h4l-.435 1.236v6.328M65.565 61.564v5.018L66 68h-4l.475-1.418V55.236L62 54h4l-.435 1.236v6.328M47 68l.489-1.418V55.236L47.035 54h1.992l8.003 8.618V54H60l-.455 1.273v11.309L60 68h-2.167l-8.142-9.164V68H47"/>
    <path d="M76.522 66l-.896-1.416c-.97-2.47-.709-4.504.075-7.046.896-2.143 1.903-4.286 2.425-6.538 1.382 0 2.426 2.87 2.8 3.922.037.546.074 1.054.074 1.562-2.164 2.833-4.553 5.775-4.291 9.516h-.187m-64.048-1c-.255-2.888-1.31-4.791-3.019-7.17C8.328 56.539 8.328 56.539 8 56.063c0-1.7 1.091-4.384 2.946-5.063 1.164 4.383 5.238 9.718 1.528 14m59.4-3c-2.627-1.778-2.627-1.778-3.608-2.296-.127-1.556-.317-3.111-.253-4.704h.253c1.835 1.852 3.322 4.148 3.734 7h-.127M16 61c0-1.814 2.205-6.529 3.968-7 0 .58 0 1.197.032 1.813-.22 2.648-.22 2.648-.315 2.83-.945.507-.945.507-3.685 2.357m56.762-2c-.92-1.678-.92-1.678-1.873-3.15-1.157-1.473-1.872-2.227-1.94-2.398-.375-.274-1.804-1.473-1.906-1.644 0-.753-.17-2.123.17-2.808h.272c2.52 1.884 4.323 3.664 5.31 6.747.069 1.061.137 2.157.205 3.253h-.238"/>
    <path d="M15.036 59c-.353-4.846 1.906-7.235 5.646-10H21v3.003c-.706.58-1.73 1.195-2.188 1.946h-.14c-1.307 1.638-2.577 3.106-3.389 5.051h-.247"/>
    <path d="M14.322 55c-1.543-2.94-1.983-6.467.037-9.303.844-.899 2.46-2.455 3.636-2.697 0 2.386.073 4.842-.331 7.228-.698 1.764-1.432 3.873-3.342 4.772m61.234 0c-4.149-3.389-3.482-7.297-3.556-12 1.704.277 3.222 2.248 4.185 3.458.407.761.407.761.815 2.04 0 1.003.037 6.156-1.444 6.502m-9.997-3c-.242-.152-1.385-.343-4.362-1.256-.312-.19-.312-.19-6.197-2.245.173-.114 2.389-.228 3.081-.38 2.147-.039 4.57-.495 6.509.685.485.608 1.592 2.168 1.384 3.082L65.56 52M22 51c0-3.919 5.69-2.908 8.432-2.816C33 48.459 33 48.459 33 48.52c-3.54.95-7.287 2.113-11 2.48m48.815-1c-.63-.574-2.482-2.473-3.37-2.33-.149.323-.297.681-.445 1.004-1-.753-1.518-2.796-1.889-3.907-1.037-4.23-1.037-4.23-1.111-4.767 2.481 0 5.741 3.44 6.926 5.233 0 1.577.037 3.154.074 4.767h-.185"/>
    <path d="M18.222 50c-.48-.97-.037-3.846 0-4.996 1.26-1.437 4.556-5.21 6.778-4.995 0 1.042-.481 2.12-.667 3.162-.185.54-.259 1.114-1.148 3.882-.222.431-.703 1.402-1.11 1.653-.149-.36-.297-.719-.408-1.078-1.223.18-2.519 1.617-3.445 2.372M35 47c-1.464-.25-2.643-.685-3.964-1.308 0-.094-.036-.218-.036-.311 1.464-.655 1.464-.655 3.25-1.309 2.393-.28 3.75.28 5.75 1.246-.357 1.277-3.786 1.651-5 1.682m17.516 0c-1.23-.377-2.496-.691-3.516-1.508 1.652-1.445 4.113-1.76 6.258-1.289 1.687.723 1.687.723 2.742 1.257-1.441 1.32-3.55 1.477-5.484 1.54M24.48 47c-.185-.033-.332-.033-.48-.067.11-.766.664-1.466 1.291-2 2.766-.233 5.644-1.3 7.783-2.933 1.107 0 1.033.533.738 1.3-.258.167-.258.167-2.066.9-2.471 1.433-4.279 2.667-7.266 2.8m39.313 0c-1.61-.292-1.61-.292-2.634-.584-1.573-.844-3.11-1.656-4.61-2.468-1.06-.39-1.646-.487-1.536-1.526a4.73 4.73 0 0 1 .695-.422c2.488 1.623 4.975 2.598 8.012 2.987 1.207 1.656 1.207 1.656 1.28 1.883-.403.033-.805.098-1.207.13"/>
    <path d="M25.258 45c-.072-.037-.18-.11-.252-.148-.109-.89 1.405-2.889 1.802-3.593C29.295 38.52 32.287 36.334 36 36c-1.658 5.185-5.335 8.519-10.742 9m39.273 0c-.108-.074-1.082-.11-2.597-.481-2.668-1.075-4.544-2.334-6.239-4.667C55.118 38.63 54.325 37.333 54 36c2.272 0 4.544 1.37 6.384 2.556C62.223 40 64.676 42.444 65 44.926c-.144.037-.289.037-.469.074m-29.64-2c-.213-.274.215-.957.25-1.334-.392-.17-.749-.307-1.141-.478 0-.65.784-1.47 1.034-2.188.999 0 6.24.274 5.955 1.743-1.676 1.573-3.851 2.052-6.097 2.257m17.823 0c-1.687-.517-3.41-1.138-4.71-2.38-.176-1.206 4.921-1.62 5.8-1.62.316.138 1.09 1.828 1.195 2.276-.422.138-.808.276-1.23.448 0 .414.351.828.281 1.172-.457.035-.879.07-1.336.104M20.187 73.738h4.987L26 71h-7.843L12 92h7.843l.825-2.772h-4.987c1.272-4.332 3.75-12.857 4.506-15.49M38.138 71L32 92h7.828L46 71h-7.862zm-.345 18.228h-2.138c1.276-4.332 3.759-12.857 4.552-15.49h2.138c-1.276 4.331-3.793 12.856-4.552 15.49zM28.138 71L22 92h7.828L36 71h-7.862zm-.345 18.228h-2.138c1.276-4.332 3.759-12.857 4.552-15.49h2.138c-1.276 4.331-3.759 12.856-4.552 15.49zM49.093 71L43 92h3.08s1.301-4.713 2.568-9.391h4.792L57 71h-7.907zm.342 8.871c.822-2.98 1.438-5.233 1.712-6.134h1.917l-1.746 6.134h-1.883zm15.74-6.134L66 71h-7.843L52 92h7.912l.756-2.738h-4.781c.481-1.802 1.17-4.227 1.823-6.653h4.747l.825-2.738h-4.815c.79-2.807 1.479-5.233 1.72-6.134h4.987m7.3 8.872L76 71h-7.873L62 92h3.08s1.301-4.713 2.602-9.391h.034L70.352 92h2.944l-2.636-9.391h1.815zm-2.327-8.872h1.95l-1.78 6.134h-1.882c.822-2.98 1.438-5.233 1.712-6.134z"/>
  </g>
</svg>
