<svg xmlns="http://www.w3.org/2000/svg" viewBox="0 0 352 155">
  <g fill="none" fill-rule="evenodd">
    <path fill="#FFF" d="M294.757 12.222c-4.962-5.432-6.337-8.121-37.13-9.594-135.33-6.397-137.976 8.123-137.976 8.123l-2.444-.914c-.661.203-1.22 1.218-1.22 1.777.559.507 1.271.862 2.086 1.116l-.611 1.218c-1.629.052-2.24 1.016-1.629 2.59L90.131 48.774c-1.069.356-1.833 1.93-1.73 3.047a24.344 24.344 0 0 0-.561 1.827c-33.488 3.91-65.552 8.579-76.546 15.688-.356.304-.356.913-.356 1.269h-.195c-2.004.026-2.964.462-3.063 2.233.05 6.753.102 13.453.153 20.205.05 1.167 1.68 2.285 2.697 2.538h.459c-.051 4.011 1.577 4.925 2.238 7.513.56 1.371.815 2.996.917 5.636 5.293.202 3.664 5.228 4.173 7.005.714 2.64-1.018 6.194-3.46 6.042-2.952-.153-5.905 0-8.857 0 2.19 4.213 3.869 7.36 9.162 8.223-1.221-2.03-2.444-4.112-3.716-6.193H22.95c5.446-40.309 58.021-39.446 64.739-4.215 1.272 4.672 6.362 7.87 10.688 7.92l147.495-2.74c3.207-.153 8.958-4.671 10.84-8.53 15.32-38.632 64.23-26.093 64.485 10.154 9.112 0 17.509-6.702 16.642-9.95-2.594.051-3.867.152-6.463.203-5.241-.152-4.835-13.605.968-13.555 2.442-.05 3.562 0 5.953 0 .409-1.726 2.545-2.132 3.716-.405.509-.153 1.02-.255 1.477-.356v-5.23c2.39-.05 3.358-1.472 3.511-2.943-.203-2.438-.305-4.366-.457-6.854-.154-1.472-2.29-1.472-3.463-1.472-.252-1.117-2.239-1.27-3.103-.914-.102-2.284 1.883-1.878 2.24-2.842-1.884-11.068-6.973-19.75-17.56-27.262 0-.914-.611-1.878-1.119-2.335-.203-1.117-.815-2.59-1.781-2.741-7.126-9.748-14.557-19.698-21.732-29.446.254-1.574-.712-3.147-1.986-3.4a48.24 48.24 0 0 1-1.477-1.829c.61-.456 1.629-.963 1.883-1.471-.355-.864-.864-1.524-1.678-2.083-.408-.1-1.528.508-2.01.71"/>
    <path fill="#FFF" d="M7.25 73.619c-3.174 3.418-4.118 8.769-2.411 13.408a13.112 13.112 0 0 0 2.405 4.08c.136.156.455.54.756.893l-.16-19a50.04 50.04 0 0 0-.59.619M200.949 51.873v-1.91l-.051-.955v-3.719l-.051-.905v-2.815l-.051-.904v-2.816l-.05-.955V34.13l-.052-.956V30.36l-.051-.956v-3.266l-.051-.403-.102-.703-.102-.353-.101-.401-.102-.302-.153-.351-.153-.352-.152-.302-.153-.352-.204-.301-.255-.302-.203-.301-.509-.504-.256-.252-.305-.251-.254-.25-.357-.203-.306-.2-.305-.15-.357-.201-.356-.151-.408-.101-.356-.15-.407-.101-.408-.051-.407-.049-.408-.051-.458-.05h-.458l-1.579.05h-1.63l-1.63.051h-3.259l-1.63.049h-3.259l-1.63.051h-3.31l-1.63.05h-3.31l-1.63.051h-1.68l-1.63.05h-3.31l-1.63.049h-3.31l-1.631.051H151.6l-1.63.05h-1.63l-1.63.051h-3.259l-1.63.049h-2.037l-.407.051h-.407l-.408.101-.408.05-.406.101-.408.1-.408.1-.407.101-.357.151-.408.151-.355.15-.408.151-.356.201-.357.201-.356.202-.357.2-.306.201-.356.253-.306.2-.305.251-.306.251-.306.252-.305.252-.305.301-.254.251-.256.302-.254.251-.255.301-.255.251-.407.605-.713 1.005-.662.955-.662 1.004-.662 1.007-.713 1.004-.662.956-1.324 2.01-.714 1.006-.662.955-1.324 2.01-.713 1.005-.662.955-1.324 2.011-.712 1.005-.663.956-.662 1.005-.662 1.005-.638.9-.074.106-.663.954-.663 1.006-.662 1.005-.713 1.006-.661.955-.662 1.004-.662 1.006-.713 1.006-.662.955-.662 1.005L108 57h5.353l1.908-.033.994-.016h5.807l2.902-.051h5.858l2.952-.05h5.858l2.953-.051h2.954l2.954-.049h5.907l2.954-.051h5.908l2.954-.05h5.907l2.954-.05h2.903l2.954-.052h5.857l2.903-.049h5.755l2.902-.05H201v-2.714l-.051-.956v-.905M122.482 21.59c.67-.914.825-2.385-.362-2.944L115.935 16c.028.085.06.173.094.262L90 48.431c3.3 1.564 5.92 2.675 9.251 4.262 1.187.559 1.962.457 3.201-1.166 4.383-6.58 8.789-13.138 13.188-19.703 2.284-3.408 4.567-6.818 6.842-10.235m224.045 65.848c-.156-1.416-2.305-1.436-3.527-1.437l.421 11c2.434-.068 3.42-1.446 3.579-2.873-.21-2.379-.316-4.26-.473-6.69m-74.758-60.912c-1.986-3.353-3.97-4.828-7.836-5.03-15.925-.56-29.205-.865-45.182-1.474-5.851-.357-8.599 4.013-8.751 7.52.051 8.132 0 13.822.051 21.954.101 4.929 2.442 6.555 6.308 6.504 22.134 0 41.57-.203 63.702-.203 4.326 0 6.566-1.321 3.564-7.166-4.173-7.876-7.683-14.229-11.856-22.105M300.275 20c-.95.375-1.695.641-2.664 1.03-2.436 1.112-1.623 2.883-.711 4.3 4.514 7.035 8.876 13.868 13.441 20.902 1.725 2.48 3.956 5.213 6.188 4.707 1.908-.452 3.569-.953 5.471-1.6a.798.798 0 0 0-.095-.02c-7.092-9.706-14.488-19.613-21.63-29.319M17.498 110.493a.008.008 0 0 0-.003-.005c.005.007.005.016.01.024l-.008-.019"/>
    <path fill="#FFF" d="M8.166 115.783l-.007-.054.007.053.007.049-.007-.048zm10.67.1c-.277-.957.071-2.855-.378-4.439a3.971 3.971 0 0 0-.266-.694c.113.24.2.493.266.754.362 1.443.092 3.114.276 4.072-.184-.958.086-2.629-.276-4.072a4.137 4.137 0 0 0-.275-.778l-.003-.006a.008.008 0 0 1-.002-.005l-.96-1.122c.15.105.279.214.392.326a3.25 3.25 0 0 0-.741-.58c-.55-.298-1.268-.492-2.205-.54h-.054c-.014.013-.265-3.249-.653-4.847a8.364 8.364 0 0 0-.272-.758l-.037-.136a8.666 8.666 0 0 0-.173-.551c-.4-1.12-.968-1.955-1.405-3.037l-.01-.02a8.518 8.518 0 0 1-.515-1.86 11.399 11.399 0 0 1-.127-1.912l.001-.025h-.464c-1.03-.255-2.678-1.376-2.73-2.548-.005-.18-.005-.328-.004-.453l-.004-.589a.523.523 0 0 0-.05-.16l-.004-.005c-.255-.332-.514-.676-.629-.822a13.119 13.119 0 0 1-1.401-2.207 11.23 11.23 0 0 1-.774-1.866L5.358 87c-.27.092-.515.174-.606.203L4 87.45c-.772.254-1.132 1.63-.514 2.599 1.694 2.333 3.3 4.72 4.68 7.398a38.032 38.032 0 0 1 2.343 5.568l.213.67c-1.131.544-1.955 1.393-2.556 2.381a8.96 8.96 0 0 0-.755 1.596c-.067.184-.089.6-.12.938l-.147-.003-.044.002c-1.648-4.615-5.276-2.025-5.52 1.068-.876 5.759-.721 11.262.206 16.205.198.845.486 1.5.824 1.95v13.49c.103 1.018 2.164.814 2.164 0v-13.2c.496-.464.954-1.302 1.287-2.547.207-1.07.155-2.446.207-3.617-.301.022-.569.021-.805-.001.834-.002 1.752-.015 2.703-.028 2.432-.036 5.089-.078 7.168.029 1.353.083 2.49-.947 3.124-2.332.524-1.146.705-2.533.378-3.732zM38.401 55a5.649 5.649 0 0 0-.34.017c-.938.14-1.453.558-2.061 1.371.403.953 1.633 1.556 2.681 1.612h.006c.054.002.189-.007.313-.017a9.789 9.789 0 0 1-.319-1.104 12.846 12.846 0 0 1-.28-1.879"/>
    <path fill="#FFF" d="M40.973 47c-1.17 0-2.18 1.578-2.664 3.874-.197.935-.309 1.987-.309 3.1 0 1.128.112 2.19.31 3.132.3 1.433.801 2.585 1.417 3.254.38.41.801.64 1.246.64.636 0 1.218-.437 1.7-1.187.806-1.257 1.327-3.395 1.327-5.84C44 50.123 42.672 47 40.973 47m228.971 57.247l-.966.963-.917.963-.916 1.013-.815 1.065-.816 1.063-.713 1.166-.66 1.166-.664 1.216-.56 1.217-.458 1.266-.458 1.318-.408 1.318-.305 1.368-.255 1.369-.153 1.419-.101 1.418-.051 1.42.051 1.469.101 1.419.153 1.369.255 1.419.305 1.317.408 1.369.458 1.267.458 1.267.56 1.267.663 1.215.661 1.167.713 1.114.816 1.115.815 1.065.916 1.013.917.962.966.913 1.02.912 1.068.811 1.121.76 1.12.76 1.172.66 1.222.607 1.223.557 1.323.508 1.274.456 1.324.356 1.375.354 1.375.253 1.425.153 1.426.101 1.478.05 1.426-.05 1.425-.101 1.426-.153 1.374-.253 1.375-.354 1.324-.356 1.325-.456 1.273-.508 1.222-.557 1.223-.608 1.17-.659 1.17-.76 1.073-.76 1.068-.81 1.019-.913.967-.913.967-.962.867-1.013.813-1.065.817-1.115.712-1.114.712-1.167.612-1.215.56-1.267.51-1.267.406-1.267.409-1.369.305-1.317.255-1.42.153-1.368.1-1.42.052-1.468-.051-1.42-.101-1.418-.153-1.42-.255-1.368-.305-1.368-.409-1.318-.407-1.318-.51-1.266-.56-1.217-.611-1.216-.712-1.166-.712-1.166-.817-1.063-.813-1.065-.867-1.013-.967-.963-.967-.963-1.019-.861-1.068-.862-1.072-.76-1.171-.71-1.17-.71-1.223-.608-1.222-.556-1.273-.508-1.325-.456-1.324-.355-1.375-.304-1.374-.253-1.426-.203-1.425-.101h-2.904l-1.426.1-1.425.204-1.375.253-1.375.304-1.324.355-1.274.456-1.323.508-1.223.556-1.222.608-1.171.71-1.12.71-1.122.76-1.068.862-1.02.861zm-232.727 0l-.967.963-.917.963-.916 1.013-.815 1.065-.816 1.063-.712 1.166-.662 1.166-.662 1.216-.56 1.217-.458 1.266-.459 1.318-.408 1.318-.304 1.368-.256 1.369-.153 1.419-.1 1.418-.052 1.42.051 1.469.101 1.419.153 1.369.256 1.419.304 1.317.408 1.369.459 1.267.457 1.267.561 1.267.662 1.215.662 1.167.712 1.114.816 1.115.815 1.065.916 1.013.917.962.967.913 1.019.912 1.07.811 1.12.76 1.12.76 1.17.66 1.224.607 1.222.557 1.324.508 1.273.456 1.324.356 1.375.354 1.375.253 1.426.153 1.426.101 1.477.05 1.426-.05 1.425-.101 1.426-.153 1.375-.253 1.375-.354 1.324-.356 1.325-.456 1.272-.508 1.223-.557 1.222-.608 1.171-.659 1.17-.76 1.072-.76 1.068-.81 1.019-.913.967-.913.968-.962.865-1.013.815-1.065.816-1.115.713-1.114.712-1.167.61-1.215.562-1.267.508-1.267.408-1.267.408-1.369.305-1.317.256-1.42.152-1.368.101-1.42.051-1.468-.051-1.42-.101-1.418-.152-1.42-.256-1.368-.305-1.368-.816-2.636-.508-1.266-.561-1.217-.611-1.216-1.425-2.332-.816-1.063-.815-1.065-.865-1.013-1.935-1.926-1.019-.861-1.068-.862-1.071-.76-1.17-.71-1.172-.71-1.222-.608-1.223-.556-1.272-.508-1.325-.456-1.324-.355-1.375-.304-1.375-.253-1.426-.203L57.588 97h-2.903l-1.426.1-1.426.204-1.375.253-1.375.304-1.324.355-1.273.456-1.324.508-1.222.556-1.223.608-1.171.71-1.12.71-1.12.76-1.07.862-1.019.861z"/>
    <path fill="#FFF" d="M38.102 127.253l-.102-.864v-1.779l.102-.914.101-.864.153-.862.202-.864.204-.813.305-.814.305-.811.355-.763.407-.762.406-.71.457-.711.457-.712.559-.661.508-.608.61-.611.61-.608.609-.56.66-.508.712-.508.711-.406.71-.458.763-.356.762-.354.812-.305.813-.306.813-.253.864-.152.863-.153.864-.152.914-.051h1.779l.914.051.863.152.864.153.863.152.813.253.813.306.812.305.762.354.763.356.711.458.711.406.711.508.66.508.609.56.611.608.609.611.56.608.507.661.458.712.456.711.458.71.356.762.354.763.306.811.305.814.203.813.202.864.153.862.101.864.102.914v1.779l-.102.864-.101.914-.153.863-.202.812-.203.865-.305.813-.306.762-.354.812-.356.763-.914 1.421-.458.661-.507.66-.56.66-.609.611-.611.558-.609.559-.66.508-.711.508-.711.457-.711.407-.763.406-.762.355-.812.305-.813.255-.813.254-.863.202-.864.153-.863.102-.914.051-.865.05-.914-.05-.914-.051-.864-.102-.863-.153-.864-.202-.813-.254-.813-.255-.812-.305-.762-.355-.763-.406-.71-.407-.711-.457-.712-.508-.66-.508-1.219-1.117-.61-.611-.508-.66-.559-.66-.457-.661-.457-.71-.406-.711-.407-.763-.355-.812-.305-.762-.305-.813-.204-.865-.202-.812-.153-.863-.101-.914M271.102 127.253l-.102-.864v-1.779l.102-.914.102-.864.152-.862.203-.864.203-.813.611-1.625.354-.763.408-.762.406-.71.456-.711.458-.712.559-.661.508-.608.609-.611.61-.608.609-.56.661-.508.71-.508.712-.406.711-.458.762-.356.762-.354.813-.305.812-.306.813-.253.863-.152.865-.153.863-.152.914-.051h1.778l.915.051.862.152.865.153.864.152.812.253.813.306.812.305.763.354.761.356.711.458.712.406.711.508.659.508.611.56.61.608.608.611.56.608.508.661.913 1.423.458.71.356.762.355.763.611 1.625.203.813.202.864.153.862.101.864.102.914v1.779l-.102.864-.101.914-.153.863-.202.812-.203.865-.306.813-.305.762-.355.812-.356.763-.458.711-.456.71-.457.661-.508.66-.56.66-.608.611-1.221 1.117-.659.508-.711.508-.712.457-.711.407-.761.406-.763.355-.812.305-.813.255-.812.254-.864.202-.865.153-.862.102-.915.051-.863.05-.915-.05-.914-.051-.863-.102-.865-.153-.863-.202-.813-.254-.812-.255-.813-.305-.762-.355-.762-.406-.711-.407-.712-.457-.71-.508-.661-.508-.609-.559-.61-.558-.609-.611-.508-.66-.559-.66-.458-.661-.456-.71-.406-.711-.408-.763-.354-.812-.305-.762-.306-.813-.203-.865-.203-.812-.152-.863-.102-.914M337.288 116.27c-2.653.052-3.94.154-6.57.205-5.305-.153-4.894-13.7.98-13.649 2.473-.051 3.607 0 6.027 0 .414-1.738 2.577-2.147 3.71-.434 1.032 1.61 2.32 4.983 2.32 8.87 1.082 1.635 3.144.612 3.245 4.958-1.287 0-2.575.05-3.812.05.154 1.74.154 3.732-.206 5.47.052.87-2.525 2.607-3.246 2.199-.774-.716-2.422-5.266-2.448-7.668zm-6.054-55.851a39.653 39.653 0 0 1 3.43 4.06 1.025 1.025 0 0 1 .023-.28c.208-.741 1.71-2.088 2.473-2.933.565-.664-1.186-2.658-1.753-2.198-.463.357-.72.97-1.236 1.38-.75.088-1.997.213-2.66.053a5.526 5.526 0 0 1-.277-.082zm-230.202 50.76c-.455.015-.907.034-1.354.056a63.05 63.05 0 0 0-4.383.36c-1.276.051-1.224 2.312 0 2.312 1.344.076 2.85.102 4.474.09.423-.003.854-.008 1.291-.015 4.662-.083 10.14-.425 15.472-.744 1.94-.358 2.042-1.437-.204-1.745-4.556-.26-10.143-.492-15.296-.315zm-1.713-38.06a62.455 62.455 0 0 0-4.381.36c-1.276.05-1.225 2.26 0 2.31 1.336.077 2.843.104 4.474.091.398-.003.805-.008 1.218-.015 4.67-.08 10.192-.424 15.546-.742 1.938-.36 2.04-1.44-.205-1.747-4.577-.26-10.198-.493-15.371-.311-.43.015-.857.033-1.28.054zM315.82 129.364l-.257 1.399-.309 1.4-.41 1.4-.413 1.347L314 136h37v-7h-35.13l-.05.364"/>
    <path fill="#FFF" d="M27.447 129.55l-.152-1.431-.103-1.432-.05-1.481.05-1.482.103-1.432.152-1.431.255-1.38.357-1.431.355-1.33.459-1.328.508-1.33.561-1.227.662-1.226.66-1.228.765-1.176.763-1.073.865-1.124.866-1.022.967-.972.967-.97 1.07-.87 1.069-.869 1.119-.817 1.12-.716 1.221-.715 1.222-.615 1.272-.562 1.273-.51 1.324-.46 1.373-.41 1.375-.307 1.374-.255 1.426-.153 1.477-.154h2.9l1.476.154 1.426.153 1.374.255 1.375.307 1.374.41 1.324.46 1.272.51 1.273.562 1.222.615 1.22.715 1.12.716 1.12.817 1.07.869 1.068.87.967.97.968.972.865 1.022.865 1.124.815 1.073.713 1.176.712 1.228.611 1.226.56 1.227.51 1.33.457 1.328.407 1.33.306 1.43.254 1.38.153 1.432.101 1.432.051 1.482-.05 1.481-.102 1.432-.153 1.431-.254 1.432-.306 1.38-.407 1.38-.457 1.329-.51 1.277-.56 1.28-.533 1.07 181.764-1.58-.426-.974-.56-1.278-.408-1.328-.407-1.38-.305-1.381-.255-1.38-.204-1.43-.101-1.484v-2.913l.101-1.483.204-1.43.255-1.382.305-1.38.407-1.38.408-1.328.56-1.278.56-1.278.61-1.227.714-1.176.711-1.175.815-1.126.814-1.072.916-1.073.917-.972 1.017-.97 1.02-.87 1.017-.87 1.119-.767 1.171-.766 1.171-.664 1.274-.666 1.221-.56 1.322-.512 1.324-.46 1.323-.359 1.375-.357 1.425-.204 1.427-.205 1.425-.102 1.475-.052 1.477.052 1.425.102 1.426.205 1.425.204 1.373.357 1.323.36 1.324.459 1.323.511 1.274.561 1.222.666 1.17.664 1.17.766 1.12.767 1.07.87 1.017.87 1.02.97.913.972.917 1.073.816 1.072.813 1.126.765 1.175.66 1.176.612 1.227.61 1.278.51 1.278.408 1.329.406 1.38.306 1.38.254 1.38.203 1.431.101 1.483.053 1.483-.053 1.43-.1 1.483-.154 1.073h3.616v-2.504l.915-.512c-.254-36.497-49.17-49.123-64.493-10.223-1.883 3.884-7.635 8.434-10.842 8.587l-147.514 2.76c-4.327-.05-9.417-3.27-10.69-7.974-6.718-35.475-59.3-36.343-64.747 4.243H18L24.8 141l4.938-.102.71-2.332-.506-.939-.56-1.279-.51-1.277-.458-1.328-.355-1.38-.357-1.381-.255-1.432m156.22-63.254c-5.437.488-7.148 3.175.504 3.517 3.122.245 5.79.196 9.062.147 5.74-.391 4.28-4.055-.1-3.958-3.172 0-6.142.049-9.465.294"/>
    <path stroke="#4A4A4A" stroke-width=".5" d="M294.996 12.172c-5.08-5.382-6.45-8.072-37.175-9.544-135.037-6.397-137.678 8.122-137.678 8.122l-2.49-.913 177.343 2.335zm-177.24-2.335c-.711.203-1.27 1.218-1.27 1.777.559.507 1.27.862 2.083 1.116-.204.406-.408.813-.61 1.219-1.626.05-2.235 1.015-1.626 2.589-8.48 10.661-17.165 21.575-25.646 32.236-1.066.355-1.828 1.93-1.727 3.046-.203.609-.406 1.219-.559 1.827-33.415 3.91-65.41 8.58-76.38 15.687-.355.305-.355.914-.355 1.27-2.134 0-3.15.406-3.251 2.234.05 6.75.102 13.452.153 20.204.05 1.168 1.676 2.285 2.691 2.539h.458c-.051 4.01 1.574 4.924 2.233 7.513.56 1.37.813 2.995.915 5.635 5.282.202 3.657 5.228 4.164 7.006.711 2.638-1.016 6.193-3.453 6.041-2.945-.153-5.892 0-8.837 0 2.184 4.213 3.86 7.36 9.142 8.224-1.219-2.03-2.438-4.112-3.708-6.194h11.478c5.434-40.308 57.895-39.445 64.598-4.213 1.27 4.67 6.349 7.868 10.665 7.919l147.176-2.742c3.199-.151 8.938-4.67 10.817-8.528 15.286-38.633 64.09-26.094 64.344 10.153 9.091 0 17.471-6.7 16.607-9.95-2.59.051-3.86.152-6.45.203-5.23-.152-4.824-13.605.966-13.554 2.437-.051 3.554 0 5.94 0 .408-1.727 2.54-2.132 3.708-.406.508-.152 1.017-.254 1.473-.356v-5.229c2.386-.05 3.351-1.472 3.505-2.944-.204-2.437-.306-4.365-.457-6.853-.153-1.473-2.286-1.473-3.454-1.473-.253-1.116-2.235-1.269-3.098-.914-.101-2.284 1.88-1.878 2.235-2.842-1.88-11.067-6.958-19.749-17.521-27.262 0-.913-.61-1.878-1.118-2.335-.202-1.117-.812-2.589-1.777-2.742-7.109-9.746-14.524-19.697-21.684-29.444.253-1.574-.712-3.147-1.981-3.4-.508-.61-1.016-1.219-1.473-1.829.608-.456 1.625-.963 1.878-1.471-.355-.864-.862-1.524-1.675-2.082-.407-.101-1.524.507-2.134.76L117.756 9.838zM8.365 73.142c-4.368 4.569-4.673 13.402.203 18.682l-.203-18.682zm210.757-52.949c-5.84-.355-8.582 4.01-8.734 7.513.05 8.123 0 13.81.05 21.931.102 4.925 2.438 6.549 6.297 6.498 22.093 0 41.492-.204 63.583-.204 4.317 0 6.552-1.318 3.555-7.157-4.163-7.869-7.668-14.214-11.833-22.083-1.981-3.35-3.96-4.823-7.82-5.025-15.896-.56-29.15-.864-45.098-1.473zm-15.286 38.734c-.152-11.219-.254-21.728-.406-32.947 0-4.569-3.605-8.529-8.837-8.427-18.638.203-35.854.406-54.441.66-4.977 0-9.446 3.097-11.884 6.549a13857.11 13857.11 0 0 0-23.36 34.826c32.958-.204 65.969-.407 98.928-.661zm-2.184-1.523v-.354h.102v.05h.05v.253h-.05l-.05.051h-.052zm-.202-.203h.354l-.152.203h-2.844l-2.894.051h-5.739l-2.894.05h-5.841l-2.895.052h-5.892l-2.944.05h-2.945l-2.947.05h-5.89l-2.946.052h-5.891l-2.946.05h-5.89l-2.895.051h-2.946l-2.945.051h-5.84l-2.895.05h-5.79l-2.844.052h-5.739v-.355h5.688l2.895-.051h5.79l2.894-.051h5.841l2.945-.051h5.84l2.946-.05h2.945l2.946-.052h5.89l2.946-.05h5.891l2.947-.05h5.89l2.946-.052h2.894l2.946-.05h5.84l2.895-.051h5.74l2.893-.05h2.844l-.202.151zm-93.242.508l.305.202h-.051v.052h-.204l-.05-.052v-.05h-.05v-.101h.05v-.051zm.152-.101v.355l-.152-.254.66-1.016.66-.964.712-1.015.659-1.016.66-1.014.661-.965.712-1.015 1.319-2.032.66-.964.711-1.015 1.32-2.03.66-.965.712-1.016 1.32-2.03.66-.965.712-1.015 1.32-2.031.66-.964.712-1.016 1.32-2.03.66-.965.711-1.015 1.32-2.031.66-.965.711-1.015.661-1.016.305.204-.711 1.016-.66.964-1.32 2.03-.712 1.015-.66.966-1.32 2.03-.712 1.015-.66.965-1.32 2.03-.711 1.015-.66.965-1.321 2.03-.71 1.016-.661.965-1.32 2.03-.711 1.016-.66.964-.661 1.016-.66 1.015-.712 1.015-.659.965-1.32 2.03-.711 1.015-.66.966-.66 1.015-.661 1.014-.153-.303zm21.381-31.984l.305.204h-.051v.051h-.254v-.102h-.05v-.102h.05v-.05zm.305.204l-.305-.204.203-.304.254-.305.253-.304.204-.254.305-.304.253-.305.255-.254.304-.305.304-.253.306-.254.305-.255.355-.252.304-.255.356-.202.355-.254.356-.204.71-.406.356-.203.407-.153.355-.202.407-.152.405-.102.407-.153.406-.1.407-.102.405-.102.458-.051.406-.05.407-.05.456-.052h.407v.356h-.407l-.405.05h-.407l-.406.101-.407.051-.405.102-.407.102-.406.1-.407.103-.355.151-.407.153-.354.152-.407.153-.355.202-.356.204-.356.204-.355.202-.305.203-.355.254-.305.202-.61.509-.305.253-.303.255-.305.304-.254.254-.255.304-.253.254-.254.305-.255.254-.202.304-.203.305zm10.766-6.346v.356h-.051v-.051h-.05v-.051h-.052v-.152h.052v-.05h.05v-.052h.05zm0 .356v-.356h1.625l1.625-.05h3.25l1.625-.052h3.251l1.625-.05h1.675l1.626-.05h3.25l1.676-.051h3.301l1.625-.051h3.301l1.625-.051h1.676l1.625-.051h3.301l1.625-.051h3.25l1.626-.05h3.25l1.626-.05h3.25v.304l-1.625.05h-1.625l-1.626.05h-3.25l-1.625.051h-3.25l-1.626.051h-3.3l-1.626.051h-3.3l-1.626.051h-1.676l-1.625.051h-3.3l-1.626.05h-3.3l-1.627.05h-3.3l-1.625.052h-1.626l-1.625.05h-3.25l-1.625.052h-1.625zm52.309-.914v.305h-.153v-.102h-.05v-.102h.05v-.1h.153zm0 .305v-.305h.863l.457.051.457.05.406.102.407.102.406.1.356.153.405.152.356.204.355.151.305.204.356.254.305.253.305.254.507.508.254.305.254.304.203.305.203.355.204.305.203.355.151.355.102.356.153.355.102.406.1.356.103.812v.406l.05.407h-.355v-.407l-.05-.406-.103-.711-.102-.355-.1-.406-.102-.305-.152-.356-.153-.354-.152-.305-.153-.355-.202-.305-.255-.304-.203-.306-.253-.253-.254-.254-.255-.254-.304-.254-.254-.254-.356-.202-.304-.204-.305-.152-.356-.202-.355-.153-.407-.102-.355-.152-.406-.102-.406-.05-.407-.052-.406-.05-.457-.05h-.406zm8.329 7.615h-.356v-.153h.05l.052-.051h.152v.05h.05v.052l.052.05v.052zm-.356 0h.356v2.893l.05.964v2.843l.052.964v2.793l.05.964v3.757l.05.914v2.843l.051.964v2.793l.051.964v2.843l.05.965v2.893h-.354v-2.893l-.051-.965V50.5l-.051-.964v-3.757l-.051-.914v-2.843l-.051-.914v-2.843l-.05-.964v-2.793l-.052-.964V30.7l-.05-.964v-2.893z"/>
    <path stroke="#4A4A4A" stroke-width=".5" d="M215.627 58.663c23.066-.254 45.315-.663 68.33-.917 3.258-.103 5.906-4.541 3.665-8.52-4.734-8.722-8.502-15.914-13.187-24.636-2.647-4.03-4.99-6.07-10.59-6.326-15.733-.561-28.972-1.122-44.704-1.632-6.416-.408-12.373 4.437-12.373 10.1.203 8.773.459 16.17.662 24.892.051 3.775 3.004 6.988 8.197 7.04zM21.18 123.65c4.939-43.307 59.928-40.551 67.667-8.161 2.546 8.774 5.753 9.896 13.289 10.1 46.538-.765 93.024-1.48 139.562-2.245 8.197 0 13.34-7.703 14.613-10.456 13.646-34.942 65.375-28.77 67.107 13.16l-302.238-2.398zm54.174-27.085l54.48-81.82-54.48 81.82zm56.16-81.718l-54.53 82.84 54.53-82.84zM96.79 64.326c-4.633-.153-6.924-2.959-10.438-4.439-1.476-.51-2.545-.458-4.072-.612-2.648-1.326-6.009-2.652-6.06-4.744l20.57 9.795zM14 67.437c26.17-5.764 47.352-5.304 70.773-7.907L14 67.437zm76.271-19.23c3.361 1.631 5.754 2.652 9.115 4.285 1.17.56 1.935.458 3.157-1.174 6.567-10.05 13.187-20.047 19.755-30.095.662-.92.814-2.398-.356-2.959l-6.06-2.653-25.61 32.596zM88.49 51.42c3.055 1.173 6.11 2.398 9.165 3.57 2.036.664 4.124 0 5.651-2.243 6.824-10.304 13.595-20.557 20.418-30.862 1.222-1.836 3.054-5.355.968-6.12l-7.078-2.602L88.49 51.42zm29.633-39.328c4.226 1.53 10.03 2.856 17.871 2.908 46.742.101 92.821-.205 138.696 1.682 7.84 14.385 15.123 27.444 23.319 41.064.459 1.835 1.58 3.162 2.7 4.488 12.32 13.773 23.064 26.933 25.457 50.193h-5.396L118.123 12.092zm159.267 5.253c7.84 14.437 15.375 27.852 23.623 41.47.409 1.838 1.58 3.164 2.649 4.49 12.322 13.773 21.945 27.34 24.338 50.6h-6.67l-43.94-96.56zm19.5-3.06c-3.564 1.99-12.984 3.367-21.844 3.112-.458-.765-.712-1.735-.865-2.754 8.453 0 15.173-.817 20.876-3.214l1.832 2.857zM119.65 10c15.784 5.764 71.64 1.48 154.684 4.643L119.65 10zm178.564 6.122c-1.222.56-2.445 1.071-3.668 1.58-2.29 1.327-2.29 3.622-1.22 5.254 5.447 8.52 10.691 16.732 16.14 25.199 1.934 2.96 4.734 6.326 7.434 5.713 2.29-.612 4.634-1.173 6.924-1.785l-25.61-35.961zm1.934 3.57c-1.018.408-1.578.612-2.597 1.02-2.444 1.123-1.629 2.908-.712 4.336 4.532 7.09 8.91 13.977 13.492 21.067 1.732 2.5 3.972 5.254 6.212 4.744 1.935-.459 3.616-.97 5.55-1.633l-21.945-29.534zM55.954 96.921v.357h-1.476l-1.426.101-1.425.205-1.375.255-1.375.306-1.324.357-1.273.46-1.324.509-1.221.56-1.223.613-1.17.715-1.121.713-1.12.766-1.07.867-1.017.867-.968.97-.916.968-.916 1.02-.815 1.072-.816 1.07-.712 1.174-.661 1.173-.662 1.224-.561 1.225-.458 1.275-.458 1.326-.408 1.326-.304 1.378-.256 1.377-.153 1.429-.101 1.427-.051 1.429h-.357l.05-1.479.104-1.429.152-1.428.254-1.378.358-1.427.355-1.327.459-1.327.508-1.325.561-1.225.662-1.224.661-1.224.765-1.173.763-1.072.865-1.121.867-1.02.967-.97.967-.97 2.14-1.733 1.119-.817 1.12-.713 1.222-.714 1.222-.613 1.272-.561 1.274-.51 1.324-.46 1.374-.408 1.375-.306 1.374-.254 1.426-.153 1.477-.153h1.476zm-28.513 28.514h.357l.051 1.478.101 1.429.153 1.377.256 1.429.304 1.326.408 1.378.458 1.274.458 1.276.56 1.275.663 1.224.661 1.174.712 1.121.816 1.123.815 1.071.916 1.02.916.968.968.92 1.018.917 1.07.817 1.119.764 1.12.766 1.171.663 1.223.612 1.221.56 1.324.511 1.273.46 1.324.357 1.375.357 1.375.255 1.425.153 1.426.103 1.476.049V154l-1.476-.051-1.477-.102-1.426-.205-1.374-.255-1.375-.305-1.374-.357-1.324-.46-1.274-.51-1.272-.56-1.222-.664-1.222-.662-1.12-.766-1.12-.765-1.07-.867-1.069-.919-.967-.917-.967-1.021-.867-1.02-.865-1.072-.763-1.121-.765-1.174-.66-1.173-.663-1.224-.56-1.276-.51-1.274-.458-1.327-.355-1.377-.358-1.378-.254-1.427-.152-1.429-.104-1.429-.05-1.478zM55.954 154v-.358l1.426-.05 1.425-.102 1.426-.153 1.375-.255 1.375-.357 1.324-.357 1.324-.46 1.272-.51 1.223-.561 1.222-.612 1.17-.663 1.171-.766 1.07-.764 1.069-.817 1.018-.918.968-.919.967-.968.865-1.02.815-1.071.815-1.123.713-1.121.712-1.174.611-1.224.56-1.275.51-1.276.407-1.274.408-1.378.305-1.326.256-1.429.152-1.377.1-1.429.052-1.478h.356l-.05 1.478-.102 1.429-.153 1.429-.254 1.427-.307 1.378-.406 1.377-.458 1.327-.51 1.274-.56 1.276-.611 1.224-1.425 2.347-.815 1.121-.865 1.072-.866 1.02-.968 1.021-.967.917-1.069.92-1.07.866-2.24 1.53-1.222.663-1.222.664-1.272.56-1.273.51-1.325.46-1.374.357-1.375.305-1.375.255-1.426.205-1.476.102-1.426.051zm28.462-28.565h-.356l-.051-1.429-.101-1.427-.152-1.429-.256-1.377-.305-1.378-.815-2.652-.51-1.275-.56-1.225-.61-1.224-1.426-2.347-.815-1.07-.815-1.071-.865-1.02-1.935-1.939-1.018-.867-1.069-.867-1.07-.766-1.17-.713-1.171-.715-1.222-.612-1.223-.561-1.272-.51-1.324-.46-1.324-.356-1.375-.306-1.375-.255-1.426-.205-1.425-.101h-1.426v-.357h1.426l1.476.153 1.426.153 1.375.254 1.375.306 1.374.409 1.325.46 1.273.509 1.272.56 1.222.614 1.222.714 1.12.713 1.12.817 1.07.867 1.069.866.967.97.968.97.866 1.02.865 1.121.815 1.072.713 1.173.712 1.224.612 1.224.56 1.225.51 1.325.457 1.327.406 1.327.307 1.427.254 1.378.153 1.428.101 1.429.051 1.479z"/>
    <path stroke="#4A4A4A" stroke-width=".5" d="M55.525 108v.306l-.914.05-.863.052-.864.1-.863.153-.813.203-.813.254-.813.255-.762.304-.761.356-.712.356-.762.405-.66.458-.712.457-.61.508-.66.558-.558.559-.61.61-.508.61-.508.66-.508.66-.407.712-.457.711-.355.761-.356.762-.304.763-.255.812-.253.813-.204.812-.102.865-.151.863-.051.863v.864H38v-.864l.102-.914.1-.863.154-.865.202-.863.204-.812.61-1.625.355-.763.407-.762.406-.711.457-.712.457-.71.56-.661.507-.609 1.22-1.22.609-.558.66-.508.712-.508.711-.406.71-.458.763-.356.762-.354.812-.306.813-.305.813-.253.864-.153.863-.152.864-.152.914-.052h.914zM38 125.475h.356v.914l.05.863.152.864.102.813.204.864.253.812.255.762.304.813.356.762.355.712.457.76.407.662.508.66.508.66.508.61.61.61.558.558.66.56.61.507.712.507.66.408.762.406.712.406.76.355.763.305.813.254.813.255.813.152.863.153.864.1.863.102h.914V143l-.914-.051-.914-.05-.864-.102-.863-.153-.864-.202-.813-.254-.813-.255-.812-.305-.762-.355-.763-.407-.71-.406-.711-.457-.712-.509-.66-.507-.61-.559-.609-.559-.61-.61-.508-.66-.56-.66-.456-.66-.457-.71-.406-.712-.407-.762-.355-.813-.305-.762-.305-.813-.204-.863-.202-.813-.153-.864-.101-.915-.102-.863v-.914zM55.525 143v-.356h.865l.863-.102.863-.1.864-.153.812-.152.814-.255.812-.254.762-.305.762-.355.762-.406.711-.406.711-.408 1.321-1.015.61-.56.61-.557.559-.61.507-.61.508-.66.508-.66.458-.662.405-.76.356-.712.356-.762.304-.813.255-.762.254-.812.203-.864.152-.813.101-.864.051-.863.051-.914H73v.914l-.102.863-.1.915-.154.864-.202.813-.203.863-.305.813-.306.762-.354.813-.356.762-.458.711-.456.712-.458.659-.508.66-.559.66-.61.61-1.219 1.118-.66.507-.71.509-.712.457-.711.406-.763.407-.762.355-.812.305-.813.255-.813.254-.863.202-.864.153-.863.102-.914.05-.865.051zM73 125.475h-.305l-.102-1.727-.1-.863-.153-.865-.203-.812-.254-.813-.255-.812-.304-.763-.356-.762-.356-.761-.405-.711-.458-.712-.508-.66-.508-.66-.507-.61-.559-.61-.61-.559-.61-.558-.66-.508-.66-.457-.712-.458-.711-.405-.762-.356-.762-.356-.762-.304-.812-.255-.814-.254-.812-.203-.864-.152-.863-.101-.863-.052-.865-.05V108h.865l.914.052.863.152.864.152.863.153.813.253.813.305.812.306.762.354.763.356.711.458.711.406.71.508.661.508.61.559.61.609.61.61.558.609.508.661.458.71.456.712.458.711.356.762.354.763.306.812.305.813.203.812.202.863.153.865.101.863.102.914v.864z"/>
    <path stroke="#4A4A4A" stroke-width=".5" d="M55.525 113v.3l-.651.05-.601.05-.602.05-.6.1-.601.15-.602.15-.551.201-.55.25-.553.2-.5.302-.5.3-.502.301-.502.351-.45.35-.451.402-.401.4-.401.401-.4.451-.351.45-.35.502-.301.45-.3.552-.251.5-.251.552-.25.55-.15.552-.201.601-.1.551-.201 1.203-.05.652v.6H43v-.65l.05-.602.1-.65.101-.602.15-.602.15-.601.202-.601.2-.551.25-.552.3-.55.301-.501.3-.502.351-.5.401-.5.401-.452.4-.401.452-.452.45-.35.451-.4.5-.351.502-.3.551-.302.502-.3.55-.251.601-.2.552-.2.601-.201.601-.1.652-.15.6-.05.652-.05h.651zM43 125.475h.35v.651l.051.601.201 1.202.1.603.2.55.15.601.25.551.252.551.25.502.3.5.301.502.35.501.352.45.4.452.4.4.402.402.451.4.45.35.502.352.501.3.5.3.501.251.552.251.55.2.552.2.602.15.6.152.6.1.603.1.6.05h.652v.35h-.651l-.651-.05-.601-.1-.652-.1-1.202-.3-.552-.202-.6-.25-.551-.25-.502-.25-.55-.301-.502-.35-.5-.352-.452-.35-.45-.402-.452-.4-.4-.451-.4-.451-.402-.45-.35-.502-.3-.5-.301-.552-.3-.501-.251-.601-.2-.551-.201-.552-.151-.601-.15-.601-.1-.651-.1-.601-.051-.652v-.651zM55.525 138v-.35h.601l.602-.05.65-.1.602-.1.551-.152.601-.15.552-.2.55-.2.552-.251.5-.25.502-.3.5-.301.5-.351.452-.35.451-.401.401-.402.4-.4.402-.451.35-.45.35-.502.301-.502.3-.5.252-.502.5-1.102.15-.6.201-.551.101-.603.15-.6.1-1.203v-.651H68v.651l-.05.652-.1.6-.1.652-.302 1.202-.2.552-.2.55-.251.602-.3.501-.301.551-.3.5-.351.502-1.202 1.353-.401.4-.501.402-.451.35-.5.352-.502.35-.5.3-.552.252-.551.25-.601.25-.551.201-1.202.3-.602.1-.652.1-.65.05h-.602zM68 125.475h-.35v-.601l-.051-.652-.05-.602-.15-.6-.1-.552-.202-.6-.15-.552-.5-1.102-.251-.5-.3-.552-.301-.45-.35-.502-.35-.45-.403-.452-.4-.401-.4-.4-.452-.401-.451-.35-.5-.352-.501-.3-.502-.3-.5-.302-.551-.2-.55-.25-.553-.202-.6-.15-.552-.15-.602-.1-.65-.05-.602-.05-.6-.05v-.3h.6l.651.05.652.05.602.15.6.1.602.2.55.2.602.2.551.251.551.3.5.302.502.3.5.352.452.4.5.35.402.452.4.4.402.452.4.5.35.501.3.502.301.5.3.551.252.552.2.55.2.602.302 1.203.1.601.1.651.05.602v.65z"/>
    <path stroke="#4A4A4A" stroke-width=".5" d="M56.025 136C62.038 136 67 131.04 67 124.975 67 118.911 62.038 114 56.025 114 49.962 114 45 118.911 45 124.975 45 131.04 49.962 136 56.025 136zm0-18.793v.302l-.401.05h-.401l-.351.05-.35.05-.401.1-.351.1-.35.101-.301.15-.351.15-.301.15-.35.2-.301.202-.25.2-.301.2-.252.251-.3.25-.25.25-.2.301-.251.252-.201.3-.2.3-.151.301-.2.351-.151.3-.1.352-.15.35-.1.35-.051.351-.1.402v.35l-.05.401v.351h-.35v-.4l.05-.402.05-.35.05-.4.1-.402.2-.702.15-.35.151-.351.2-.351.15-.301.201-.35.25-.301.202-.301.25-.25.25-.301.3-.25.302-.252.25-.25.35-.2.301-.201.302-.2.35-.15.352-.15.35-.152.35-.1.402-.15.35-.05.402-.1.4-.05h.802zm-7.818 7.768h.351v.401l.05.35v.402l.1.351.05.35.1.401.15.301.101.35.15.352.2.3.152.3.2.301.2.302.251.3.2.251.25.25.301.25.252.252.3.25.25.2.301.2.351.151.3.151.352.15.3.15.351.1.35.1.402.101.35.05.35.05.402.05h.401v.35h-.401l-.401-.05-.4-.05-.401-.05-.351-.1-.401-.1-.351-.1-.35-.151-.351-.15-.351-.2-.302-.2-.3-.201-.351-.2-.25-.25-.301-.202-.551-.55-.25-.302-.201-.3-.25-.3-.202-.302-.15-.3-.2-.352-.15-.35-.15-.35-.1-.351-.101-.401-.1-.351-.15-1.203v-.4zm7.818 7.818v-.35h.351l.401-.05.351-.051.4-.05.351-.101.351-.1.35-.1.352-.15.3-.15.351-.15.3-.152.302-.2.3-.2.251-.25.301-.251.5-.501.202-.251.25-.3.2-.302.2-.3.151-.3.2-.301.151-.351.1-.351.151-.3.1-.402.05-.35.1-.35.05-.403v-.75h.35v.8l-.05.402-.099.4-.1.352-.101.4-.1.352-.15.35-.15.35-.151.351-.2.301-.201.302-.25.3-.202.3-.25.301-.55.551-.251.201-.3.25-.301.2-.351.202-.301.2-.35.2-.352.15-.35.15-.352.101-.4.1-.352.1-.4.05-.4.05-.352.05h-.4zm7.768-7.818h-.351v-.752l-.05-.35-.1-.402-.05-.35-.1-.35-.15-.351-.101-.351-.15-.3-.2-.352-.152-.3-.2-.302-.2-.3-.25-.25-.201-.301-.501-.501-.3-.25-.252-.201-.3-.2-.301-.201-.3-.2-.352-.15-.3-.151-.351-.15-.351-.101-.35-.1-.352-.1-.4-.05-.35-.05h-.402l-.35-.05v-.302h.751l.401.051.4.1.351.05.401.15.351.1.702.302.351.15.3.2.352.201.3.2.3.25.251.252.3.25.251.3.25.251.201.3.25.301.202.351.2.3.15.352.15.35.151.351.1.351.1.351.101.401.1.401.05.35v.802zM288.448 97v.358l-1.427.05-1.428.102-1.428.152-1.376.256-1.377.304-1.325.409-1.325.458-1.275.459-2.447 1.222-1.173.662-1.173.712-1.12.816-.97.815-1.02.917-1.019.916-.917.968-.867 1.019-.867 1.07-1.53 2.242-.663 1.171-.612 1.222-.56 1.274-.51 1.274-.459 1.273-.357 1.375-.306 1.325-.254 1.375-.205 1.426-.101 1.426-.051 1.477H260v-1.477l.101-1.477.205-1.426.255-1.375.305-1.376.408-1.375.409-1.325 1.12-2.546.613-1.223.714-1.171.713-1.172.816-1.12.815-1.07.918-1.07.918-.968 1.02-.968 1.02-.865 1.02-.867 1.12-.763 1.174-.765 1.172-.662 1.274-.662 1.225-.56 1.324-.51 1.327-.458 1.325-.356 1.377-.357 1.427-.203 1.429-.205 1.425-.1 1.48-.053zM260 125.525h.306l.051 1.427.101 1.426.205 1.426.254 1.375.306 1.376.357 1.325.46 1.323.509 1.274.56 1.223.612 1.222.663 1.172.765 1.171.765 1.07.867 1.07.867 1.018.917.969 1.02.966 1.018.867.97.814 1.121.817 1.173.712 1.173.713 1.224.61 1.223.562 1.275.51 1.325.406 1.325.408 1.377.305 1.376.256 1.428.152 1.428.153h1.427V154l-1.479-.051-1.425-.103-1.43-.152-1.426-.255-1.377-.307-1.325-.406-1.327-.46-1.324-.508-1.225-.56-1.274-.612-1.172-.711-1.173-.714-1.121-.816-1.02-.866-1.02-.864-1.02-.969-.918-.968-.918-1.02-1.631-2.24-.713-1.12-.714-1.224-.612-1.22-1.121-2.548-.409-1.326-.408-1.374-.305-1.376-.255-1.374-.205-1.427-.101-1.477v-1.427zM288.448 154v-.357h1.48l1.426-.153 1.376-.152 1.379-.256 1.375-.305 1.326-.408 1.324-.407 1.277-.509 1.273-.562 1.172-.61 1.225-.713 1.122-.712 1.12-.817 1.072-.814 1.02-.867.968-.966.917-.97.919-1.017.815-1.07.764-1.07.765-1.17.664-1.173.612-1.222.56-1.223.51-1.274.46-1.323.356-1.325.305-1.376.255-1.375.205-1.426.1-1.426.052-1.427H317l-.052 1.427-.102 1.477-.204 1.427-.255 1.374-.305 1.376-.409 1.374-.408 1.326-.509 1.273-.612 1.274-.611 1.221-.664 1.223-.764 1.12-1.632 2.241-.918 1.02-.916.968-1.021.969-1.019.864-1.072.866-1.12.816-1.174.714-1.172.71-1.224.613-1.274.56-1.325.509-1.327.459-1.325.406-1.376.307-1.428.255-1.428.152-1.426.103-1.48.051zM317 125.525h-.358l-.051-1.477-.101-1.426-.205-1.426-.255-1.375-.305-1.325-.356-1.375-.46-1.273-.51-1.274-.56-1.274-.612-1.222-.664-1.171-.765-1.121-.764-1.121-.815-1.07-.919-1.019-.917-.968-.969-.916-1.02-.917-1.07-.815-1.121-.816-1.122-.712-1.225-.662-1.172-.611-1.273-.611-1.277-.46-1.324-.457-1.326-.409-1.375-.304-1.38-.256-1.375-.152-1.426-.102-1.48-.05V97l1.48.052 1.426.101 1.428.205 1.428.203 1.376.357 1.325.356 1.327.458 1.325.51 1.274.56 1.224.662 1.172.662 1.173.765 1.121.763 1.072.867 1.019.865 1.02.968.917.968.918 1.07.816 1.07.816 1.12.764 1.172.664 1.17.611 1.224.612 1.273.51 1.273.407 1.325.409 1.375.305 1.376.255 1.375.204 1.426.102 1.477.052 1.477zM288.5 108v.356h-.862l-.863.05-.862.152-.862.153-.813.153-.81.254-.81.254-.763.305-.761.356-.761.355-.709.457-.71.407-.66.507-.66.508-.608.508-1.168 1.17-.557.66-.507.609-.457.71-.456.662-.407.76-.405.712-.608 1.524-.305.813-.203.813-.203.863-.151.813-.103.864-.05.863-.052.914H271l.102-1.828.1-.863.152-.865.205-.812.252-.864.253-.812.357-.813.304-.763.406-.76.406-.712.456-.712.507-.71.507-.661.558-.61.559-.609.608-.558 1.318-1.118.66-.458.71-.456 1.522-.814.761-.355.812-.305.81-.305.812-.204.863-.202.861-.153.864-.101.862-.102h.913zM271 125.525h.354l.052.864.05.863.103.864.151.864.203.812.203.813.305.812.608 1.525.405.761.407.711.456.712.457.66.507.66.557.61.56.61.608.559.608.508.66.508.66.507.71.458.709.405.76.357.762.355.762.305.811.254.81.254.813.204.862.151.862.102.863.051.862.05V143h-.913l-.862-.052-.864-.152-.86-.152-.864-.203-.812-.203-.81-.305-.812-.305-1.522-.711-.761-.458-.71-.456-.66-.458-.658-.508-.66-.558-.608-.61-.559-.61-.558-.609-.507-.661-.507-.71-.456-.712-.406-.71-.406-.762-.304-.763-.357-.812-.505-1.626-.205-.863-.151-.865-.101-.863-.051-.914-.051-.864zM288.5 143v-.306l.862-.05.914-.05.863-.103.81-.151.863-.204.812-.254.759-.254.813-.305.761-.355.71-.357.71-.405.71-.458.658-.507.662-.508.608-.508.608-.559.559-.61.556-.61.509-.66.456-.66.456-.712.407-.711.405-.761.304-.762.356-.763.253-.812.203-.813.203-.812.151-.864.103-.864.102-.863v-.864H306l-.05.864-.052.914-.1.863-.152.865-.205.863-.253.812-.252.814-.305.812-.356.763-.406.762-.405.71-.456.712-.509.71-.506.661-1.116 1.219-.608.61-.66.558-.66.508-.66.458-.709.456-.761.458-.71.356-.812.355-.76.305-.813.305-.861.203-.812.203-.862.152-.913.152-.862.052h-.914zm17.5-17.475h-.354v-.914l-.102-.863-.103-.864-.151-.813-.203-.863-.203-.813-.253-.813-.356-.762-.304-.762-.405-.711-.407-.761-.456-.662-.456-.71-.509-.61-.556-.66-.56-.56-.607-.609-.608-.508-.662-.508-.658-.507-.71-.407-.71-.457-.71-.355-.761-.356-.813-.305-.76-.254-.811-.254-.862-.153-.811-.153-.863-.151-.914-.051h-.862V108h.914l.862.102.913.1.862.154.812.202.861.204.813.305.76.305.813.355.709.407.761.407.71.456.66.458.658.558.66.56.61.558 1.115 1.219.506.66.51.711.455.712.405.711.406.761.356.763.305.813.252.812.253.864.205.812.151.865.101.863.102 1.828z"/>
    <path stroke="#4A4A4A" stroke-width=".5" d="M288.5 113v.35h-.599l-.652.05-.599.1-.6.101-.6.1-1.1.402-.55.2-.55.25-.549.25-1 .601-.451.351-.45.35-.45.402-.45.4-.4.4-.7.903-.35.501-.35.502-.25.5-.3.502-.25.55-.2.551-.2.552-.3 1.202-.1.601-.1 1.202-.049.652H276l.051-.652.05-.65.048-.602.102-.65.15-.602.199-.601.15-.551.251-.602.25-.551.249-.5.35-.552.302-.501.349-.502.35-.45.399-.451.4-.451.45-.4.45-.401.5-.402.45-.3.55-.35.5-.301.55-.25.55-.301.55-.2.6-.201.6-.151.6-.15.6-.1.65-.1.6-.05h.65zM276 125.525h.351l.05.6.05.603.05.651.099.601.15.55.15.602.2.552.2.55.25.551.3.502.25.55.35.451.35.502.35.45.35.451.4.401.45.4.45.402.45.35.45.352.5.3.501.3.549.301.55.2.55.252.55.2.55.15.6.15.6.1.6.051.651.05h.599v.35h-.65l-.6-.05-.65-.05-.6-.15-.6-.1-.6-.202-.6-.2-.55-.2-.55-.251-.55-.3-.5-.3-.55-.302-.45-.35-.5-.4-.45-.402-.45-.4-.4-.4-.4-.502-.35-.45-.348-.502-.301-.502-.351-.5-.248-.55-.251-.553-.25-.6-.151-.552-.2-.6-.15-.602-.1-.602-.099-1.302-.051-.601zM288.5 138v-.35h.65l.6-.05.6-.051.6-.1.6-.15.55-.15.599-.2.55-.252.501-.2.549-.3.501-.302.5-.3.45-.351.5-.35.4-.402.45-.4.4-.4.35-.451.4-.451.3-.502.35-.45.3-.551.25-.502.25-.55.2-.551.2-.552.15-.601.15-.55.1-.602.1-.651.049-.602v-.601H301v.6l-.05.652-.1.651-.1.602-.15.601-.15.601-.2.552-.251.6-.25.552-.249.55-.3.501-.35.502-.35.502-.35.45-.4.501-.4.4-.45.401-.45.401-.45.402-.5.35-.5.3-.55.301-.55.3-.55.251-.55.2-.6.2-.6.202-.6.1-.6.15-.6.05-.65.05h-.65zm12.5-12.475h-.351v-.652l-.048-.6-.102-.602-.099-.6-.15-.602-.15-.601-.2-.552-.2-.55-.25-.551-.25-.502-.3-.5-.35-.502-.3-.5-.4-.452-.35-.451-.4-.4-.45-.401-.4-.401-.5-.351-.45-.35-.5-.301-.501-.3-.549-.251-.5-.25-.551-.2-.6-.201-.549-.201-.6-.1-.6-.1-.6-.101-.6-.05h-.65V113h.65l.65.05.6.1.6.1.6.15.6.15.6.202.55.2.55.3.55.25.55.301.5.35.5.301.45.402.9.8.4.452.4.451.35.45.35.502.35.5.3.552.25.5.249.552.25.602.2.55.152.602.148.602.102.65.099.602.05.65v.652z"/>
    <path stroke="#4A4A4A" stroke-width=".5" d="M288 136c6.077 0 11-4.962 11-10.975 0-6.064-4.923-11.025-11-11.025s-11 4.961-11 11.025c0 6.013 4.923 10.975 11 10.975zm0-18.792v.35h-.401l-.352.05-.402.05-.352.05-.351.051-.352.15-.352.1-.351.151-.302.1-.35.2-.303.15-.3.2-.301.202-.302.25-.251.2-.252.251-.251.301-.251.25-.202.3-.201.251-.2.302-.201.35-.15.3-.152.351-.15.3-.201.703-.101.4-.05.352-.049.35-.051.401v.4h-.353l.052-.4v-.4l.05-.402.1-.4.05-.352.1-.4.301-.702.152-.35.15-.351.202-.301.2-.3.202-.351.25-.25.252-.302.25-.3.252-.251.301-.25.301-.2.302-.252.302-.2.35-.15.352-.2.302-.15.403-.152.35-.1.353-.1.401-.1.352-.05.402-.05.402-.05H288zm-7.837 7.817h.353v.35l.051.402.049.35.05.402.302 1.052.15.351.152.3.15.35.201.301.2.302.201.3.202.25.25.301.504.502.25.2.303.25.3.201.301.2.303.15.35.201.302.151.351.1.352.15.352.1.351.05.352.1.402.05H288v.352h-.803l-.402-.05-.352-.1-.401-.101-.353-.1-.35-.1-.403-.151-.302-.15-.351-.15-.351-.2-.302-.202-.302-.25-.301-.201-.301-.25-.251-.25-.251-.302-.252-.25-.25-.3-.202-.301-.2-.351-.202-.3-.15-.352-.152-.35-.3-.702-.1-.35-.051-.401-.1-.401-.05-.351v-.401l-.052-.401zm7.837 7.768v-.352h.754l.402-.05.35-.1.352-.05.352-.1.352-.15.351-.1.352-.15.301-.202.302-.15.3-.2.302-.2.301-.251.252-.2.251-.251.252-.25.251-.301.2-.25.201-.301.2-.302.202-.3.15-.35.152-.3.15-.352.302-1.052.05-.402.05-.35.05-.401v-.351h.353v.4l-.052.402-.049.35-.05.402-.101.401-.1.35-.151.35-.1.352-.202.35-.15.351-.201.301-.2.35-.203.301-.25.301-.25.25-.252.302-.252.25-.301.25-.302.202-.3.249-.303.201-.35.201-.302.15-.352.15-.351.15-.402.1-.353.1-.401.101-.352.1-.402.05H288zm7.837-7.768h-.353v-.4l-.05-.402-.05-.35-.05-.351-.1-.401-.202-.702-.15-.3-.152-.352-.15-.3-.201-.35-.2-.302-.201-.25-.2-.3-.252-.251-.252-.3-.25-.252-.253-.2-.3-.25-.302-.201-.301-.2-.302-.15-.301-.201-.352-.1-.351-.15-.352-.101-.352-.15-.351-.05-.351-.05-.402-.05-.352-.051H288v-.35h.402l.401.05.402.05.352.05.401.1.353.1.402.1.351.151.352.15.301.201.351.15.302.2.3.251.303.2.301.25.252.251.251.3.251.302.25.25.202.351.402.602.15.35.201.351.101.351.15.351.1.4.102.351.05.401.05.401.05.401v.4zM104.642 58.964c-2.087 3.007-4.276 5.555-4.276 9.53.153 15.289.357 30.119.51 45.408.203 6.37 4.173 10.295 11.653 10.09 27.84-.355 55.627-.712 83.465-1.07 8.55-.152 11.197-4.535 11.197-10.905-.255-15.34-.56-30.732-.815-46.072-.152-2.7-2.442-4.179-2.647-7.593l-99.087.612zM88 53c3.816 2.293 7.94 4.333 12.112 6.32L88 53zm13.232 11.06c70.537-.713 141.89-1.376 212.325-2.04l-212.325 2.04zm102.446-5.76l11.044.154-11.044-.154zm80.666-.712c10.077-.052 20.204-.154 30.282-.255 3.715 0 7.022-1.53 10.33-3.11l-40.612 3.365zm45.142.305c-.763 1.172-2.952 1.12-4.478 1.733-1.782.458-1.884 3.16-.51 4.79 5.395 6.014 10.535 12.945 11.502 20.028l-6.514-26.55zm-13.74 3.21c2.493-.356 4.885 1.631 5.291 4.384.357 2.803-1.322 5.351-3.866 5.708-2.545.357-4.887-1.63-5.294-4.383-.407-2.803 1.323-5.3 3.869-5.708zm.915 2.192l.101.306-.05.05-.102.053h-.05l-.052.05-.102.05-.05.052-.05.051-.052.051-.051.051-.051.102-.051.05-.051.052-.05.101-.051.051v.102l-.051.052v.102l-.051.05v.204l-.05.051v.407l.05.052v.204l.05.102v.101l.052.103.05.1-.305.103-.052-.102-.05-.101-.05-.103v-.1l-.052-.103v-.256l-.05-.1v-.205l.05-.102v-.204l.052-.101v-.102l.05-.103v-.102l.05-.101.052-.102.052-.052.05-.1.05-.103.052-.051.102-.101.05-.052.102-.05.051-.103.102-.051.101-.051.051-.05h.102l.102-.052zm-.967 2.803l.306-.102.05.051.102.204.051.102.051.05.051.103.05.051.051.101.102.053.051.1.102.052.051.05.102.052.05.05.102.051.05.051.103.052h.102l.05.05.103.052h.101l.051.05h.713l.05-.05h.102l.102.305-.102.052h-.101l-.102.05h-.61l-.103-.05h-.101l-.103-.052h-.1l-.103-.05-.102-.052-.101-.05-.103-.052-.1-.051-.052-.05-.102-.102-.102-.052-.05-.05-.102-.102-.102-.052-.102-.202-.101-.103-.051-.05-.051-.103-.05-.102-.103-.102v-.153zm2.799 1.478l-.102-.305.051-.052.102-.05h.051l.102-.052.05-.05.051-.052.051-.05.05-.052.104-.05.05-.102v-.05l.05-.053.052-.1.05-.052v-.102l.052-.051.05-.102v-.153l.05-.102v-.458l-.05-.051v-.204l-.05-.102v-.102l-.051-.101-.051-.103.355-.102.052.102v.103l.051.1.05.103v.204l.052.153v.407l-.052.102v.204l-.05.102v.102l-.051.102-.052.101-.05.103-.051.05-.051.102-.05.102-.051.051-.102.103-.051.05-.051.052-.102.05-.102.102-.05.051-.102.051h-.102l-.102.05zm1.017-2.803l-.355.102-.051-.102v-.051l-.051-.101-.102-.102-.052-.052-.05-.102-.05-.101-.052-.051-.102-.051-.05-.103-.05-.05-.103-.05-.051-.052-.101-.051-.102-.051-.051-.051-.102-.05-.051-.052h-.102l-.1-.05h-.053l-.1-.052h-.663l-.101.051h-.103l-.1-.306.1-.05h.103l.1-.052h.612l.101.052h.103l.101.05h.102l.103.052.1.05.103.051.101.051.102.051.102.051.152.153.102.05.05.103.104.051.05.101.102.103.05.102.052.05.05.102.102.103.05.102.051.152z"/>
    <path stroke="#4A4A4A" stroke-width=".5" d="M317.834 61.977c2.236 0 4.013-.613 5.994-1.737l-5.994 1.737zM94.668 73.682c-1.27.052-1.219 2.25 0 2.3 5.333.307 13.409-.204 21.129-.664 1.929-.358 2.03-1.43-.204-1.738-6.298-.357-14.576-.664-20.925.102zm4.419-.409c-1.27 1.074-.965 2.147.05 2.812l-.05-2.812zm-4.064 38.337c-1.27.051-1.218 2.3 0 2.3 5.384.307 13.41-.204 21.128-.665 1.93-.357 2.032-1.43-.202-1.738-6.298-.358-14.577-.664-20.926.103zm4.42-.408c-1.27 1.072-.966 2.146.05 2.81l-.05-2.81zm93.806-45.494c-3.2 0-6.196.052-9.548.308-5.486.51-7.212 3.321.508 3.68 3.149.256 5.84.204 9.142.153 5.79-.409 4.317-4.242-.102-4.14zm1.067.103c.61 1.533.406 3.117.102 3.833l-.102-3.833zM18.485 123.878l6.805 17.634 4.927-.101.762-2.506-12.494-15.027zM11.222 70.31v25.352V70.31zm.152 27.141c6.298.41 12.19 1.687 17.116 7.207l-17.116-7.207zm328.199-12.779c-1.777-.255-3.556-.409-4.114.051-1.168.46-1.828 1.891-1.525 2.811.662 4.295 2.388 10.53 3.962 15.54l1.677-18.402zm-25.344 51.78H351v-6.9h-34.84l-1.931 6.9zm27.274-33.839c1.067 1.637 2.336 5.01 2.336 8.894 1.067 1.637 3.099.614 3.2 4.96-1.27 0-2.54.05-3.76.05.154 1.738.154 3.731-.202 5.47.05.869-2.488 2.606-3.2 2.197-.762-.715-2.387-5.265-2.387-7.667 1.169.205 2.235 0 2.845-.511.608-.46-1.575-5.265-4.623-5.98-1.574.05-4.063 1.073-4.774.204-2.742-4.805 3.861-4.702 5.283-4.14 1.218.102.71 3.016-.102 3.987l5.384-7.464zm-260.65 36.599l181.876-1.584-181.876 1.584zM7.261 109.31c-1.474-5.724-5.435-3.016-5.689.255-.864 5.776-.711 11.297.203 16.256.813 3.526 3.15 3.73 4.215-.307.204-1.074.153-2.454.204-3.63-4.673.358-1.016-5.162 1.879-6.133a277.957 277.957 0 0 1-.812-6.441zm.863 6.338h8.126-8.126zm10.36-.153c-.355.665-.66 1.278-1.015 1.891-.864 1.33-1.219-.358-1.118-1.073-.05-.92-.05-1.84-.05-2.71-.05-.92-1.27-2.555-2.743-2.504-2.235.154-4.419.255-6.653.408-2.743-.254-2.083-2.913.152-3.016 2.489.053 4.926.154 7.415.205 5.028.256 3.657 4.907 4.013 6.8zM7.058 108.39c.762-2.76 2.489-5.419 6.45-5.47l-6.45 5.47zm3.505-4.907c-1.676-5.47-4.267-9.61-7.111-13.596-.61-.972-.254-2.353.507-2.608.458-.153.915-.307 1.423-.46l5.18 16.664zm-7.974 24.28v13.545c.1 1.022 2.133.817 2.133 0v-13.187l-2.133-.358zm317.33 1.84v-2.556l.913-.512-.914 3.067zm22.803-43.908l.407 11.347-.407-11.347zm-11.224-25.046c.508.305 2.032.153 2.895.05.508-.41.762-1.022 1.218-1.38.56-.46 2.286 1.534 1.728 2.198-.865.971-2.693 2.607-2.438 3.22l-3.403-4.088zM40.73 47.205c1.625 0 2.895 3.066 2.895 6.85 0 3.833-1.27 6.9-2.895 6.9-1.574 0-2.844-3.067-2.844-6.9 0-3.784 1.27-6.85 2.844-6.85zm0-.205v.358h-.101l-.153.051h-.102l-.1.051-.154.103-.101.05-.152.103-.101.154-.103.102-.152.153-.1.153-.103.154-.102.204-.101.205-.101.204-.102.205-.102.255-.101.256-.05.255-.103.255-.05.257-.103.306-.05.307-.05.255-.051.358-.051.307-.05.306v.308l-.052.357v.665l-.05.358h-.306v-1.023l.052-.357v-.358l.05-.308.05-.358.103-.612.05-.307.103-.256.05-.306.101-.256.101-.255.052-.256.101-.256.102-.255.101-.205.153-.204.102-.205.1-.204.153-.153.102-.154.152-.154.152-.153.153-.102.153-.102.151-.102.153-.051.152-.052.153-.051h.152zm-2.997 7.055h.306l.05.357v.716l.052.306v.358l.05.307.05.306.051.308.051.306.05.306.102.256.051.307.102.256.051.255.1.256.103.204.102.256.1.204.102.154.102.204.102.153.101.205.152.102.103.153.1.102.153.103.101.102.153.052.101.05.102.051h.254v.358h-.305l-.152-.051-.153-.103-.151-.05-.153-.102-.153-.153-.152-.103-.152-.154-.102-.152-.152-.205-.101-.153-.102-.205-.153-.204-.1-.256-.103-.205-.1-.255-.053-.256-.1-.255-.102-.255-.05-.308-.102-.306-.204-1.227-.05-.358v-.306l-.052-.358v-1.073zm2.997 7.053v-.358h.254l.152-.051.102-.05.152-.052.102-.102.153-.103.1-.102.102-.153.152-.102.102-.205.102-.153.102-.204.102-.154.1-.204.103-.256.1-.204.102-.256.051-.255.102-.256.051-.307.101-.256.051-.306.05-.306.05-.308.053-.306.05-.307v-.358l.05-.306v-1.073h.356v1.073l-.05.358v.306l-.05.358-.153.92-.102.307-.051.306-.05.308-.204.51-.1.256-.052.255-.102.205-.153.256-.1.204-.102.205-.101.153-.153.205-.102.152-.153.154-.152.103-.152.153-.152.102-.153.05-.152.103-.153.051h-.355zm3.047-7.053h-.355v-1.023l-.051-.357v-.308l-.05-.306-.052-.307-.05-.358-.051-.255-.051-.307-.1-.306-.052-.257-.102-.255-.05-.255-.103-.256-.1-.255-.102-.205-.101-.204-.102-.205-.102-.204-.102-.154-.102-.153-.253-.255-.101-.154-.153-.103-.102-.05-.152-.103-.102-.05h-.152l-.101-.052h-.153V47h.203l.152.051.153.052.152.05.153.103.152.102.152.102.305.307.102.154.153.153.1.204.103.205.1.204.153.205.102.255.051.256.101.256.204.51.05.307.05.256.103.307.101.612.051.358.05.308v.358l.051.357v1.023z"/>
  </g>
</svg>
