<svg xmlns="http://www.w3.org/2000/svg" viewBox="0 0 169 350">
  <g fill="none" fill-rule="evenodd">
    <path fill="#FFF" d="M63.094 348.788c7.27.51 14.035.763 21.254.713 7.22.05 13.983-.204 21.254-.713 11.133-.914 21.66-2.033 34.064-4.219l.46-.084c2.355 2.664 6.214.434 6.355-2.662l2.185.152c7.577.254 11.797-6.304 13.831-9.508 1.798-2.398-.317-3.328-2.49-2.898.171-4.848.236-8.552-.145-12.859 1.72.045 2.992-1.785 3.144-4.682.407-17.949.813-35.847 1.268-53.94 1.363-44.175 1.63-103.91 1.63-142.379 1.73-6.203 2.237-11.135 0-17.695l.61-15.406c.457-16.423-.508-37.32-1.424-47.592-.76-7.475-6.76-21.66-9.863-22.27l-.408-.052c-.254-1.474-1.729-2.847-2.389-2.898h-20.287c-.773.043-2.299 1.205-2.898 2.39-6.815-5.288-24.864-7.729-44.897-8.238-20.035.51-38.084 2.95-44.898 8.238-.6-1.185-2.125-2.347-2.899-2.39H16.264c-.66.051-2.135 1.424-2.389 2.898l-.408.051c-3.1.61-9.1 14.796-9.863 22.271-.916 10.271-1.88 31.17-1.424 47.592.203 5.135.406 10.271.611 15.406-2.238 6.56-1.73 11.492 0 17.695 0 38.468.266 98.204 1.63 142.378.454 18.094.861 35.992 1.267 53.941.152 2.897 1.424 4.727 3.144 4.682-.378 4.307-.316 8.011-.144 12.86-2.174-.43-4.289.5-2.49 2.897 2.033 3.204 6.254 9.762 13.83 9.508l2.185-.152c.141 3.096 4 5.326 6.356 2.662l.46.084c12.403 2.186 22.93 3.305 34.065 4.22"/>
    <path fill="#FFF" d="M84.395 323.417c16.402.299 30.88-2.547 46.629-6.713 2.287-.558 3.609-2.44 3.203-5.592-.406-3.253-.662-6.56-1.12-9.814-.507-2.135-2.796-3.61-6.355-2.795-9.601 2.64-25.746 6.043-42.357 5.847h-.047c-16.61.196-32.756-3.206-42.357-5.847-3.56-.814-5.848.66-6.405 2.795-.408 3.254-.662 6.56-1.121 9.814-.355 3.153.969 5.034 3.254 5.592 15.748 4.166 30.227 7.012 46.629 6.713h.047zm-.023-205.878c-20.823.56-38.16 3.255-52.6 7.424-3.104.915-5.797.56-7.12-3.813-1.321-4.831-1.931-7.475-3.255-12.305-.861-3.966 3.408-5.644 5.596-6.356 14.543-4.423 31.627-9.102 57.38-8.797 25.754-.305 42.836 4.374 57.379 8.797 2.186.712 6.457 2.39 5.592 6.356-1.32 4.83-1.931 7.474-3.254 12.305-1.32 4.373-4.066 4.728-7.117 3.813-14.441-4.17-31.78-6.864-52.601-7.424zM158.025 330.737c-1.02 2.279-2.733 4.053-4.83 5.711a3.138 3.138 0 0 1-.328.168 5.1 5.1 0 0 1-.717 1.279l.078.113.05.155.102.15.05.154v.153l.052.152v.66l-.051.153v.152l-.051.152-.101.155-.051.101-.104.152-.1.153-.101.101-.103.153-.102.101-.152.153-.152.101-.102.104-.152.099-.203.102-.153.103-.152.102-.205.051-.153.101-.406.102-.203.101-.203.051c7.066-.219 11.057-6.422 13.016-9.508 1.906-2.541-.5-3.343-2.49-2.933-.876.181-1.673.597-1.983 1.203M152.28 9.797h.049c.66.051 2.134 1.424 2.388 2.898l.408.051c1.438.283 3.497 3.48 5.37 7.574.865-.046 1.334-.831 1.039-1.472-4.946-11-16.702-12.436-29.551-14.296-.008-.039-.018-.078-.027-.116a2.465 2.465 0 0 0-.032-.115c-.013-.037-.025-.075-.041-.112a1.038 1.038 0 0 0-.047-.11c-.015-.036-.033-.071-.052-.108l-.059-.105h-.002a1.25 1.25 0 0 0-.064-.103c-.024-.034-.047-.068-.073-.101-.023-.033-.05-.066-.076-.098a1.878 1.878 0 0 0-.084-.097c-.029-.031-.056-.062-.088-.093-.031-.031-.06-.061-.093-.091l-.098-.088a1.745 1.745 0 0 0-.104-.085l-.105-.084h-.002l-.109-.079h-.002l-.116-.078c-.039-.025-.078-.05-.119-.074l-.123-.072-.125-.068-.131-.066-.13-.062-.137-.059-.137-.055-.141-.053-.142-.049-.143-.047-.146-.042-.147-.039-.148-.036-.151-.032-.15-.028-.15-.025-.153-.021-.15-.017-.152-.014-.151-.009-.152-.006-.15-.001-.149.002-.148.007-.147.01-.146.015-.145.019-.14.024-.141.027c-.047.011-.092.021-.137.033-.045.011-.09.024-.135.037a2.223 2.223 0 0 0-.132.041 2.213 2.213 0 0 0-.129.046 2.324 2.324 0 0 0-.248.105 2.684 2.684 0 0 0-.235.124c-.037.022-.074.046-.111.07-.035.024-.072.048-.106.074-.035.026-.07.052-.103.079a2.56 2.56 0 0 0-.19.173c-.031.031-.06.062-.087.095-.03.032-.057.066-.082.099-.028.035-.053.07-.079.105l-.07.11a1.45 1.45 0 0 0-.064.115c-13.004-1.79-24.582-2.162-40.36-2.423-15.779.261-27.355.633-40.361 2.423a1.858 1.858 0 0 0-.064-.115l-.071-.11a3.552 3.552 0 0 0-.16-.204 1.948 1.948 0 0 0-.277-.268c-.033-.027-.069-.053-.102-.079-.035-.026-.072-.05-.107-.074-.037-.024-.074-.048-.112-.07a2.123 2.123 0 0 0-.115-.064 2.204 2.204 0 0 0-.119-.06 3.337 3.337 0 0 0-.51-.192c-.045-.013-.09-.026-.135-.037-.044-.012-.089-.022-.136-.033l-.141-.027-.14-.024-.145-.019-.146-.015-.147-.01-.148-.007-.149-.002-.15.001-.153.006-.15.009-.152.014-.151.017-.152.021-.15.025-.151.028-.15.032-.149.036-.146.039-.147.042-.142.047-.143.049-.14.053-.137.055-.135.059-.133.062-.131.066-.125.068-.123.072c-.041.024-.08.049-.119.074l-.115.078-.111.079h-.002l-.106.084a4.327 4.327 0 0 0-.295.264c-.031.031-.058.062-.088.093l-.084.097c-.025.032-.052.065-.076.098a2.322 2.322 0 0 0-.136.204h-.002l-.059.105a1.73 1.73 0 0 0-.1.218c-.015.037-.027.075-.041.112a4.898 4.898 0 0 0-.031.115 1.14 1.14 0 0 0-.025.116C23.76 6.412 12.004 7.848 7.059 18.848c-.295.641.174 1.426 1.039 1.472 1.873-4.094 3.932-7.291 5.369-7.574l.408-.051c.254-1.474 1.729-2.847 2.389-2.898h.397c6.287-3.454 14.019-3.137 19.839 0h.1c.744 0 2.314 1.128 2.902 2.35 6.848-5.256 24.832-7.686 44.795-8.195 19.961.509 37.946 2.939 44.793 8.195.588-1.222 2.158-2.35 2.903-2.35h.101c5.819-3.137 13.551-3.454 19.84 0h.346M18.913 341.823l-.204-.05-.203-.052-.152-.1-.205-.052-.152-.102-.153-.103-.203-.102-.152-.099-.102-.104-.152-.1-.254-.255-.104-.153-.1-.1-.1-.154-.104-.152-.05-.1-.103-.156-.05-.152v-.152l-.05-.153v-.66l.05-.152v-.153l.05-.154.102-.15.051-.155.076-.113a5.151 5.151 0 0 1-.715-1.279 3.138 3.138 0 0 1-.328-.168c-2.098-1.658-3.813-3.432-4.83-5.71-.31-.607-1.108-1.023-1.985-1.204-1.99-.41-4.394.392-2.488 2.933 1.96 3.086 5.95 9.29 13.016 9.508l-.203-.05-.203-.102"/>
    <path fill="#FFF" d="M142.151 7.324c-3.51.013-6.975.879-9.957 2.473h19.74c-3.049-1.675-6.437-2.463-9.783-2.473zM36.5 9.797c-5.82-3.137-13.552-3.454-19.839 0H36.5zM148.819 39.897l.103.05.049.052.102.102.052.05.102.102.05.05.052.102.05.102.05.052.052.1.05.102.05.102.052.1.05.104v.1l.052.052v.203l.013.026.038.076v.116a.777.777 0 0 1 .316-.192 1.182 1.182 0 0 1 .107-.03l-.035.03a1.986 1.986 0 0 0-.388.437v.097l-.051.1v.205l-.051.05-.008.017c.002.01.004.023.008.034.713.915 12.254 2.187 12.508 1.272-.022-.914-.602-1.65-1.508-2.212-1.264-.783-3.156-1.23-5.051-1.347-.101-.56-.152-1.12-.254-1.68-.05-1.168-1.931-1.83-2.035.053-.051.457-.101.915-.203 1.372 0 0-.523.198-1.166.505-1.141-.31-2.543-.63-3.605-.73l.043.022.1.05h.052l.1.052.103.1.05.052"/>
    <path fill="#FFF" d="M148.515 43.05h.05l.102-.052h.05l.103-.102h.102l.05-.049.053-.053.048-.051.052-.05.052-.05v-.051l.051-.102.05-.051v-.051l.052-.051v-.102l.049-.05v-.153l.051-.051v-.407l-.051-.101v-.153l-.049-.05v-.102l-.052-.101v-.052l-.05-.102-.051-.051-.052-.102-.052-.049-.048-.102-.053-.051-.05-.103-.05-.05-.052-.051-.051-.101-.102-.052-.051-.05-.051-.051-.101-.051h-.05l-.103-.051-.101-.102h-.101l-.051-.05h-.152l-.103-.051h-.51l-.048.051h-.053l-.1.05h-.052l-.051.052-.05.05h-.103l-.049.051-.052.051-.051.051-.05.05-.051.052v.051l-.05.05-.051.101v.052l-.052.051v.101l-.051.052v.151l-.049.051v.407l.049.101v.153l.051.052v.101l.052.05v.102l.051.102.05.051.051.101.05.052.051.102.052.05.049.102.051.051.052.05.05.052.103.051.049.1h.051l.101.051.052.053.103.049.05.052h.051l.103.05h.05l.101.052h.051l.103.049h.406l.101-.049h.051M20.789 39.846h-.101l-.052.05h-.1l-.102.102-.103.05h-.049l-.101.052-.051.051-.05.05-.103.052-.052.102-.052.05-.049.05-.049.104-.054.049-.051.102-.052.05-.049.102-.05.051-.051.102v.052l-.052.1v.103l-.049.05v.152l-.051.102v.407l.051.051v.152l.049.052v.102l.052.049v.053l.051.049.05.102v.052l.049.049.052.052.051.05.054.053.049.049h.101l.052.052.049.05h.054l.101.052h.101l.101.049h.406l.103-.049h.051l.098-.052h.054l.102-.05h.051l.049-.052.103-.049.05-.053.103-.05h.052l.049-.101.103-.052.049-.05.052-.052.052-.049.049-.102.052-.052.051-.102.049-.05.052-.102.051-.051.05-.102v-.102l.052-.05v-.101l.051-.052v-.152l.049-.102v-.407l-.049-.051v-.152l-.051-.05v-.101l-.052-.053v-.051l-.05-.1-.051-.052v-.05l-.052-.052-.049-.05-.051-.051-.052-.052-.049-.05h-.104l-.049-.05-.051-.052h-.052l-.101-.05h-.052l-.051-.051h-.507l-.103.051h-.051"/>
    <path fill="#FFF" d="M19.06 42.388l.009-.034-.008-.016-.051-.051v-.204l-.053-.101v-.097a1.888 1.888 0 0 0-.388-.437l-.033-.03.015.004c.03.008.063.016.09.026a.764.764 0 0 1 .316.192v-.116l.04-.076.013-.026v-.203l.05-.051v-.101l.052-.103.05-.101.049-.102.05-.101.054-.101.05-.052.05-.102.052-.101.05-.051.1-.102.053-.05.104-.102.049-.051.1-.051.054-.051.102-.101.1-.052h.052l.142-.071c-1.06.099-2.462.42-3.605.729-.641-.307-1.166-.505-1.166-.505-.1-.457-.15-.915-.201-1.372-.106-1.882-1.985-1.221-2.035-.052-.102.56-.153 1.119-.256 1.679-1.893.118-3.787.564-5.05 1.347-.905.562-1.487 1.298-1.507 2.212.254.915 11.795-.357 12.508-1.272M162.547 94.353v23.542c-.05 1.677 1.985 1.118 2.442.152l.914-2.288v-.05c1.543-5.53 2.113-10.049.635-15.61a32.24 32.24 0 0 0-.635-2.086l.002-.075c-.34-1.212-.682-2.424-1.07-3.636-.202-.814-2.133-.66-2.288.051M163.413 182.216a1.58 1.58 0 0 1 .05-.13c-.013-1.105-.769-2.005-1.627-2.005-.865 0-1.627.915-1.627 2.033 0 .12.008.238.024.351.135.997.828 1.734 1.603 1.734.674 0 1.286-.556 1.524-1.355-.012-.12-.01-.246.006-.379a1.78 1.78 0 0 1 .047-.249"/>
    <path fill="#FFF" d="M164.339 197.418l1.125.03 2.625.073c.05-4.881.05-9.763.05-14.644a2.775 2.775 0 0 0-.061-.412c-.282-1.223-1.373-1.761-2.444-1.715-.914.039-1.812.505-2.172 1.336v.028a2.514 2.514 0 0 1-.103.73c.103 1.128 1.332 1.715 2.244 1.475.068-.018.135-.042.199-.07-.101 3.153-.051 5.645-.154 8.798a1.77 1.77 0 0 1-.141.673c-.201.444-.6.668-1.095.777-.332-1.756-1.321-3.027-2.475-3.027-1.424 0-2.594 1.932-2.594 4.322s1.17 4.322 2.594 4.322c1.082 0 2.016-1.114 2.402-2.696M148.662 134.267c.699-.2 2.166-.178 2.496.153.244 23.581.16 46.531-.305 69.456h2.389c.814-.05 1.576-.61 1.525-1.627 0-29.085-.051-58.118-.051-87.202-.051-1.01-.252-2.123-1.303-1.685-1.521 6.453-3.183 13.692-5 20.741.034.074.067.15.096.224.07-.029.13-.054.153-.06M148.82 288.688c1.373 3.558 2.34 2.236 2.34-.764 1.068-24.253 1.474-48.71 2.238-73.066.035-1.23-.734-1.879-1.582-2.16-.268-.089-.766-.14-1.156-.164a2001.35 2001.35 0 0 1-2.754 66.798c-.571.047-1.186.096-1.803.184a432.08 432.08 0 0 1-.078 1.545l-.004.054c.164.412.322.807.381.976.783 2.241 1.676 4.72 2.418 6.597M6.144 94.355v23.542c.05 1.677-1.984 1.118-2.441.152l-.915-2.288v-.051c-1.541-5.53-2.113-10.048-.632-15.61.179-.678.39-1.372.632-2.085l-.001-.075c.339-1.212.68-2.424 1.068-3.636.203-.814 2.135-.661 2.289.05M5.327 182.465c.017.133.019.259.007.379.237.799.848 1.355 1.522 1.355.777 0 1.471-.737 1.603-1.734.016-.113.024-.231.024-.351 0-1.118-.762-2.033-1.627-2.033-.858 0-1.613.9-1.625 2.005.017.043.035.086.049.13.021.085.037.168.047.249"/>
    <path fill="#FFF" d="M6.754 200.113c1.424 0 2.594-1.932 2.594-4.322s-1.17-4.322-2.594-4.322c-1.154 0-2.142 1.27-2.474 3.027-.494-.11-.893-.333-1.094-.777a1.768 1.768 0 0 1-.143-.673c-.103-3.153-.052-5.645-.154-8.797.067.027.133.05.2.069.913.24 2.142-.347 2.245-1.475a2.378 2.378 0 0 1-.082-.38 3.073 3.073 0 0 1-.021-.378c-.361-.831-1.258-1.297-2.174-1.336-1.068-.046-2.162.492-2.443 1.715-.03.13-.051.268-.063.412 0 4.88 0 9.763.05 14.644l2.628-.073 1.123-.03c.387 1.582 1.322 2.696 2.402 2.696M20.028 134.268c-.699-.201-2.166-.178-2.496.153-.243 23.58-.16 46.53.306 69.456h-2.39c-.815-.051-1.577-.611-1.526-1.627 0-29.085.051-58.118.051-87.202.051-1.011.252-2.123 1.305-1.685 1.52 6.453 3.181 13.692 5 20.74a4.902 4.902 0 0 0-.098.225 2.03 2.03 0 0 0-.152-.06M19.873 288.689c-1.373 3.558-2.339 2.236-2.339-.764-1.069-24.253-1.475-48.71-2.239-73.066-.035-1.231.737-1.879 1.584-2.16.266-.089.764-.141 1.155-.164a2004.04 2004.04 0 0 0 2.754 66.798c.572.047 1.185.096 1.802.184.026.513.053 1.029.078 1.545l.006.054a31.19 31.19 0 0 0-.38.976c-.786 2.241-1.678 4.719-2.42 6.597"/>
    <path stroke="#4A4A4A" stroke-width=".5" d="M84.345 121.15c23.289-.153 48.915 4.83 56.9 8.999 2.084.916 6.302 3.509 6.253 7.22.204 47.186-.357 93.05-2.898 142.422-.662 7.932-3.203 10.118-8.34 11.949-4.881 1.473-20.184 8.389-52.014 8.694l.099-179.284zm0-1.424c23.746-.153 49.933 4.983 58.118 9.254 2.137.915 6.409 3.559 6.409 7.373.203 48.15-.307 94.32-2.9 144.708-.712 9.357-5.948 11.187-8.694 12.152-4.983 1.526-20.796 8.34-52.982 8.899l.049-182.386zm-.1-27.864c27.61-.305 45.914 4.729 61.42 9.407 2.34.813 6.255 2.847 5.29 7.118a6495.179 6495.179 0 0 0-4.271 15.508c-.863 2.949-5.084 4.78-7.322 3.712L84.246 91.862zm0 1.83c25.83-.305 42.914 4.374 57.457 8.797 2.185.712 6.457 2.39 5.59 6.356-1.32 4.83-1.93 7.474-3.253 12.305-1.32 4.373-4.066 4.728-7.117 3.813-14.441-4.17-31.78-6.864-52.626-7.424l-.05-23.847zm.05 210.657c16.628.203 32.796-3.203 42.407-5.846 3.558-.815 5.847.66 6.355 2.794.457 3.255.713 6.56 1.119 9.815.406 3.152-.916 5.033-3.203 5.593-15.763 4.17-30.255 7.017-46.677 6.712v-19.068zm45.254-8.593c3.762-.864 6.914 2.389 7.373 5.084.457 3.458.66 7.22 1.016 10.78.408 3.356-.965 5.34-3.406 5.898-16.677 4.424-32.847 7.933-50.236 7.627l45.253-29.39zm-45.253 36.457c18.71.102 30.252-2.95 43.525-6.355 5.439-1.425 9.152-.764 9.914 4.423.916 4.779 1.576 11.847 1.88 14.288-12.404 2.186-22.93 3.305-34.065 4.22-7.271.508-14.035.762-21.205.712l-.05-17.288zm44.439-6.611c15.203-3.457 21.254-8.592 23.492-19.778l-23.492 19.778zm-44.49 1.273c27.05-.103 65.845-5.9 66.558-24l-66.557 24zm60.863-41.187c2.439 11.695 6.66 19.678 11.797 29.034l-11.797-29.034zm.406-1.576c3.05 11.746 8.34 21.355 14.033 30.305l-14.033-30.305zm1.272-152.336c2.289-10.271 5.287-21.457 7.779-28.982 4.83-6.712 8.594-14.898 12.05-22.982l-19.83 51.964zm1.576 2.39c2.746-10.627 5.086-21.558 7.17-29.745 4.83-6.711 7.474-12.508 10.93-20.593l-18.1 50.339zm8.746-35.237c-.152-8.898-8.391-11.44-12.66-12.711-14.137-4.983-34.474-9.101-60.152-8.746l72.812 21.457zm-16.576-14.033c.406-.915-8.95-45.66-13.424-68.49-.865-4.017-3.61-4.373-6.864-4.78-10.27-1.17-25.168-2.898-35.998-2.593l56.286 75.863zm-15.914-72.151h30.558c3.102.61 9.102 14.796 9.863 22.27.917 10.272 1.88 31.17 1.424 47.593-.203 5.135-.406 10.27-.611 15.406 2.238 6.56 1.73 11.492 0 17.695 0 65.185-.762 191.437-6.355 198.606.712 5.44.662 9.56.459 15.254L124.618 12.745zm27.812 326.332h-.357v-.406l-.051-.102-.05-.152-.052-.103-.048-.101-.104-.153-.051-.101-.101-.102-.102-.152-.101-.103-.153-.101-.101-.102-.153-.102-.101-.101-.153-.051-.152-.101-.152-.102-.205-.052-.153-.1-.152-.052-.203-.051-.203-.05-.203-.051-.153-.051-.203-.051h-.256l-.203-.051h-.203l-.203-.051h-.254v-.355h.254l.254.05h.203l.203.05h.254l.205.052.203.05.203.05.203.053.203.05.204.102.152.05.205.103.152.1.153.053.203.1.152.103.102.152.152.102.152.1.102.154.104.1.1.154.1.102.104.152.05.154.103.15.05.154v.153l.05.152v.305zm-4.576-3.05v.355h-.203l-.203.05h-.205l-.202.052h-.255l-.204.05-.152.052-.203.05-.203.05-.203.052-.155.052-.152.1-.203.052-.152.102-.153.1-.152.052-.102.1-.152.103-.102.102-.152.1-.103.104-.102.152-.102.102-.05.1-.102.154-.051.1-.05.104-.051.152-.051.102v.406h-.406l.05-.152v-.153l.05-.152v-.153l.052-.153.102-.151.05-.154.102-.152.102-.102.1-.153.103-.101.1-.153.154-.101.154-.102.1-.152.154-.103.203-.1.152-.052.153-.101.203-.102.152-.051.203-.102.205-.05.203-.052.204-.05.406-.102h.254l.205-.051h.203l.254-.05h.203zm-4.576 3.05h.406v.407l.05.153.052.1.05.153.05.103.103.1.05.154.102.1.102.103.103.1.152.103.102.102.152.102.102.102.152.1.153.104.152.05.203.1.152.052.155.102.609.153.152.05h.204l.255.05.202.052h.61v.356h-.66l-.204-.05-.254-.051h-.203l-.203-.052-.204-.051-.203-.101-.205-.051-.203-.051-.152-.101-.203-.051-.153-.102-.152-.102-.203-.102-.153-.1-.101-.103-.154-.101-.153-.153-.101-.101-.102-.154-.101-.101-.102-.153-.102-.152-.05-.101-.102-.154-.051-.152v-.152l-.05-.154v-.202l-.051-.153zm4.576 3.05v-.355h.66l.203-.051.256-.051h.203l.153-.05.609-.153.152-.102.153-.051.205-.101.152-.05.152-.103.153-.101.1-.102.154-.102.1-.102.154-.102.1-.101.204-.203.05-.153.105-.101.048-.103.053-.152.049-.101.05-.153v-.407h.358v.355l-.051.154v.152l-.05.152-.102.154-.051.1-.103.153-.1.153-.101.1-.104.155-.102.1-.152.154-.152.1-.102.104-.152.1-.203.102-.153.102-.152.102-.205.05-.152.102-.204.05-.203.052-.203.1-.203.052-.203.052h-.205l-.254.05-.203.05h-.711z"/>
    <path stroke="#4A4A4A" stroke-width=".5" d="M146.43 341.823c-.151 3.356-4.677 5.695-6.915 1.882l6.916-1.882zm-2.897-2.44c-5.034-8.848 13.982-8.39 8.44-1.323l-8.44 1.322zm9.304-2.696c2.237-1.728 4.069-3.559 5.137-5.949 1.016-1.983 7.219-1.932 4.473 1.73-2.033 3.203-6.254 9.762-13.83 9.507l4.22-5.288zm.56-18.609l.304.152-.1.255-.102.202-.101.255-.104.203-.05.255-.102.203-.051.203-.101.203-.051.255-.051.203v.204l-.051.204-.05.152v1.22l.05.153.05.152.052.102v.101l.1.153.052.102.05.05.052.103.1.05.054.102.102.051.1.051-.151.305-.104-.05-.152-.103-.102-.05-.101-.102-.102-.102-.05-.152-.102-.103-.051-.152-.051-.102-.05-.152-.051-.203-.051-.154v-.507l-.051-.204.05-.204v-.355l.052-.254.05-.203v-.205l.05-.202.103-.255.05-.203.052-.203.1-.255.103-.203.05-.254.102-.255.152-.203.104-.254zm0 5.644l.153-.305h.102l.1.05h.458l.102-.05h.152l.153-.05.1-.052.156-.05.15-.102.154-.103.153-.05.1-.102.153-.153.153-.1.152-.103.152-.152.305-.305.307-.305.1-.204.154-.204.152-.152.102-.203.152-.204.152-.202.102-.204.152-.254.102-.203.306.152-.103.253-.15.205-.104.253-.152.204-.153.203-.101.203-.153.204-.152.153-.152.203-.153.152-.152.204-.307.305-.152.152-.152.102-.153.152-.152.103-.203.152-.152.051-.153.101-.154.102-.15.051-.155.102-.152.05h-.152l-.153.051h-.56l-.151-.05-.152-.05zm4.729-3.61l-.306-.152.1-.255.103-.203.103-.205.102-.253.102-.204.05-.254.05-.203.103-.204.05-.203.05-.204.052-.202v-.204l.05-.203v-1.22l-.05-.153-.051-.102v-.152l-.051-.103-.05-.1-.102-.103-.051-.1-.05-.103-.102-.05-.051-.052-.103-.05-.1-.05.152-.358.102.051.152.103.102.101.1.05.103.153.05.102.102.102.05.152.052.152.05.154.05.152.052.152v.356l.05.153v.203l-.05.203v.407l-.051.204-.05.203v.203l-.051.255-.102.203-.05.204-.051.254-.102.203-.101.254-.051.204-.102.254-.152.254-.102.204zm0-5.645l-.152.357-.101-.052-.104-.05h-.457l-.102.05-.152.052h-.152l-.102.051-.152.101-.153.051-.154.102-.152.101-.102.103-.152.1-.152.103-.153.152-.152.102-.305.305-.154.203-.102.153-.152.152-.152.203-.153.204-.101.153-.153.203-.152.204-.101.253-.102.204-.154.203-.303-.152.1-.203.154-.255.1-.203.154-.204.152-.253.102-.205.152-.152.152-.203.153-.204.152-.152.152-.153.153-.203.154-.152.152-.103.153-.152.152-.152.152-.102.203-.102.153-.1.152-.103.154-.1.153-.053.152-.05.153-.052.152-.05.152-.05h.559l.154.05.152.05z"/>
    <path stroke="#4A4A4A" stroke-width=".5" d="M156.651 319.502c.609-1.373 1.627-2.238 2.236-1.932.66.253.61 1.626 0 3-.66 1.372-1.678 2.236-2.287 1.932-.611-.255-.611-1.627.051-3zm-.153-.052l.305.153-.051.102-.05.153-.051.102-.051.152-.053.101-.049.102v.152l-.052.103v.101l-.051.152v.101l-.051.103v.813l.051.102v.051l.051.051v.051l.052.05v.051l.049.051v.05h.053l.051.052h.051l-.155.356-.101-.051-.051-.052-.051-.05-.101-.05-.051-.102v-.051l-.051-.102-.051-.051-.051-.101v-.153l-.05-.102v-.864l.05-.101v-.153l.051-.101v-.154l.051-.102.051-.152.051-.101v-.152l.05-.102.051-.153.051-.153.103-.102zm.049 3.255l.155-.356.05.051h.204l.05-.051h.153l.05-.052.051-.05h.051l.102-.051.05-.051.102-.05.051-.051.05-.102.102-.051.051-.101.101-.051.053-.102.049-.051.103-.102.051-.102.102-.101.051-.102.05-.101.102-.102.051-.153.05-.101.051-.101.051-.154.355.154-.05.152-.102.102-.051.152-.05.102-.102.101-.051.152-.101.102-.051.102-.051.102-.101.102-.102.101-.051.102-.103.051-.051.101-.102.051-.048.101-.104.052-.102.102-.05.051-.102.05-.101.05-.051.052h-.102l-.051.051h-.101l-.102.05h-.304l-.102-.05h-.053zm2.492-2.084l-.355-.154.102-.102.05-.152.051-.101v-.103l.051-.151.051-.103.05-.152v-.101l.051-.102v-.103l.051-.152v-.203l.053-.102v-.457l-.053-.102v-.102l-.051-.101v-.051l-.051-.051v-.051l-.05-.05v-.052h-.051l-.051-.051v-.05h-.051l.153-.305h.05l.102.05.053.051.049.102.05.051.053.051.049.101v.052l.051.101.051.102v.152l.05.102v.559l-.05.102v.254l-.051.102v.101l-.051.153v.102l-.049.153-.053.102-.05.152-.049.152-.053.101-.051.153-.051.103zm-.05-3.204l-.153.305h-.101l-.051-.051h-.051l-.101.051h-.102l-.051.05h-.05l-.102.051-.051.052h-.051l-.103.05-.049.051-.053.102-.101.051-.051.05-.102.102-.05.051-.102.101-.051.102-.05.051-.102.101-.051.103-.051.101-.101.102-.051.152-.051.102-.101.102-.051.101-.051.153-.305-.153.049-.153.053-.101.051-.152.101-.102.051-.102.102-.153.051-.101.05-.101.102-.102.101-.102.051-.102.102-.05.051-.102.101-.102.051-.05.101-.103.102-.05.051-.051.101-.051.053-.102h.1l.103-.051.051-.05.102-.051h.152l.101-.051h.153l.101.051h.051l.102.051zM143.38 338.975c-19.83 3.661-40.321 5.848-59.083 5.034l59.083-5.034zm-59.133 6.864h17.845c.713-.05 1.526-.71 1.627-2.033l-19.472 2.033zm19.32-1.474h10.525c.713 0 .559-.457.51-1.322l-11.035 1.322zm2.44 0c-.05 1.424-.05 2.898-.05 4.322 2.39 0 4.678-1.982 4.678-4.322h-4.627zm-21.71-3.814c3.559 0 10.932-1.982 5.696-2.898-1.07-.152-2.746-.05-4.17.153 2.592-2.186.914-2.186-1.576-2.237l.05 4.982zm70.472-327.857c-.254-1.474-1.73-2.847-2.39-2.898h-20.286c-.916.051-2.847 1.525-3.101 2.95l25.777-.052zm-2.643-2.847c-6.304-3.509-14.084-3.203-19.982-.05l19.982.05zM84.246 1c18.66.305 31.372.762 47.54 3.508 12.967 1.881 24.866 3.305 29.848 14.34.305.66-.254 1.524-1.12 1.473L84.248 1.001zm.05 2.948c20.035.51 38.084 2.95 44.899 8.238L84.297 3.948zm41.592 4.882c-.558-.915-1.523-4.017-1.27-5.085 1.016-2.949 7.016-1.728 7.475.864-.408 1.577-1.322 3.51-2.086 4.373-.66 1.272-3.711 1.475-4.12-.152zm4.17-.102c-.711-1.322-3.254-1.728-4.12.051l4.12-.05zm-20.694 72.863a.91.91 0 0 0 .916.915c.508 0 .965-.406.965-.915a.965.965 0 0 0-.965-.966c-.51 0-.916.407-.916.966zM154.361 103.252c-.457-2.594-20.592-8.543-42.558-11.644-9.254-1.27-19.017-1.577-27.508-1.627l70.066 13.271zM84.295 75.846c.305 0 .61-.357.61-.966l.763-60.559c0-1.169-.509-2.237-1.324-2.898l-.049 64.423zm0-64.474l5.95-.1v-.204h-5.9l-.05.304zm81.61 86.744c-.359-1.27-.714-2.542-1.12-3.813-.204-.814-2.135-.66-2.289.051v23.542c-.05 1.677 1.984 1.118 2.441.152l.914-2.288.053-17.644zm-3.308 1.983h3.967-3.967zm-14.135 34.22c.612-.253 2.29-.253 2.645.103.508 49.218-.406 95.691-3.254 144.911-.61.05-1.272.102-1.932.203l2.541-145.217zm4.883-20.948c1.067-.457 1.27.66 1.32 1.678 0 29.083.051 58.116.051 87.201.051 1.016-.71 1.576-1.525 1.627h-2.338l2.492-90.507zm-3.713-70.982c.713.914 12.254 2.186 12.508 1.271-.05-2.186-3.305-3.355-6.559-3.558-.1-.56-.152-1.12-.253-1.68-.05-1.168-1.932-1.83-2.036.053-.05.456-.1.914-.203 1.371 0 0-3.76 1.425-3.457 2.543zm-.558.762l-.203-.254.048-.05.053-.052.05-.05.052-.051.05-.05v-.051l.051-.103.051-.05v-.051l.051-.05v-.103l.051-.05v-.154l.05-.05v-.407l-.05-.102v-.152l-.05-.05v-.103l-.052-.1v-.052l-.05-.102-.052-.05-.05-.103-.053-.05-.049-.102.305-.204.051.102.05.051.051.102.051.101.051.102.05.101.051.103v.101l.051.051v.203l.051.102v.458l-.05.101v.204l-.052.051-.05.102v.101l-.05.051-.052.101-.05.102-.052.051-.05.051-.05.102-.103.051-.05.05-.05.051zm.203-2.746l-.305.205-.053-.051-.048-.102-.05-.051-.054-.05-.05-.102-.102-.051-.05-.051-.052-.05-.1-.052h-.052l-.102-.05-.05-.051-.05-.051h-.103l-.05-.051h-.153l-.102-.05h-.509l-.049.05h-.053l-.1.05h-.052l-.05.052-.052.05h-.1l-.205-.253.102-.052.051-.05.101-.051.102-.052.051-.05h.205l.1-.05h.51l.101.05h.101l.102.05h.101l.051.051.102.051.101.05h.051l.102.052.101.101.051.051.104.051.048.051.102.102.053.05.101.102.051.051.051.101zm-2.696-.66l.204.255-.05.05-.052.052-.05.05-.052.05-.05.052v.05l-.05.052-.051.1v.052l-.051.05v.103l-.05.05v.153l-.051.05v.408l.05.1v.154l.05.05v.102l.052.05v.103l.05.102.052.05.05.102.05.05.052.103-.305.203-.05-.102-.051-.101-.051-.051-.052-.102-.05-.102-.05-.101-.052-.102v-.102l-.05-.101v-.153l-.052-.101v-.51l.051-.05v-.203l.051-.102.051-.051v-.101l.05-.102.051-.051.051-.102.051-.052.051-.1.05-.052.051-.05.102-.05.05-.052zm-.203 2.746l.305-.203.051.05.051.103.05.05.102.102.103.05.05.102h.05l.102.05.05.052.104.05.051.052h.05l.102.05h.051l.101.052h.051l.102.05h.406l.102-.05h.101l.102-.052h.05l.051-.05.051-.052h.104l.203.254-.102.051-.053.051-.099.05-.104.052h-.05l-.102.05h-.102l-.1.051h-.458l-.05-.05h-.204l-.104-.05h-.099l-.05-.052-.105-.05-.099-.051-.053-.051-.1-.051-.103-.05-.05-.051-.102-.051-.356-.356-.05-.102z"/>
    <path stroke="#4A4A4A" stroke-width=".5" d="M146.887 39.745c.967-.611 5.797.762 6.865 1.169.457.203-1.78.05-3.611.508-1.066.255-.355 1.678-1.627 1.88-2.287.053-3.203-2.541-1.627-3.557zm18.406 168.86h-8.033c-.457-2.746-2.187-3.457-6.508-2.135l14.54 2.136zm-5.134-26.491c0 1.17.76 2.085 1.627 2.085.865 0 1.627-.915 1.627-2.085 0-1.118-.762-2.033-1.627-2.033-.866 0-1.627.915-1.627 2.033zm-.866 13.678c0 2.39 1.17 4.322 2.594 4.322s2.594-1.932 2.594-4.322-1.17-4.322-2.594-4.322-2.594 1.932-2.594 4.322zm3.204 1.576l5.542.153c.05-4.881.05-9.763.05-14.644-.202-2.746-4.016-2.695-4.727-.661-.406 1.627 1.322 2.492 2.39 2.034-.101 3.152-.05 5.644-.154 8.797-.051 1.626-1.625 1.576-3.101 1.525-1.678 1.016 0 2.796 0 2.796zm-5.288 11.238c-1.017 32.948-2.236 63.1-4.474 94.015l4.474-94.015zm-5.847 91.37c2.289-30.863 2.695-52.727 3.71-84.71 0-4.73-2.693-5.34-4.32-5.288l.61 89.998zm-.711-87.455c1.117 0 2.746.559 2.695 2.338-.764 24.356-1.17 48.813-2.238 73.066 0 3-.967 4.323-2.34.763-.863-2.185-1.932-5.185-2.795-7.678l4.678-68.49zm6.305-4.933c.71-36.05 1.423-81.252-.153-104.845 1.88-.051 3.762-.051 5.694-.101l-5.541 104.946zm7.27 50.694c-.458 17.898-.864 35.797-1.27 53.746-.153 2.897-1.424 4.727-3.102 4.727l4.373-58.473zM84.247 75.846c-.307 0-.561-.357-.612-.966l-.761-60.56c0-1.168.507-2.236 1.322-2.897l.05 64.423zm0-64.474l-5.95-.101v-.203h5.899l.05.304zm.05 109.778c-23.29-.153-48.914 4.83-56.896 8.999-2.086.916-6.307 3.509-6.256 7.22-.254 47.186.355 93.05 2.898 142.422.663 7.932 3.153 10.118 8.338 11.949 4.883 1.473 20.188 8.389 52.018 8.694l-.102-179.284zm0-1.424c-23.797-.153-49.931 4.983-58.117 9.254-2.137.915-6.46 3.559-6.408 7.373-.203 48.15.307 94.32 2.898 144.708.713 9.357 5.95 11.187 8.696 12.152 4.982 1.526 20.797 8.34 52.98 8.899l-.05-182.386zm.102-27.864c-27.61-.305-45.914 4.729-61.475 9.407a147762568140850940 147762568140850940 0 0 0-1.015 22.626c.914 2.949 5.134 4.78 7.32 3.712l55.17-35.745zm0 1.83c-25.83-.305-42.914 4.374-57.457 8.797-2.188.712-6.457 2.39-5.594 6.356 1.322 4.83 1.932 7.474 3.256 12.305 1.32 4.373 4.016 4.728 7.117 3.813 14.442-4.17 31.779-6.864 52.625-7.424l.053-23.847zm-.053 210.657c-16.625.203-32.795-3.203-42.404-5.846-3.561-.815-5.848.66-6.406 2.794-.41 3.255-.662 6.56-1.12 9.815-.355 3.152.967 5.033 3.254 5.593 15.762 4.17 30.254 7.017 46.676 6.712v-19.068zm-45.252-8.593c-3.762-.864-6.914 2.389-7.373 5.084-.457 3.458-.66 7.22-1.068 10.78-.356 3.356 1.017 5.34 3.459 5.898 16.678 4.424 32.845 7.933 50.234 7.627l-45.252-29.39zm45.252 36.457c-18.762.102-30.303-2.95-43.523-6.355-5.44-1.425-9.153-.764-9.916 4.423-.914 4.779-1.575 11.797-1.88 14.288 12.405 2.186 22.93 3.254 34.014 4.22 7.325.508 14.086.762 21.256.712l.049-17.288zm-44.437-6.611c-15.254-3.457-21.254-8.592-23.543-19.778l23.543 19.778zm44.49 1.273c-27.051-.103-65.848-5.951-66.56-24l66.56 24zm-60.863-41.187c-2.442 11.695-6.661 19.678-11.848 29.034l11.848-29.034zm-.41-1.576c-3.047 11.746-8.336 21.355-14.032 30.305l14.033-30.305zm-1.268-152.336c-2.29-10.271-5.29-21.457-7.781-28.982-4.881-6.712-8.643-14.898-12.1-22.982l19.88 51.964zm-1.63 2.39c-2.692-10.627-5.032-21.558-7.116-29.745C8.23 97.71 5.535 91.913 2.078 83.828l18.15 50.339zM11.485 98.93c.203-8.898 8.44-11.44 12.71-12.711 14.137-4.983 34.425-9.101 60.15-8.746l-72.86 21.457zM28.11 84.896c-.406-.915 8.947-45.66 13.424-68.49.863-4.068 3.609-4.373 6.863-4.78 10.22-1.17 25.168-2.898 35.947-2.593L28.11 84.896zm15.863-72.151H13.466c-3.152.61-9.152 14.796-9.914 22.27-.916 10.272-1.883 31.17-1.474 47.593l.609 15.406c-2.186 6.56-1.73 11.492 0 17.695.05 65.185.762 191.437 6.457 198.606-.711 5.44-.66 9.56-.457 15.203L43.974 12.745zM16.162 339.077v-.152l.05-.153v-.152l.05-.153.052-.153.05-.151.102-.154.102-.152.05-.102.153-.153.103-.101.1-.153.152-.101.104-.102.152-.152.153-.103.152-.1.203-.052.152-.101.206-.102.15-.051.203-.102.205-.05.203-.052.203-.05.203-.051.204-.051.203-.051h.459l.254-.05h.203v.355h-.203l-.204.05h-.458l-.204.052-.406.102-.152.05-.203.05-.203.052-.155.052-.203.1-.152.052-.153.102-.152.1-.152.052-.153.1-.101.103-.153.102-.101.1-.104.104-.1.152-.103.102-.05.1-.102.154-.051.1-.051.104-.05.152-.051.102v.152l-.051.152v.102h-.355zm4.576-3.05h.254l.203.05h.459l.203.05.254.052.203.05.203.05.203.053.203.05.153.102.203.05.205.103.152.1.153.053.152.1.152.103.153.152.152.102.1.1.156.154.099.1.104.154.1.102.103.152.05.154.052.15.05.154.05.153.052.152v.305h-.356v-.254l-.052-.152v-.102l-.05-.152-.05-.103-.101-.101-.051-.153-.104-.101-.051-.102-.101-.152-.102-.103-.152-.101-.102-.102-.152-.102-.152-.101-.102-.051-.152-.101-.205-.102-.153-.052-.152-.1-.203-.052-.152-.051-.204-.05-.61-.153-.204-.051h-.406l-.203-.051h-.254v-.355zm4.576 3.05v.355l-.051.154-.051.152-.05.152-.051.154-.051.1-.102.153-.101.153-.104.1-.1.155-.154.1-.101.154-.152.1-.153.104-.152.1-.152.102-.153.102-.152.102-.205.05-.203.102-.153.05-.203.052-.203.1-.203.052-.203.052h-.254l-.203.05-.205.05h-.711v-.355h.457l.205-.051h.2l.206-.051h.203l.203-.05.203-.051.204-.051.152-.101.203-.052.152-.051.153-.101.205-.05.152-.103.102-.101.304-.204.102-.102.152-.102.102-.101.1-.102.052-.101.104-.153.05-.101.102-.103.05-.152.05-.101v-.153l.052-.152v-.255h.356zm-4.576 3.05h-.66l-.256-.05-.203-.05h-.204l-.203-.052-.203-.051-.203-.101-.205-.051-.203-.051-.15-.101-.206-.051-.152-.102-.203-.102-.152-.102-.153-.1-.152-.103-.104-.101-.152-.153-.1-.101-.103-.154-.152-.101-.051-.153-.102-.152-.101-.101-.051-.154-.051-.152-.051-.152v-.154l-.05-.202v-.153h.355v.153l.05.102v.152l.052.153.05.1.05.153.052.103.103.1.049.154.104.1.099.103.104.1.1.103.154.102.1.102.154.102.152.1.152.104.153.05.152.1.203.052.155.052.203.1.203.052.152.05.203.05h.203l.204.052h.205l.253.05h.407v.357z"/>
    <path stroke="#4A4A4A" stroke-width=".5" d="M22.213 341.823c.102 3.356 4.678 5.695 6.914 1.882l-6.914-1.882zm2.899-2.441c4.982-8.847-13.983-8.39-8.442-1.322l8.442 1.322zm-9.305-2.695c-2.29-1.728-4.068-3.56-5.137-5.95-1.015-1.982-7.27-1.931-4.472 1.73 1.982 3.204 6.2 9.763 13.83 9.508l-4.221-5.288zm-.56-18.61l.1.255.103.203.103.255.102.254.1.203.052.255.102.203.05.203.05.255.052.202.05.205.052.203v.254l.05.152v.966l-.05.152v.154l-.051.203-.051.1-.051.154-.051.152-.101.103-.102.152-.05.102-.102.1-.154.052-.102.102-.101.05-.153-.304.102-.051.05-.051.102-.102.053-.05.1-.103.052-.05.05-.102.052-.153.05-.101.05-.102.052-.152v-.153l.05-.152v-.865l-.05-.203v-.152l-.051-.204-.05-.204-.051-.254-.051-.204-.051-.203-.051-.203-.101-.254-.053-.204-.101-.203-.102-.255-.102-.202-.101-.255.305-.152zm0 5.645l-.153.05-.152.05h-.56l-.151-.05h-.154l-.151-.05-.154-.102-.152-.051-.204-.102-.152-.101-.152-.102-.153-.101-.152-.103-.152-.152-.153-.102-.152-.152-.154-.152-.153-.153-.152-.204-.152-.152-.153-.203-.152-.153-.152-.204-.153-.203-.101-.203-.153-.254-.103-.203-.152-.205-.102-.253.305-.152.1.203.154.254.103.204.152.202.102.204.152.203.153.152.1.204.154.153.152.203.152.153.155.152.15.153.152.152.155.102.1.1.154.154.152.102.152.05.153.103.152.1.102.052.154.05.152.052h.102l.152.05h.457l.102-.05h.1l.154.305zm-4.73-3.61l-.151-.254-.102-.204-.101-.254-.102-.204-.051-.254-.101-.203-.051-.254-.102-.204-.05-.254-.051-.204-.051-.203v-.203l-.051-.204v-.203l-.051-.204v-.56l.05-.202v-.153l.103-.304.05-.154.05-.152.052-.152.05-.102.102-.102.102-.153.102-.05.1-.101.103-.103.152-.051.152.357-.101.05-.102.05-.051.052-.101.05-.051.103-.101.1-.051.104-.051.1-.051.103-.051.152v.102l-.05.152v.153l-.051.152v.559l.05.154v.203l.05.203v.204l.052.202.05.204.052.203.05.204.102.203.05.254.102.204.102.253.102.205.1.203.103.255-.305.152zm0-5.645l.153-.05.102-.051h.61l.154.05.152.05.152.052.153.05.152.053.152.1.155.103.15.1.152.103.155.102.203.152.152.152.152.103.153.152.154.203.15.153.155.152.152.204.102.203.152.152.152.205.153.253.1.204.154.203.1.255.154.203-.305.152-.152-.203-.102-.204-.152-.253-.102-.204-.152-.203-.102-.153-.152-.204-.154-.203-.151-.152-.154-.204-.102-.152-.152-.153-.152-.152-.153-.102-.152-.152-.152-.103-.153-.1-.154-.103-.152-.101-.102-.102-.152-.051-.153-.101-.152-.051h-.102l-.152-.052-.102-.05h-.457l-.103.05-.102.052-.152-.357z"/>
    <path stroke="#4A4A4A" stroke-width=".5" d="M11.992 319.502c-.661-1.373-1.678-2.238-2.288-1.932-.611.253-.56 1.626.05 3 .66 1.372 1.679 2.236 2.288 1.932.612-.255.559-1.627-.05-3zm.152-.052l.05.102.051.153.05.153.054.102.049.152.053.101.05.152v.102l.05.154.05.101v.254l.053.102v.762l-.053.102v.051l-.05.102v.101l-.05.051-.05.102-.053.051-.05.102-.052.05-.05.05-.051.052-.102.051-.152-.356h.05l.05-.052.052-.05.05-.05v-.052l.052-.05v-.05l.05-.052v-.153l.05-.05v-.66l-.05-.103v-.204l-.05-.152v-.1l-.051-.104-.051-.152v-.102l-.051-.1-.05-.153-.051-.102-.052-.153-.05-.102.305-.153zm-.051 3.255h-.051l-.101.05h-.305l-.101-.05h-.102l-.051-.05-.101-.052h-.102l-.052-.05-.1-.05-.104-.103-.05-.05-.102-.053-.051-.1-.101-.052-.102-.1-.051-.052-.101-.102-.051-.1-.102-.102-.05-.102-.102-.102-.051-.102-.101-.152-.051-.101-.052-.102-.1-.152-.051-.102-.051-.152.305-.154.05.154.102.1.05.102.051.153.05.102.103.1.05.103.102.1.05.103.051.102.101.05.052.103.102.05.052.102.049.05.103.103.05.05.103.05.102.103h.1l.052.05.05.052h.153l.05.05h.203v-.05h.052l.152.356zm-2.49-2.084l-.051-.103-.052-.153-.051-.1-.05-.153-.05-.152-.053-.102-.048-.153v-.102l-.053-.153-.051-.1v-.255l-.051-.102v-.763l.05-.1v-.051l.052-.102v-.101l.053-.052.048-.101.053-.051.05-.051.05-.102.051-.051.052-.05h.102l.151.305h-.05l-.05.05v.05h-.051l-.051.053v.05l-.051.05v.052l-.052.05v.153l-.051.05v.662l.051.102v.253l.052.103v.102l.05.1.052.152v.103l.05.151.05.103.051.101.052.152.05.102-.304.154zm.05-3.204l.051-.05h.101l.103-.052h.152l.05.051h.204l.05.051.102.05.101.051h.052l.1.102.103.051.052.051.1.05.052.103.101.05.103.102.05.102.102.05.05.102.103.102.05.102.102.101.05.101.102.153.05.102.052.102.1.152.052.101.05.153-.304.153-.05-.153-.102-.1-.103-.205-.05-.152-.101-.102-.051-.1-.051-.104-.152-.152-.103-.102-.05-.1-.103-.052-.05-.102-.051-.05-.102-.05-.052-.103-.1-.05-.051-.05-.051-.053h-.101l-.051-.05h-.052l-.05-.05h-.101l-.051-.052h-.152l-.051.051h-.052l-.151-.305zM25.263 338.976c19.83 3.661 40.32 5.848 59.082 5.034l-59.082-5.034zm59.082 6.864H66.55c-.761-.05-1.525-.711-1.627-2.033l19.422 2.033zm-19.32-1.474H54.499c-.71 0-.507-.457-.507-1.322l11.033 1.322zm-2.389 0c0 1.424.049 2.898.049 4.322-2.439 0-4.676-1.982-4.676-4.322h4.627zm21.709-3.814c-3.558 0-10.931-1.982-5.693-2.898 1.017-.152 2.695-.051 4.17.153-2.594-2.186-.967-2.186 1.576-2.237l-.053 4.982zM13.873 12.695c.255-1.474 1.679-2.847 2.39-2.898H36.55c.865 0 2.848 1.525 3.102 2.949l-25.779-.051zm2.644-2.847c6.305-3.509 14.084-3.203 19.932-.051l-19.932.051zm67.828-8.847c-18.609.305-31.371.762-47.488 3.508C23.89 6.39 11.992 7.763 7.009 18.848c-.304.66.203 1.474 1.119 1.474L84.345 1.001zm0 2.948c-20.031.509-38.082 2.95-44.896 8.238l44.896-8.238zM42.753 8.831c.561-.915 1.526-4.017 1.272-5.085-1.016-2.949-7.067-1.78-7.475.864.356 1.577 1.323 3.509 2.086 4.373.66 1.272 3.711 1.475 4.117-.152zm-4.168-.102c.711-1.322 3.254-1.728 4.067.051l-4.067-.051zm18.813 72.863a.91.91 0 0 0 .916.915c.559 0 .965-.406.965-.915 0-.559-.406-.966-.965-.966-.51 0-.916.407-.916.966zm-43.117 21.661c.406-2.594 20.541-8.543 42.558-11.644 9.254-1.271 19.016-1.577 27.506-1.678l-70.064 13.322zm70.064-27.406c-.303 0-.609-.357-.66-.966-.203-20.187-.457-40.373-.711-60.61 0-1.118.508-2.186 1.322-2.847l.049 64.423zm-.049-64.474l-5.898-.101v-.203h5.898v.304zM2.687 98.117l1.068-3.813c.254-.814 2.237-.661 2.389.051v23.542c.053 1.677-2.084 1.118-2.49.152-.305-.763-.612-1.525-.916-2.288l-.051-17.644zm3.355 1.983H2.027h4.015zm14.084 34.169c-.558-.203-2.236-.203-2.642.153-.457 49.219.406 95.692 3.305 144.912.611.05 1.271.102 1.88.203l-2.543-145.268zm-4.83-20.898c-1.117-.457-1.322.661-1.322 1.678-.049 29.084-.049 58.117-.049 87.202-.052 1.016.711 1.576 1.524 1.627h2.34l-2.493-90.507zm3.713-70.982c-.713.915-12.254 2.187-12.508 1.272.051-2.187 3.305-3.356 6.559-3.559.051-.56.152-1.119.203-1.679.102-1.169 1.932-1.83 2.084.052.053.457.102.915.154 1.372 0 0 3.813 1.424 3.508 2.542zm.559.763l-.051-.051-.102-.05-.05-.051-.051-.102-.051-.051-.051-.102-.05-.051-.051-.101-.051-.051-.051-.101v-.102l-.051-.051v-.102l-.05-.102v-.661l.05-.101v-.102l.051-.051v-.101l.051-.103.051-.101v-.102l.051-.101.05-.102.153-.153.254.204-.051.102-.051.05v.102l-.051.051-.051.102-.05.051v.101l-.051.102v.152l-.051.051v.559l.051.051v.153l.051.102v.05l.05.052.051.05v.102l.051.051.051.05.051.051.05.051.051.051h.051l-.203.305zm-.203-2.746l.05-.101.051-.051.102-.102.051-.05.05-.102.204-.102.052-.051.102-.101.051-.052.101-.05h.102l.101-.051.051-.051h.102l.101-.051h.102l.051-.05h.558l.102.05h.152l.104.051.101.051.051.051.101.05.051.052-.203.254h-.051l-.05-.051-.051-.051h-.102l-.053-.051h-.05l-.102-.05h-.457l-.101.05h-.153l-.051.051h-.101l-.051.051-.102.051-.05.05h-.053l-.102.052-.048.05-.051.051-.102.051-.052.102-.051.05-.051.051-.051.102-.101.051-.254-.204zm2.644-.66l.102.051.051.05.101.051.051.051.051.101.05.052.051.101.051.051.051.102v.101l.051.051v.102l.05.102v.152l.051.101v.408l-.051.101v.153l-.05.101-.051.102v.102l-.051.101-.051.102-.051.051-.05.102-.051.101-.051.102-.305-.203.051-.102.051-.051.051-.102.051-.05v-.102l.05-.102.051-.051v-.101l.051-.051v-.254l.051-.102v-.203l-.051-.102v-.203l-.051-.051v-.102l-.051-.051v-.051l-.05-.101-.051-.051-.051-.051-.051-.051v-.051l-.051-.05-.101-.052-.051-.05.203-.254zm.254 2.745l-.051.051-.101.102-.051.101-.051.051-.101.102-.051.051-.102.051-.101.051-.053.05-.102.051-.099.051-.053.051-.101.05-.102.052h-.051l-.101.05h-.203l-.102.051h-.459l-.049-.051h-.101l-.104-.05h-.049l-.103-.052-.102-.05-.051-.051-.101-.051.203-.305.051.051.103.051.049.051h.053l.051.051h.15l.053.05h.406l.051-.05h.152l.051-.051h.101l.051-.051h.102l.051-.051.101-.051.053-.051.049-.051.103-.051.049-.05.053-.051.101-.051.051-.051.051-.05.051-.102.05-.051.305.203z"/>
    <path stroke="#4A4A4A" stroke-width=".5" d="M21.756 39.745c-.966-.61-5.797.762-6.865 1.17-.457.202 1.778.05 3.559.508 1.119.254.408 1.677 1.676 1.88 2.24.052 3.154-2.541 1.63-3.558zM3.296 208.606h8.087c.407-2.747 2.135-3.458 6.457-2.136l-14.543 2.136zm1.883-26.492c0 1.17.762 2.085 1.628 2.085.914 0 1.678-.915 1.678-2.085 0-1.118-.764-2.033-1.678-2.033-.866 0-1.628.916-1.628 2.034zm-1.067 13.678c0 2.39 1.17 4.322 2.644 4.322 1.424 0 2.594-1.932 2.594-4.322s-1.17-4.322-2.594-4.322c-1.474 0-2.644 1.933-2.644 4.323zm2.033 1.576l-5.592.153c-.051-4.88-.051-9.763-.101-14.644.203-2.746 4.066-2.695 4.779-.66.406 1.626-1.373 2.491-2.391 2.033.101 3.152.05 5.644.153 8.797.05 1.626 1.627 1.576 3.103 1.525 1.726 1.016.049 2.796.049 2.796zm5.238 11.238c1.016 32.948 2.237 63.1 4.526 94.015l-4.526-94.014zm5.848 91.37c-2.238-30.863-2.695-52.727-3.713-84.71 0-4.729 2.746-5.339 4.373-5.288l-.66 89.998zm.762-87.455c-1.118 0-2.746.56-2.696 2.338.713 24.356 1.17 48.813 2.239 73.066 0 3 .914 4.323 2.338.763.865-2.185 1.933-5.185 2.796-7.678l-4.677-68.489zm-6.356-4.933c-.714-36.049-1.374-81.252.203-104.845-1.931-.05-3.763-.05-5.696-.1l5.493 104.945zm-7.271 50.694c.406 17.899.814 35.797 1.27 53.746.154 2.897 1.425 4.727 3.154 4.727l-4.424-58.473zm79.98-182.435c.358 0 .61-.358.662-.967.254-20.187.51-40.373.764-60.61 0-1.118-.562-2.186-1.323-2.847l-.103 64.423zm.052-64.475l5.948-.1v-.204h-5.948v.304z"/>
    <path fill="#FFF" d="M66.657 345.838c-.604-.042-1.28-.523-1.534-1.474a3 3 0 0 1-.087-.494 254.531 254.531 0 0 1-10.89-.81c-8.13-.77-16.341-1.911-24.47-3.315a366.912 366.912 0 0 1-4.234-.756l.029.088-.051.152v.203l-.05.153v.152l-.051.152-.102.155-.051.1-.101.153-.102.153-.101.1-.102.154-.254.254-.154.1-.102.105-.152.099-.203.102-.152.103-.153.102-.203.05-.152.102-.203.05-.205.052-.204.1-.203.052-.09.024c.297 3.259 4.706 5.453 6.905 1.705-.037.33-.072.62-.102.865 12.405 2.186 22.93 3.305 34.065 4.219 7.269.509 14.03.763 21.199.713l.002-3.663H66.657M105.602 348.788c11.133-.914 21.66-2.033 34.064-4.22a62.63 62.63 0 0 1-.101-.864c2.199 3.748 6.605 1.554 6.904-1.705l-.09-.024-.203-.051-.203-.101-.205-.051-.203-.051-.152-.101-.204-.051-.152-.102-.152-.103-.203-.102-.153-.1-.101-.103-.155-.101-.152-.153-.102-.101-.101-.153-.102-.101-.101-.153-.102-.152-.051-.101-.101-.155-.051-.152v-.152l-.051-.153v-.203l-.05-.152.029-.088c-1.408.26-2.82.512-4.235.756-8.128 1.404-16.34 2.545-24.47 3.316-3.651.348-7.285.62-10.89.809a2.999 2.999 0 0 1-.087.494c-.254.95-.93 1.432-1.533 1.474H84.399l.004 3.663c7.166.05 13.929-.204 21.199-.713M84.395 340.55c3.578-.016 10.86-1.985 5.648-2.897-1.068-.152-2.748-.051-4.17.152 2.565-2.164.948-2.185-1.5-2.234-2.5.049-4.068.07-1.5 2.234-1.474-.203-3.152-.304-4.17-.152-5.214.912 2.067 2.88 5.645 2.898h.047"/>
  </g>
</svg>
